<svg width="85" height="134" viewBox="0 0 85 134" fill="none" xmlns="http://www.w3.org/2000/svg">
<g opacity="0.2" clip-path="url(#clip0)">
<path d="M98.6583 84.5518H92.7379C105.072 76.2472 113.201 62.1562 113.201 46.2016C113.201 20.7258 92.4754 0 66.9997 0C41.5239 0 20.7979 20.7258 20.7979 46.2016C20.7979 71.6763 41.5218 92.4013 66.9963 92.4031C66.9973 92.4031 66.9984 92.4034 66.9997 92.4034H98.6583C102.228 92.4034 105.131 95.3074 105.131 98.8767C105.131 102.446 102.227 105.35 98.6583 105.35H35.3411C27.4421 105.35 21.0161 111.776 21.0161 119.675C21.0161 127.574 27.4424 134 35.3411 134H66.9997C69.1678 134 70.9255 132.242 70.9255 130.074C70.9255 127.906 69.1678 126.148 66.9997 126.148H35.3411C31.7715 126.148 28.8677 123.244 28.8677 119.675C28.8677 116.106 31.7717 113.202 35.3411 113.202H98.658C106.557 113.202 112.983 106.775 112.983 98.8767C112.983 90.9781 106.557 84.5518 98.6583 84.5518ZM105.35 46.2016C105.35 50.6764 104.577 54.9733 103.162 58.9695L99.6594 59.69C92.2098 61.2229 84.611 61.6812 77.0439 61.062C77.514 56.3783 78.3957 51.744 79.6747 47.2168C82.7827 47.5492 85.8963 47.7182 89.0074 47.7182C94.4797 47.7182 99.9426 47.1977 105.349 46.1717C105.349 46.1817 105.35 46.1916 105.35 46.2016ZM94.0125 19.0068C99.2338 24.1933 102.974 30.8682 104.537 38.334C97.1804 39.7928 89.7044 40.209 82.2543 39.5764C84.6006 33.6296 87.6603 27.9409 91.4147 22.6607L94.0125 19.0068ZM28.8601 50.2237L32.6791 52.939C37.2781 56.2092 42.2112 59.0355 47.3524 61.363C47.1917 67.5691 47.6866 73.8127 48.862 79.9832C37.9583 74.1055 30.2088 63.1037 28.8601 50.2237ZM47.9711 52.9725C44.2309 51.1125 40.6302 48.9585 37.2294 46.5402L29.5565 41.0847C29.389 40.9656 29.2137 40.8662 29.0355 40.7769C29.6837 36.2151 31.1363 31.9088 33.2476 28.0079L38.1213 31.4733C42.1314 34.3245 46.405 36.8443 50.8377 38.9847C49.5066 43.5611 48.5477 48.2406 47.9711 52.9725ZM42.671 25.0743L37.6725 21.5201C44.708 13.1736 55.2315 7.85917 66.9748 7.85158L63.55 12.6688C59.3748 18.541 55.975 24.8712 53.3858 31.4919C49.6582 29.6363 46.0614 27.4847 42.671 25.0743ZM66.9997 84.5518C63.7455 84.5518 60.5849 84.1427 57.566 83.3762L56.7992 79.649C52.3442 57.9928 57.1371 35.2379 69.949 17.2182L75.4045 9.54542C75.5582 9.32924 75.6861 9.1026 75.7906 8.8694C80.1597 9.89796 84.2423 11.6763 87.8961 14.0601L85.0159 18.111C71.3887 37.2764 66.0224 61.3206 70.1424 84.4223C69.1057 84.5068 68.0578 84.5518 66.9997 84.5518ZM76.6401 68.9091C78.9459 69.0915 81.254 69.1829 83.5605 69.1829C88.6038 69.1829 93.6383 68.7429 98.6209 67.874C93.6922 75.0428 86.3926 80.4588 77.8618 82.9825C77.0329 78.314 76.6304 73.6036 76.6401 68.9091Z" fill="#74B3AF"/>
</g>
<defs>
<clipPath id="clip0">
<rect width="85" height="134" fill="white"/>
</clipPath>
</defs>
</svg>
