<svg width="50" height="68" viewBox="0 0 50 68" fill="none" xmlns="http://www.w3.org/2000/svg">
<g opacity="0.2">
<path d="M58.0416 9.95841C51.6198 3.53666 43.0817 0 34 0C24.9183 0 16.3802 3.53666 9.95841 9.95841C3.53666 16.3802 0 24.9183 0 34C0 43.0817 3.53666 51.6198 9.95841 58.0416C16.3802 64.4633 24.9183 68 34 68C43.0817 68 51.6198 64.4633 58.0416 58.0416C64.4633 51.6198 68 43.0817 68 34C68 24.9183 64.4633 16.3802 58.0416 9.95841ZM63.6711 23.8546C62.4888 24.6682 61.3828 25.5885 60.3691 26.6019C58.2162 28.7548 56.4788 31.3245 55.3052 34.1615C54.4805 36.155 53.2811 37.9472 51.7402 39.4881C48.6225 42.6057 44.477 44.3142 40.0678 44.2987C35.659 44.2831 31.5253 42.5448 28.4283 39.4039C25.3568 36.289 23.6867 32.1437 23.7258 27.7318C23.7647 23.3166 25.5056 19.195 28.6389 16.1342C30.1409 14.6637 31.877 13.5121 33.7992 12.711C37.9732 10.9715 41.5722 8.01922 44.1292 4.32318C48.6107 5.8484 52.7179 8.39096 56.1635 11.8365C59.6048 15.278 62.1452 19.3795 63.6711 23.8546ZM56.1634 56.1634C50.2434 62.0835 42.3722 65.3438 34 65.3438C25.6278 65.3438 17.7566 62.0835 11.8366 56.1634C5.91653 50.2434 2.65625 42.3722 2.65625 34C2.65625 25.6278 5.91653 17.7566 11.8366 11.8366C17.7566 5.91653 25.6278 2.65625 34 2.65625C35.2875 2.65625 36.5629 2.73408 37.8214 2.88602C36.0862 4.78882 33.9454 6.31922 31.5511 7.31704C28.9406 8.40477 26.5853 9.96652 24.5505 11.9586C20.2972 16.1157 17.9347 21.7004 17.882 27.6804C17.8293 33.6571 20.0968 39.2778 24.267 43.507C28.4654 47.765 34.0696 50.1214 40.0471 50.1426C46.0251 50.1635 51.6453 47.8473 55.8722 43.6204C57.9592 41.5334 59.5853 39.1027 60.7051 36.3954C61.6927 34.0078 63.2148 31.8759 65.1111 30.1526C65.2651 31.4195 65.3438 32.7036 65.3438 34C65.3438 42.3722 62.0835 50.2434 56.1634 56.1634Z" fill="#74B3AF"/>
</g>
</svg>
