<svg width="86" height="86" viewBox="0 0 86 86" fill="none" xmlns="http://www.w3.org/2000/svg">
<g filter="url(#filter0_d)">
<circle r="30" transform="matrix(-1 0 0 1 43 40)" fill="#74B3AF"/>
</g>
<path d="M39.9697 32.4697C39.7034 32.7359 39.6792 33.1526 39.8971 33.4462L39.9697 33.5303L46.439 40L39.9697 46.4697C39.7034 46.7359 39.6792 47.1526 39.8971 47.4462L39.9697 47.5303C40.2359 47.7966 40.6526 47.8208 40.9462 47.6029L41.0303 47.5303L48.0303 40.5303C48.2966 40.2641 48.3208 39.8474 48.1029 39.5538L48.0303 39.4697L41.0303 32.4697C40.7374 32.1768 40.2626 32.1768 39.9697 32.4697Z" fill="white"/>
<defs>
<filter id="filter0_d" x="0" y="0" width="86" height="86" filterUnits="userSpaceOnUse" color-interpolation-filters="sRGB">
<feFlood flood-opacity="0" result="BackgroundImageFix"/>
<feColorMatrix in="SourceAlpha" type="matrix" values="0 0 0 0 0 0 0 0 0 0 0 0 0 0 0 0 0 0 127 0"/>
<feOffset dy="3"/>
<feGaussianBlur stdDeviation="6.5"/>
<feColorMatrix type="matrix" values="0 0 0 0 0.927018 0 0 0 0 0.927018 0 0 0 0 0.927018 0 0 0 0.8 0"/>
<feBlend mode="normal" in2="BackgroundImageFix" result="effect1_dropShadow"/>
<feBlend mode="normal" in="SourceGraphic" in2="effect1_dropShadow" result="shape"/>
</filter>
</defs>
</svg>
