<svg width="95" height="95" viewBox="0 0 95 95" fill="none" xmlns="http://www.w3.org/2000/svg">
<g opacity="0.2" clip-path="url(#clip0)">
<path d="M87.8271 11.2109H84.6253C83.1452 11.2109 81.7666 10.4791 80.9372 9.25322L80.1798 8.13326C76.7346 3.04056 71.0069 0 64.8581 0H60.1409C52.2856 0 45.895 6.39061 45.895 14.2459V18.8967C45.895 22.4892 47.7368 25.6587 50.5248 27.5138C46.8085 33.3762 41.6642 38.1985 35.5452 41.5232L25.2188 47.1341C19.8491 50.0518 15.5785 54.4218 12.7803 59.6051V48.8899C12.7803 45.8206 10.2832 43.3235 7.21387 43.3235C4.14455 43.3235 1.64746 45.8206 1.64746 48.8899V79.4419C1.64746 88.0056 8.61475 94.9729 17.1785 94.9729L78.9916 95C81.2263 95 83.0443 93.1818 83.0443 90.9471C83.0443 86.2247 79.2024 82.3828 74.48 82.3828H72.1367L72.1371 57.5312C76.4689 52.5387 78.8456 46.1819 78.8456 39.5478C78.8456 37.0539 78.5138 34.6036 77.8594 32.2328H81.7536C88.1502 32.2328 93.354 27.029 93.354 20.6324V16.7378C93.3538 13.6902 90.8745 11.2109 87.8271 11.2109ZM49.6059 14.2459C49.6059 8.43682 54.332 3.71094 60.1409 3.71094H62.8735V18.8968C62.8735 22.5547 59.8975 25.5305 56.2396 25.5305C52.5818 25.5305 49.6059 22.5547 49.6059 18.8968V14.2459ZM17.1783 91.2622C10.6606 91.2622 5.35821 85.9598 5.35821 79.4421V48.8901C5.35821 47.867 6.19058 47.0346 7.21368 47.0346C8.23679 47.0346 9.06915 47.867 9.06915 48.8901V74.2861C9.06915 74.2991 9.07082 74.3115 9.07101 74.3245C9.08381 81.3246 12.5871 87.5202 17.9296 91.2622H17.1783ZM81.7534 28.5221H76.6515C74.5292 28.5221 72.4395 27.9547 70.6087 26.8815C69.7241 26.3631 68.5878 26.6599 68.0695 27.5437C67.5513 28.4278 67.8478 29.5647 68.7318 30.0829C70.3343 31.0223 72.0887 31.6643 73.9055 31.9881C74.7208 34.416 75.1344 36.9541 75.1344 39.5478C75.1344 45.4972 72.9242 51.1889 68.9108 55.5741C68.5839 55.9313 68.4108 56.4025 68.426 56.8855L68.4256 82.3828H66.631C65.6064 82.3828 64.7755 83.2137 64.7755 84.2383C64.7755 85.2629 65.6064 86.0938 66.631 86.0938H74.4798C77.156 86.0938 79.3332 88.271 79.3332 90.9471C79.3332 91.1356 79.1799 91.2891 78.9914 91.2891H60.7876C60.797 91.1762 60.803 91.0623 60.803 90.9471C60.803 86.5001 57.3958 82.8352 53.0551 82.4227C55.1978 79.818 56.4268 76.5112 56.4268 73.0455C56.4268 64.9147 49.8119 58.2996 41.6809 58.2996C40.4572 58.2996 39.2398 58.4502 38.062 58.7473C37.0686 58.9982 36.4661 60.0066 36.7168 61.0004C36.9674 61.9938 37.9753 62.5963 38.9698 62.3456C39.851 62.1233 40.7632 62.0105 41.6809 62.0105C47.7655 62.0105 52.7159 66.9609 52.7159 73.0455C52.7159 76.9229 50.6587 80.534 47.335 82.5223C46.66 82.7999 46.1845 83.4632 46.1845 84.2383C46.1845 85.2629 47.0154 86.0938 48.0399 86.0938H48.0754C48.0772 86.0938 48.0791 86.0941 48.0809 86.0941C48.0828 86.0941 48.0848 86.0938 48.0867 86.0938H52.2387C54.9148 86.0938 57.092 88.271 57.092 90.9471C57.092 91.1358 56.9388 91.2891 56.7503 91.2891H29.7845C20.4092 91.2891 12.7816 83.6616 12.7816 74.2861C12.7816 64.3115 18.2261 55.157 26.9904 50.3951L37.3168 44.7842C44.1696 41.0604 49.906 35.618 53.9824 28.9904C54.7094 29.1529 55.4642 29.2414 56.2394 29.2414C61.9435 29.2414 66.5842 24.6009 66.5842 18.8968V14.5595C66.5857 16.0394 67.7857 17.2386 69.2659 17.2386C70.747 17.2386 71.9477 16.0379 71.9477 14.5569C71.9477 13.0759 70.7472 11.875 69.2659 11.875C67.7857 11.875 66.5857 13.0742 66.5842 14.5541V3.81262C70.8299 4.30951 74.6774 6.62272 77.1059 10.2125L77.8634 11.3325C79.384 13.58 81.9117 14.9219 84.6252 14.9219H85.0282C85.4505 17.3262 87.2833 19.2433 89.6427 19.7891V20.6326C89.6429 24.983 86.1038 28.5221 81.7534 28.5221Z" fill="#74B3AF"/>
</g>
<defs>
<clipPath id="clip0">
<rect width="95" height="95" fill="white"/>
</clipPath>
</defs>
</svg>
