<svg width="80" height="80" viewBox="0 0 80 80" fill="none" xmlns="http://www.w3.org/2000/svg">
<g clip-path="url(#clip0)">
<path fill-rule="evenodd" clip-rule="evenodd" d="M80.0002 33.7564V46.7258C80.0002 48.2156 77.5444 49.4381 74.513 49.4381H4.5602C1.56716 49.4381 -0.888672 48.2156 -0.888672 46.7258V33.7564C-0.888672 32.2665 1.56716 31.0441 4.5602 31.0441H74.513C77.5444 31.0441 80.0002 32.2665 80.0002 33.7564Z" fill="white" fill-opacity="0.2"/>
<path fill-rule="evenodd" clip-rule="evenodd" d="M32.9848 0.329887H46.1274C47.6372 0.329887 48.8759 2.75336 48.8759 5.74482V74.7758C48.8759 77.7294 47.6372 80.1528 46.1274 80.1528H32.9848C31.4751 80.1528 30.2363 77.7294 30.2363 74.7758L30.2363 5.74482C30.2363 2.75336 31.4751 0.329887 32.9848 0.329887Z" fill="white" fill-opacity="0.2"/>
<path fill-rule="evenodd" clip-rule="evenodd" d="M52.2878 20.1097C52.2878 20.1097 53.6604 17.4005 53.7551 15.6723C53.8498 13.9557 49.7438 18.6734 49.7438 18.6734C49.7438 18.6734 50.7851 15.4737 50.5603 15.03C50.3354 14.5863 45.9928 17.6458 43.9339 20.2498C42.9281 21.511 41.2242 24.5238 39.5439 27.4431C40.9994 30.8413 43.4606 33.3052 47.6967 34.7649C48.5132 35.0451 49.3651 35.2904 50.2289 35.5122C50.2999 32.6279 52.6073 30.3391 53.3646 30.0355C54.1693 29.7085 55.8495 30.234 56.9618 28.9962C58.0741 27.7701 58.0859 27.0811 57.9912 26.976C57.8966 26.8709 55.8732 25.2127 55.5774 23.8932C55.2697 22.5853 54.9975 21.1723 52.2878 20.1097Z" fill="white"/>
<path fill-rule="evenodd" clip-rule="evenodd" d="M12.6482 24.3485C12.4589 24.0799 10.4118 20.9621 10.4946 19.4557C10.5893 17.9493 12.8375 16.5947 14.6834 16.8282C16.5294 17.0501 18.4108 17.5873 20.3513 16.0108C22.3038 14.4344 26.2204 12.8229 30.6459 14.9599C35.0713 17.1085 35.9588 17.6807 36.9291 22.9589C37.8994 28.2488 40.0766 33.4686 47.2709 35.9676C49.5073 36.7383 57.3406 38.198 61.6359 39.0037C60.3343 40.1247 59.0445 41.6194 58.1807 42.577C57.175 43.6863 56.0863 44.9358 54.9386 45.8934C54.2168 46.4889 53.1755 46.8392 52.2999 47.1078C50.8918 47.5399 49.5191 47.9019 48.1702 48.4741C44.5494 49.9805 41.6267 51.8605 39.5559 54.1026C37.4852 51.8605 34.5743 49.9805 30.9417 48.4741C29.9004 48.042 28.8591 47.7267 27.806 47.4114C26.6819 40.7903 27.7823 33.2584 25.7116 30.7945C22.6587 27.1394 14.4586 29.6851 12.6482 24.3485ZM28.516 18.2179C28.516 18.2179 27.2735 20.5534 29.5572 23.8581C30.492 25.201 31.3203 26.0534 32.0185 26.5672C33.0006 27.3029 33.6869 27.3613 33.9827 27.2679C35.663 26.719 35.1068 21.4408 34.7282 20.133C35.9588 21.289 36.3848 27.9802 34.3614 28.6458C33.959 28.7743 33.0952 28.7276 31.9593 27.8751C31.2138 27.3263 30.35 26.4388 29.3916 25.0492C28.6225 23.9632 26.8475 20.3432 28.516 18.2179Z" fill="white"/>
<path fill-rule="evenodd" clip-rule="evenodd" d="M39.556 71.4663C34.1603 60.5362 39.2129 53.74 48.7264 49.7813C51.5781 48.6019 54.1577 48.3917 55.8616 46.9787C58.5476 44.76 62.0147 39.8088 64.1801 39.0031C67.3039 37.847 66.4046 40.6029 66.4046 40.6029C66.4046 40.6029 62.8666 46.8386 62.3815 47.4925C61.8845 48.1348 59.6126 50.3418 58.9026 50.5754C59.6363 50.5754 61.3875 49.2325 62.9139 47.7144C63.3754 47.259 63.6949 46.535 64.0972 45.8343C65.8485 42.8099 67.3867 41.1167 67.4459 39.5869C67.5051 38.0689 65.9431 38.1039 65.9431 38.1039C65.9431 38.1039 66.8188 35.4648 66.3809 30.677C66.1088 27.6643 68.0257 26.2863 68.9723 26.7534C69.3983 26.9636 69.4101 29.2174 69.4811 30.0114C69.8006 33.4096 70.9247 39.0147 70.1793 41.3853C69.2208 44.398 67.3039 51.568 63.7186 54.8493C53.7317 63.911 45.3778 58.5511 39.556 71.4663Z" fill="white"/>
<path fill-rule="evenodd" clip-rule="evenodd" d="M39.5561 71.4663C44.9519 60.5362 39.8993 53.74 30.3739 49.7813C27.5222 48.6019 24.9426 48.3917 23.2387 46.9787C20.5527 44.76 17.0857 39.8088 14.9203 39.0031C11.7964 37.847 12.6957 40.6029 12.6957 40.6029C12.6957 40.6029 16.2337 46.8386 16.7307 47.4925C17.2277 48.1348 19.4996 50.3418 20.2095 50.5754C19.4759 50.5754 17.7246 49.2325 16.1982 47.7144C15.7486 47.259 15.4291 46.535 15.0268 45.8343C13.2873 42.8099 11.7373 41.1167 11.6781 39.5869C11.6189 38.0689 13.1809 38.1039 13.1809 38.1039C13.1809 38.1039 12.3052 35.4648 12.743 30.677C13.0152 27.6643 11.0983 26.2863 10.1517 26.7534C9.72568 26.9636 9.71384 29.2174 9.64285 30.0114C9.32336 33.4096 8.19925 39.0147 8.95655 41.3853C9.915 44.398 11.8319 51.568 15.4291 54.8493C25.3805 63.911 33.7462 58.5511 39.5561 71.4663Z" fill="white"/>
</g>
<defs>
<clipPath id="clip0">
<rect width="80" height="80" fill="white"/>
</clipPath>
</defs>
</svg>
