<?xml version="1.0" encoding="UTF-8"?>
<!DOCTYPE svg PUBLIC "-//W3C//DTD SVG 1.1//EN" "http://www.w3.org/Graphics/SVG/1.1/DTD/svg11.dtd">
<!-- Creator: CorelDRAW 2020 (64-Bit) -->
<svg xmlns="http://www.w3.org/2000/svg" xml:space="preserve" width="381mm" height="67.7332mm" version="1.1" style="shape-rendering:geometricPrecision; text-rendering:geometricPrecision; image-rendering:optimizeQuality; fill-rule:evenodd; clip-rule:evenodd"
viewBox="0 0 38100 6773.32"
 xmlns:xlink="http://www.w3.org/1999/xlink"
 xmlns:xodm="http://www.corel.com/coreldraw/odm/2003">
 <defs>
  <style type="text/css">
   <![CDATA[
    .fil0 {fill:#74B3AF}
   ]]>
  </style>
 </defs>
 <g id="Слой_x0020_1">
  <metadata id="CorelCorpID_0Corel-Layer"/>
  <path class="fil0" d="M38097.19 700.3l-1270 254.07c-1270,254.07 -3810,762.19 -6350,1143.3 -2540,381.11 -5080,635.18 -7620,254.07 -2540,-381.11 -5080,-1397.37 -7620,-1905.51 -2540,-508.13 -5080,-508.13 -7620,-254.06 -2540,254.06 -5080,762.2 -6350,1016.27l-1270 254.07 0 5335.42 1270 0c1270,0 3810,0 6350,0 2540,0 5080,0 7620,0 2540,0 5080,0 7620,0 2540,0 5080,0 7620,0 2540,0 5080,0 6350,0l1270 0 0 -6097.63z"/>
 </g>
</svg>
