<svg width="295" height="40" viewBox="0 0 295 40" fill="none" xmlns="http://www.w3.org/2000/svg">
<rect width="295" height="40" rx="16" fill="#FF8A34"/>
<path fill-rule="evenodd" clip-rule="evenodd" d="M155.84 26.1932C155.84 29.4892 151.32 29.8702 147.921 29.8702L147.678 29.8699C145.512 29.8647 140 29.728 140 26.1732C140 22.9444 144.338 22.5129 147.711 22.4967L148.164 22.4964C150.33 22.5016 155.84 22.6383 155.84 26.1932ZM147.921 23.9962C143.66 23.9962 141.5 24.7282 141.5 26.1732C141.5 27.6312 143.66 28.3702 147.921 28.3702C152.181 28.3702 154.34 27.6382 154.34 26.1932C154.34 24.7352 152.181 23.9962 147.921 23.9962ZM147.921 9.99976C150.849 9.99976 153.23 12.3818 153.23 15.3098C153.23 18.2378 150.849 20.6188 147.921 20.6188H147.889C144.967 20.6098 142.6 18.2268 142.61 15.3068C142.61 12.3818 144.992 9.99976 147.921 9.99976ZM147.921 11.4278C145.78 11.4278 144.038 13.1688 144.038 15.3098C144.031 17.4438 145.76 19.1838 147.892 19.1918L147.921 19.9058V19.1918C150.061 19.1918 151.802 17.4498 151.802 15.3098C151.802 13.1688 150.061 11.4278 147.921 11.4278Z" fill="white"/>
</svg>
