<svg width="118" height="61" viewBox="0 0 118 61" fill="none" xmlns="http://www.w3.org/2000/svg">
<g clip-path="url(#clip0)">
<path fill-rule="evenodd" clip-rule="evenodd" d="M60 25.269V35.1476C60 36.2824 58.1784 37.2135 55.9298 37.2135H4.04175C1.82163 37.2135 0 36.2824 0 35.1476V25.269C0 24.1342 1.82163 23.2031 4.04175 23.2031H55.9298C58.1784 23.2031 60 24.1342 60 25.269Z" fill="#FF8A34" fill-opacity="0.3"/>
<path fill-rule="evenodd" clip-rule="evenodd" d="M25.1257 -0.191202H34.8743C35.9941 -0.191202 36.913 1.6547 36.913 3.93325V56.5128C36.913 58.7625 35.9941 60.6084 34.8743 60.6084H25.1257C24.0058 60.6084 23.0869 58.7625 23.0869 56.5128L23.0869 3.93325C23.0869 1.6547 24.0058 -0.191202 25.1257 -0.191202Z" fill="#FF8A34" fill-opacity="0.3"/>
<path fill-rule="evenodd" clip-rule="evenodd" d="M39.4441 12.3288C39.4441 12.3288 40.4622 10.2653 40.5325 8.94887C40.6027 7.64138 37.557 11.2348 37.557 11.2348C37.557 11.2348 38.3294 8.79767 38.1627 8.45968C37.9959 8.12169 34.7747 10.452 33.2475 12.4355C32.5015 13.3961 31.2376 15.6909 29.9912 17.9145C31.0708 20.5028 32.8964 22.3796 36.0386 23.4914C36.6442 23.7048 37.2762 23.8916 37.9169 24.0606C37.9696 21.8637 39.6811 20.1204 40.2428 19.8891C40.8397 19.64 42.086 20.0403 42.911 19.0975C43.7361 18.1636 43.7449 17.6388 43.6747 17.5587C43.6044 17.4787 42.1036 16.2157 41.8841 15.2106C41.6559 14.2144 41.4541 13.1382 39.4441 12.3288Z" fill="#74B3AF"/>
<path fill-rule="evenodd" clip-rule="evenodd" d="M10.0406 15.5577C9.90021 15.3531 8.38178 12.9783 8.44322 11.8309C8.51344 10.6835 10.1811 9.65177 11.5503 9.82966C12.9195 9.99866 14.3151 10.4078 15.7545 9.20705C17.2027 8.0063 20.1079 6.77886 23.3906 8.40655C26.6732 10.0431 27.3315 10.479 28.0512 14.4993C28.7709 18.5285 30.3859 22.5043 35.7223 24.4077C37.3812 24.9947 43.1916 26.1066 46.3777 26.7203C45.4122 27.5742 44.4555 28.7126 43.8148 29.442C43.0687 30.287 42.2612 31.2387 41.4099 31.968C40.8745 32.4216 40.1021 32.6885 39.4526 32.893C38.4081 33.2221 37.39 33.4979 36.3894 33.9337C33.7036 35.0811 31.5357 36.5131 29.9997 38.2208C28.4637 36.5131 26.3045 35.0811 23.61 33.9337C22.8376 33.6046 22.0652 33.3645 21.2841 33.1243C20.4502 28.0811 21.2665 22.3442 19.7305 20.4675C17.466 17.6835 11.3835 19.6225 10.0406 15.5577ZM21.8107 10.8881C21.8107 10.8881 20.8891 12.667 22.5831 15.1841C23.2765 16.207 23.8909 16.8563 24.4087 17.2477C25.1372 17.808 25.6463 17.8525 25.8657 17.7813C27.112 17.3633 26.6995 13.343 26.4186 12.3468C27.3315 13.2274 27.6474 18.3239 26.1466 18.8309C25.8481 18.9287 25.2074 18.8931 24.3648 18.2438C23.8119 17.8258 23.1711 17.1498 22.4602 16.0914C21.8897 15.2642 20.5731 12.5069 21.8107 10.8881Z" fill="#74B3AF"/>
<path fill-rule="evenodd" clip-rule="evenodd" d="M29.9999 51.4461C25.9976 43.1209 29.7454 37.9443 36.8021 34.9291C38.9174 34.0307 40.8308 33.8706 42.0947 32.7944C44.0871 31.1044 46.6588 27.3332 48.265 26.7195C50.5821 25.8389 49.9151 27.938 49.9151 27.938C49.9151 27.938 47.2907 32.6877 46.9309 33.1858C46.5622 33.675 44.877 35.356 44.3504 35.5339C44.8946 35.5339 46.1936 34.511 47.3258 33.3548C47.6681 33.0079 47.9051 32.4564 48.2035 31.9227C49.5025 29.6191 50.6436 28.3294 50.6875 27.1642C50.7313 26.0079 49.5728 26.0346 49.5728 26.0346C49.5728 26.0346 50.2223 24.0244 49.8975 20.3777C49.6956 18.0829 51.1175 17.0334 51.8197 17.3892C52.1357 17.5493 52.1444 19.2659 52.1971 19.8707C52.4341 22.459 53.2679 26.7284 52.715 28.5339C52.004 30.8287 50.5821 36.2899 47.9227 38.7893C40.5148 45.6914 34.3182 41.6088 29.9999 51.4461Z" fill="#74B3AF"/>
<path fill-rule="evenodd" clip-rule="evenodd" d="M29.9997 51.4461C34.002 43.1209 30.2542 37.9443 23.1887 34.9291C21.0734 34.0307 19.16 33.8706 17.8961 32.7944C15.9037 31.1044 13.332 27.3332 11.7258 26.7195C9.4087 25.8389 10.0758 27.938 10.0758 27.938C10.0758 27.938 12.7001 32.6877 13.0687 33.1858C13.4374 33.675 15.1226 35.356 15.6492 35.5339C15.105 35.5339 13.806 34.511 12.6738 33.3548C12.3402 33.0079 12.1033 32.4564 11.8048 31.9227C10.5146 29.6191 9.36481 28.3294 9.32093 27.1642C9.27704 26.0079 10.4356 26.0346 10.4356 26.0346C10.4356 26.0346 9.78611 24.0244 10.1109 20.3777C10.3127 18.0829 8.89085 17.0334 8.18869 17.3892C7.87271 17.5493 7.86393 19.2659 7.81127 19.8707C7.57429 22.459 6.74047 26.7284 7.3022 28.5339C8.01315 30.8287 9.43503 36.2899 12.1033 38.7893C19.4848 45.6914 25.6902 41.6088 29.9997 51.4461Z" fill="#74B3AF"/>
<path d="M50.0319 59.7123L46 46.2877H49.4967L51.923 55.5315L54.3671 46.2877H57.8638L53.8319 59.7123H50.0319Z" fill="#74B3AF"/>
<path d="M62.0391 56.4904H66.8738V59.7123H58.8457V46.2877H66.7846V49.4904H62.0391V51.3507H66.3386V54.5151H62.0391V56.4904Z" fill="#74B3AF"/>
<path d="M76.9563 46.2877V49.6055H73.8699V59.7123H70.6765V49.6055H67.5902V46.2877H76.9563Z" fill="#74B3AF"/>
<path d="M82.9671 46.2877C84.2278 46.2877 85.2863 46.7288 86.1426 47.611C86.999 48.4932 87.4271 49.6183 87.4271 50.9863C87.4271 52.3543 86.999 53.4795 86.1426 54.3616C85.2863 55.2438 84.2278 55.6849 82.9671 55.6849H81.3079V59.7123H78.1145V46.2877H82.9671ZM82.9671 52.4247C83.3239 52.4247 83.6212 52.2904 83.8591 52.0219C84.1088 51.7534 84.2337 51.4082 84.2337 50.9863C84.2337 50.5644 84.1088 50.2256 83.8591 49.9699C83.6212 49.7014 83.3239 49.5671 82.9671 49.5671H81.3079V52.4247H82.9671Z" fill="#74B3AF"/>
<path d="M91.8657 56.3945H96.1652V59.7123H88.6723V46.2877H91.8657V56.3945Z" fill="#74B3AF"/>
<path d="M105.576 58.7151C104.66 59.5717 103.477 60 102.026 60C100.575 60 99.3857 59.5717 98.458 58.7151C97.5422 57.8584 97.0843 56.7205 97.0843 55.3014V46.2877H100.278V54.9753C100.278 56.1005 100.86 56.663 102.026 56.663C103.192 56.663 103.774 56.1005 103.774 54.9753V46.2877H106.968V55.3014C106.968 56.7205 106.504 57.8584 105.576 58.7151Z" fill="#74B3AF"/>
<path d="M113.255 60C111.934 60 110.84 59.6995 109.972 59.0986C109.104 58.4977 108.497 57.6858 108.152 56.663L110.882 54.9562C111.346 56.1452 112.166 56.7397 113.344 56.7397C114.319 56.7397 114.807 56.4393 114.807 55.8384C114.807 55.442 114.527 55.1224 113.968 54.8795C113.73 54.7772 113.207 54.6046 112.398 54.3616C111.256 54.0037 110.352 53.505 109.686 52.8658C109.02 52.2137 108.687 51.3123 108.687 50.1616C108.687 48.9215 109.098 47.9178 109.918 47.1507C110.751 46.3836 111.786 46 113.023 46C114.069 46 114.997 46.2621 115.806 46.7863C116.614 47.3105 117.233 48.0712 117.661 49.0685L114.985 50.7562C114.593 49.7589 113.944 49.2603 113.04 49.2603C112.66 49.2603 112.368 49.3434 112.166 49.5096C111.976 49.6758 111.881 49.8868 111.881 50.1425C111.881 50.4365 112.024 50.6858 112.309 50.8904C112.606 51.095 113.177 51.3315 114.022 51.6C114.628 51.7918 115.116 51.9708 115.485 52.137C115.853 52.3032 116.258 52.5461 116.698 52.8658C117.138 53.1726 117.465 53.5753 117.679 54.074C117.893 54.5598 118 55.1352 118 55.8C118 57.1169 117.566 58.1461 116.698 58.8877C115.829 59.6292 114.682 60 113.255 60Z" fill="#74B3AF"/>
</g>
<defs>
<clipPath id="clip0">
<rect width="118" height="61" fill="white"/>
</clipPath>
</defs>
</svg>
