<svg width="157" height="21" viewBox="0 0 157 21" fill="none" xmlns="http://www.w3.org/2000/svg">
<path d="M0.736731 20.7083C0.540269 20.7083 0.363454 20.6403 0.206285 20.5042C0.0687616 20.3486 0 20.1736 0 19.9792V1.02083C0 0.806944 0.0687616 0.631945 0.206285 0.495834C0.363454 0.359722 0.540269 0.291667 0.736731 0.291667H9.72484C12.2003 0.291667 14.0372 0.797223 15.2356 1.80833C16.4536 2.8 17.0627 4.21944 17.0627 6.06667C17.0627 7.03889 16.8073 7.86528 16.2965 8.54583C15.8053 9.20695 15.2454 9.69306 14.6167 10.0042C15.4222 10.3736 16.1 10.9667 16.6501 11.7833C17.2002 12.6 17.4752 13.5139 17.4752 14.525C17.4752 16.4694 16.8269 17.9861 15.5303 19.075C14.2336 20.1639 12.3869 20.7083 9.99006 20.7083H0.736731ZM9.13546 8.4C9.9213 8.4 10.5205 8.20556 10.9331 7.81667C11.3456 7.40833 11.5519 6.87361 11.5519 6.2125C11.5519 5.57083 11.3456 5.05556 10.9331 4.66667C10.5205 4.27778 9.9213 4.08333 9.13546 4.08333H5.30446V8.4H9.13546ZM9.40068 16.9167C10.2062 16.9167 10.8348 16.6833 11.2867 16.2167C11.7386 15.75 11.9645 15.1861 11.9645 14.525C11.9645 13.825 11.7386 13.2514 11.2867 12.8042C10.8348 12.3375 10.2062 12.1042 9.40068 12.1042H5.30446V16.9167H9.40068Z" fill="#FF8A34"/>
<path d="M21.486 20.7083C21.2896 20.7083 21.1128 20.6403 20.9556 20.5042C20.8181 20.3486 20.7493 20.1736 20.7493 19.9792V1.02083C20.7493 0.806944 20.8181 0.631945 20.9556 0.495834C21.1128 0.359722 21.2896 0.291667 21.486 0.291667H35.2482C35.4643 0.291667 35.6411 0.359722 35.7786 0.495834C35.9161 0.631945 35.9849 0.806944 35.9849 1.02083V3.7625C35.9849 3.95694 35.9161 4.13194 35.7786 4.2875C35.6411 4.42361 35.4643 4.49167 35.2482 4.49167H25.8475V8.42917H34.5998C34.816 8.42917 34.9928 8.50694 35.1303 8.6625C35.2678 8.79861 35.3366 8.97361 35.3366 9.1875V11.725C35.3366 11.9194 35.2678 12.0944 35.1303 12.25C34.9928 12.3861 34.816 12.4542 34.5998 12.4542H25.8475V16.5083H35.4839C35.7 16.5083 35.8768 16.5764 36.0144 16.7125C36.1519 16.8486 36.2207 17.0236 36.2207 17.2375V19.9792C36.2207 20.1736 36.1519 20.3486 36.0144 20.5042C35.8768 20.6403 35.7 20.7083 35.4839 20.7083H21.486Z" fill="#FF8A34"/>
<path d="M44.8455 20.7083C44.649 20.7083 44.4722 20.6403 44.315 20.5042C44.1775 20.3486 44.1087 20.1736 44.1087 19.9792V4.87083H38.8632C38.6668 4.87083 38.4899 4.80278 38.3328 4.66667C38.1952 4.51111 38.1265 4.33611 38.1265 4.14167V1.02083C38.1265 0.806944 38.1952 0.631945 38.3328 0.495834C38.4899 0.359722 38.6668 0.291667 38.8632 0.291667H54.7177C54.9338 0.291667 55.1106 0.359722 55.2481 0.495834C55.3856 0.631945 55.4544 0.806944 55.4544 1.02083V4.14167C55.4544 4.35556 55.3856 4.53056 55.2481 4.66667C55.1106 4.80278 54.9338 4.87083 54.7177 4.87083H49.4721V19.9792C49.4721 20.1736 49.4034 20.3486 49.2659 20.5042C49.1283 20.6403 48.9515 20.7083 48.7354 20.7083H44.8455Z" fill="#FF8A34"/>
<path d="M65.1431 20.7083C64.927 20.7083 64.7502 20.6403 64.6126 20.5042C64.4751 20.3681 64.4063 20.1931 64.4063 19.9792V1.02083C64.4063 0.806944 64.4751 0.631945 64.6126 0.495834C64.7698 0.359722 64.9466 0.291667 65.1431 0.291667H81.4985C81.7146 0.291667 81.8914 0.359722 82.0289 0.495834C82.1665 0.631945 82.2352 0.806944 82.2352 1.02083V19.9792C82.2352 20.1931 82.1665 20.3681 82.0289 20.5042C81.8914 20.6403 81.7146 20.7083 81.4985 20.7083H77.697C77.4809 20.7083 77.304 20.6403 77.1665 20.5042C77.029 20.3681 76.9602 20.1931 76.9602 19.9792V4.95833H69.7108V19.9792C69.7108 20.1931 69.6322 20.3681 69.475 20.5042C69.3375 20.6403 69.1607 20.7083 68.9446 20.7083H65.1431Z" fill="#FF8A34"/>
<path d="M100.185 20.7083C99.989 20.7083 99.8121 20.6403 99.655 20.5042C99.5175 20.3486 99.4487 20.1736 99.4487 19.9792V4.95833H93.9674V7.6125C93.9674 10.8986 93.7513 13.4653 93.3191 15.3125C92.8869 17.1403 92.0912 18.4917 90.9321 19.3667C89.7926 20.2222 88.1325 20.6694 85.9518 20.7083C85.7357 20.7083 85.5491 20.6403 85.3919 20.5042C85.2347 20.3486 85.1561 20.1639 85.1561 19.95V16.8875C85.1561 16.4792 85.4017 16.2264 85.8929 16.1292C86.9537 15.9542 87.7101 15.0986 88.162 13.5625C88.6138 12.0069 88.8398 9.8 88.8398 6.94167V1.02083C88.8398 0.806944 88.9085 0.631945 89.0461 0.495834C89.2032 0.359722 89.3899 0.291667 89.606 0.291667H103.987C104.203 0.291667 104.38 0.359722 104.517 0.495834C104.675 0.631945 104.753 0.806944 104.753 1.02083V19.9792C104.753 20.1931 104.675 20.3681 104.517 20.5042C104.38 20.6403 104.203 20.7083 103.987 20.7083H100.185Z" fill="#FF8A34"/>
<path d="M126.846 21C124.096 21 121.944 20.3389 120.392 19.0167C118.86 17.675 117.995 15.8181 117.799 13.4458C117.779 13.2708 117.77 13.0278 117.77 12.7167H114.145V19.9792C114.145 20.1931 114.066 20.3681 113.909 20.5042C113.772 20.6403 113.595 20.7083 113.379 20.7083H109.577C109.361 20.7083 109.184 20.6403 109.047 20.5042C108.909 20.3681 108.84 20.1931 108.84 19.9792V1.02083C108.84 0.806944 108.909 0.631945 109.047 0.495834C109.204 0.359722 109.381 0.291667 109.577 0.291667H113.379C113.595 0.291667 113.772 0.359722 113.909 0.495834C114.066 0.631945 114.145 0.806944 114.145 1.02083V8.05H117.77C117.77 7.875 117.789 7.65139 117.829 7.37917C118.064 5.12361 118.948 3.33472 120.481 2.0125C122.033 0.670834 124.155 0 126.846 0C129.675 0 131.866 0.729166 133.418 2.1875C134.97 3.62639 135.795 5.57083 135.893 8.02083C135.932 9.14861 135.952 9.99444 135.952 10.5583C135.952 11.1028 135.932 11.9389 135.893 13.0667C135.795 15.5556 134.97 17.5 133.418 18.9C131.866 20.3 129.675 21 126.846 21ZM126.846 16.8C127.927 16.8 128.781 16.4889 129.41 15.8667C130.039 15.225 130.373 14.2528 130.412 12.95C130.451 11.8222 130.471 11.0056 130.471 10.5C130.471 9.95556 130.451 9.13889 130.412 8.05C130.373 6.72778 130.039 5.75556 129.41 5.13333C128.781 4.51111 127.927 4.2 126.846 4.2C125.766 4.2 124.901 4.51111 124.253 5.13333C123.624 5.75556 123.29 6.72778 123.251 8.05C123.231 8.59444 123.221 9.41111 123.221 10.5C123.221 11.5694 123.231 12.3861 123.251 12.95C123.29 14.2528 123.624 15.225 124.253 15.8667C124.881 16.4889 125.746 16.8 126.846 16.8Z" fill="#FF8A34"/>
<path d="M147.861 21C145.051 21 142.851 20.3292 141.26 18.9875C139.688 17.6264 138.853 15.6625 138.755 13.0958C138.735 12.5708 138.725 11.7153 138.725 10.5292C138.725 9.32361 138.735 8.44861 138.755 7.90417C138.853 5.37639 139.708 3.43194 141.319 2.07083C142.93 0.690278 145.11 0 147.861 0C149.59 0 151.142 0.291667 152.517 0.875001C153.892 1.43889 154.973 2.25556 155.759 3.325C156.564 4.375 156.977 5.60972 156.996 7.02917V7.0875C156.996 7.24306 156.928 7.37917 156.79 7.49583C156.672 7.59306 156.535 7.64167 156.377 7.64167H152.399C152.144 7.64167 151.947 7.59306 151.81 7.49583C151.672 7.37917 151.554 7.175 151.456 6.88333C151.181 5.89167 150.749 5.20139 150.159 4.8125C149.57 4.40417 148.794 4.2 147.831 4.2C145.513 4.2 144.315 5.48333 144.236 8.05C144.216 8.575 144.207 9.38194 144.207 10.4708C144.207 11.5597 144.216 12.3861 144.236 12.95C144.315 15.5167 145.513 16.8 147.831 16.8C148.794 16.8 149.58 16.5958 150.189 16.1875C150.798 15.7597 151.22 15.0694 151.456 14.1167C151.535 13.825 151.643 13.6306 151.78 13.5333C151.918 13.4167 152.124 13.3583 152.399 13.3583H156.377C156.554 13.3583 156.702 13.4167 156.819 13.5333C156.957 13.65 157.016 13.7958 156.996 13.9708C156.977 15.3903 156.564 16.6347 155.759 17.7042C154.973 18.7542 153.892 19.5708 152.517 20.1542C151.142 20.7181 149.59 21 147.861 21Z" fill="#FF8A34"/>
</svg>
