<svg width="52" height="56" viewBox="0 0 52 56" fill="none" xmlns="http://www.w3.org/2000/svg">
<g clip-path="url(#clip0)">
<path fill-rule="evenodd" clip-rule="evenodd" d="M52 26.8432V35.1807C52 36.1385 50.4213 36.9243 48.4725 36.9243H3.50285C1.57875 36.9243 0 36.1385 0 35.1807V26.8432C0 25.8855 1.57875 25.0996 3.50285 25.0996H48.4725C50.4213 25.0996 52 25.8855 52 26.8432Z" fill="#FF8A34" fill-opacity="0.2"/>
<path fill-rule="evenodd" clip-rule="evenodd" d="M21.7747 5.35421H30.2235C31.1941 5.35421 31.9904 6.91215 31.9904 8.83523L31.9904 53.2123C31.9904 55.111 31.1941 56.6689 30.2235 56.6689H21.7747C20.8042 56.6689 20.0078 55.111 20.0078 53.2123L20.0078 8.83523C20.0078 6.91215 20.8042 5.35421 21.7747 5.35421Z" fill="#FF8A34" fill-opacity="0.2"/>
<path fill-rule="evenodd" clip-rule="evenodd" d="M34.1847 18.0706C34.1847 18.0706 35.0671 16.329 35.1279 15.218C35.1888 14.1145 32.5492 17.1473 32.5492 17.1473C32.5492 17.1473 33.2186 15.0904 33.0741 14.8051C32.9296 14.5199 30.1379 16.4867 28.8143 18.1607C28.1677 18.9715 27.0724 20.9083 25.9922 22.785C26.9278 24.9695 28.51 26.5535 31.2333 27.4918C31.7581 27.672 32.3058 27.8296 32.8611 27.9723C32.9068 26.1181 34.3901 24.6467 34.8769 24.4515C35.3942 24.2413 36.4743 24.5791 37.1894 23.7834C37.9044 22.9952 37.912 22.5523 37.8512 22.4847C37.7903 22.4172 36.4896 21.3512 36.2994 20.5029C36.1016 19.6621 35.9266 18.7538 34.1847 18.0706Z" fill="#74B3AF"/>
<path fill-rule="evenodd" clip-rule="evenodd" d="M8.70241 20.7955C8.58071 20.6228 7.26473 18.6185 7.31798 17.6501C7.37883 16.6817 8.82412 15.8109 10.0108 15.961C11.1974 16.1036 12.4069 16.449 13.6544 15.4355C14.9096 14.4221 17.4274 13.3861 20.2723 14.7599C23.1173 16.1412 23.6878 16.509 24.3115 19.9021C24.9353 23.3028 26.3349 26.6584 30.9599 28.2649C32.3976 28.7603 37.4333 29.6987 40.1945 30.2167C39.3578 30.9373 38.5286 31.8982 37.9733 32.5138C37.3268 33.2269 36.6269 34.0302 35.8891 34.6457C35.4251 35.0286 34.7557 35.2538 34.1928 35.4265C33.2876 35.7042 32.4052 35.9369 31.538 36.3048C29.2103 37.2732 27.3314 38.4818 26.0002 39.9231C24.6691 38.4818 22.7978 37.2732 20.4625 36.3048C19.7931 36.027 19.1237 35.8243 18.4467 35.6216C17.7241 31.3652 18.4315 26.5233 17.1003 24.9393C15.1378 22.5896 9.86625 24.2261 8.70241 20.7955ZM18.9031 16.8543C18.9031 16.8543 18.1044 18.3557 19.5725 20.4802C20.1734 21.3435 20.7059 21.8915 21.1547 22.2218C21.7861 22.6947 22.2273 22.7323 22.4175 22.6722C23.4976 22.3194 23.1401 18.9262 22.8967 18.0855C23.6878 18.8287 23.9616 23.1301 22.6609 23.558C22.4022 23.6406 21.8469 23.6106 21.1167 23.0626C20.6375 22.7097 20.0822 22.1392 19.466 21.2459C18.9716 20.5477 17.8306 18.2206 18.9031 16.8543Z" fill="#74B3AF"/>
<path fill-rule="evenodd" clip-rule="evenodd" d="M26.0005 51.0855C22.5318 44.059 25.7799 39.69 31.8957 37.1451C33.7289 36.3869 35.3872 36.2518 36.4826 35.3435C38.2093 33.9171 40.4381 30.7342 41.8302 30.2162C43.8384 29.473 43.2603 31.2447 43.2603 31.2447C43.2603 31.2447 40.9858 35.2534 40.6739 35.6738C40.3545 36.0866 38.894 37.5054 38.4375 37.6556C38.9092 37.6556 40.035 36.7923 41.0163 35.8164C41.3129 35.5236 41.5183 35.0582 41.7769 34.6078C42.9027 32.6635 43.8916 31.575 43.9297 30.5916C43.9677 29.6157 42.9636 29.6382 42.9636 29.6382C42.9636 29.6382 43.5265 27.9416 43.245 24.8638C43.0701 22.927 44.3024 22.0412 44.9109 22.3415C45.1848 22.4766 45.1924 23.9254 45.238 24.4359C45.4434 26.6204 46.166 30.2237 45.6868 31.7476C45.0707 33.6844 43.8384 38.2937 41.5335 40.4031C35.1134 46.2285 29.743 42.7828 26.0005 51.0855Z" fill="#74B3AF"/>
<path fill-rule="evenodd" clip-rule="evenodd" d="M26.0007 51.0855C29.4693 44.059 26.2212 39.69 20.0978 37.1451C18.2645 36.3869 16.6063 36.2518 15.5109 35.3435C13.7841 33.9171 11.5554 30.7342 10.1633 30.2162C8.15512 29.473 8.73323 31.2447 8.73323 31.2447C8.73323 31.2447 11.0077 35.2534 11.3271 35.6738C11.6466 36.0866 13.1071 37.5054 13.5635 37.6556C13.0919 37.6556 11.9661 36.7923 10.9848 35.8164C10.6958 35.5236 10.4904 35.0582 10.2318 34.6078C9.11357 32.6635 8.11708 31.575 8.07905 30.5916C8.04102 29.6157 9.04511 29.6382 9.04511 29.6382C9.04511 29.6382 8.48221 27.9416 8.76366 24.8638C8.93862 22.927 7.70632 22.0412 7.09777 22.3415C6.82393 22.4766 6.81632 23.9254 6.77068 24.4359C6.5653 26.6204 5.84265 30.2237 6.32949 31.7476C6.94564 33.6844 8.17794 38.2937 10.4904 40.4031C16.8877 46.2285 22.2657 42.7828 26.0007 51.0855Z" fill="#74B3AF"/>
</g>
<defs>
<clipPath id="clip0">
<rect width="52" height="56" fill="white"/>
</clipPath>
</defs>
</svg>
