<svg width="30" height="28" viewBox="0 0 30 28" fill="none" xmlns="http://www.w3.org/2000/svg">
<path d="M27.0968 0.451904H2.90323C1.30645 0.451904 0 1.75836 0 3.35513C0 4.9519 1.30645 6.25836 2.90323 6.25836H27.0968C28.6935 6.25836 30 4.9519 30 3.35513C30 1.75836 28.6935 0.451904 27.0968 0.451904Z" fill="#FF8A34"/>
<path d="M27.0968 11.0969H2.90323C1.30645 11.0969 0 12.4034 0 14.0002C0 15.5969 1.30645 16.9034 2.90323 16.9034H27.0968C28.6935 16.9034 30 15.5969 30 14.0002C30 12.4034 28.6935 11.0969 27.0968 11.0969Z" fill="#FF8A34"/>
<path d="M27.0968 21.7424H2.90323C1.30645 21.7424 0 23.0489 0 24.6457C0 26.2424 1.30645 27.5489 2.90323 27.5489H27.0968C28.6935 27.5489 30 26.2424 30 24.6457C30 23.0489 28.6935 21.7424 27.0968 21.7424Z" fill="#FF8A34"/>
</svg>
