<svg width="295" height="40" viewBox="0 0 295 40" fill="none" xmlns="http://www.w3.org/2000/svg">
<rect width="295" height="40" rx="16" fill="#FF8A34"/>
<path d="M95.656 25.182C94.172 25.182 92.9447 24.692 91.974 23.712C91.0127 22.732 90.532 21.528 90.532 20.1C90.532 18.672 91.0127 17.468 91.974 16.488C92.9447 15.508 94.172 15.018 95.656 15.018C96.552 15.018 97.3733 15.2327 98.12 15.662C98.876 16.0913 99.464 16.67 99.884 17.398L98.75 18.056C98.47 17.5147 98.05 17.0853 97.49 16.768C96.9393 16.4413 96.328 16.278 95.656 16.278C94.5267 16.278 93.6027 16.642 92.884 17.37C92.1747 18.098 91.82 19.008 91.82 20.1C91.82 21.1827 92.1747 22.088 92.884 22.816C93.6027 23.544 94.5267 23.908 95.656 23.908C96.328 23.908 96.9393 23.7493 97.49 23.432C98.05 23.1053 98.47 22.676 98.75 22.144L99.884 22.788C99.4733 23.516 98.89 24.0993 98.134 24.538C97.378 24.9673 96.552 25.182 95.656 25.182ZM106.482 18V19.176H104.102V25H102.884V19.176H100.49V18H106.482ZM113.072 18H114.29V25H113.072V23.796C112.465 24.72 111.583 25.182 110.426 25.182C109.446 25.182 108.61 24.8273 107.92 24.118C107.229 23.3993 106.884 22.5267 106.884 21.5C106.884 20.4733 107.229 19.6053 107.92 18.896C108.61 18.1773 109.446 17.818 110.426 17.818C111.583 17.818 112.465 18.28 113.072 19.204V18ZM110.58 24.006C111.289 24.006 111.882 23.768 112.358 23.292C112.834 22.8067 113.072 22.2093 113.072 21.5C113.072 20.7907 112.834 20.198 112.358 19.722C111.882 19.2367 111.289 18.994 110.58 18.994C109.88 18.994 109.292 19.2367 108.816 19.722C108.34 20.198 108.102 20.7907 108.102 21.5C108.102 22.2093 108.34 22.8067 108.816 23.292C109.292 23.768 109.88 24.006 110.58 24.006ZM121.343 18V19.176H118.963V25H117.745V19.176H115.351V18H121.343ZM125.364 20.52C126.064 20.52 126.643 20.73 127.1 21.15C127.567 21.5607 127.8 22.0973 127.8 22.76C127.8 23.4227 127.567 23.964 127.1 24.384C126.643 24.7947 126.064 25 125.364 25H122.41V18H123.628V20.52H125.364ZM125.364 23.866C125.71 23.866 125.999 23.768 126.232 23.572C126.475 23.3667 126.596 23.096 126.596 22.76C126.596 22.424 126.475 22.1533 126.232 21.948C125.999 21.7427 125.71 21.64 125.364 21.64H123.628V23.866H125.364ZM138.672 18V25H137.454V19.162H133.828V25H132.61V18H138.672ZM146.322 18H147.54V25H146.322V23.796C145.715 24.72 144.833 25.182 143.676 25.182C142.696 25.182 141.86 24.8273 141.17 24.118C140.479 23.3993 140.134 22.5267 140.134 21.5C140.134 20.4733 140.479 19.6053 141.17 18.896C141.86 18.1773 142.696 17.818 143.676 17.818C144.833 17.818 145.715 18.28 146.322 19.204V18ZM143.83 24.006C144.539 24.006 145.132 23.768 145.608 23.292C146.084 22.8067 146.322 22.2093 146.322 21.5C146.322 20.7907 146.084 20.198 145.608 19.722C145.132 19.2367 144.539 18.994 143.83 18.994C143.13 18.994 142.542 19.2367 142.066 19.722C141.59 20.198 141.352 20.7907 141.352 21.5C141.352 22.2093 141.59 22.8067 142.066 23.292C142.542 23.768 143.13 24.006 143.83 24.006ZM153.249 17.818C154.229 17.818 155.064 18.1773 155.755 18.896C156.446 19.6053 156.791 20.4733 156.791 21.5C156.791 22.5267 156.446 23.3993 155.755 24.118C155.064 24.8273 154.229 25.182 153.249 25.182C152.092 25.182 151.21 24.72 150.603 23.796V27.8H149.385V18H150.603V19.204C151.21 18.28 152.092 17.818 153.249 17.818ZM153.095 24.006C153.795 24.006 154.383 23.768 154.859 23.292C155.335 22.8067 155.573 22.2093 155.573 21.5C155.573 20.7907 155.335 20.198 154.859 19.722C154.383 19.2367 153.795 18.994 153.095 18.994C152.386 18.994 151.793 19.2367 151.317 19.722C150.841 20.198 150.603 20.7907 150.603 21.5C150.603 22.2093 150.841 22.8067 151.317 23.292C151.793 23.768 152.386 24.006 153.095 24.006ZM163.179 18V19.176H160.799V25H159.581V19.176H157.187V18H163.179ZM169.09 18H170.308V25H169.09V22.074H165.464V25H164.246V18H165.464V20.912H169.09V18ZM173.016 22.06C173.138 22.6853 173.422 23.1707 173.87 23.516C174.328 23.8613 174.888 24.034 175.55 24.034C176.474 24.034 177.146 23.6933 177.566 23.012L178.602 23.6C177.921 24.6547 176.894 25.182 175.522 25.182C174.412 25.182 173.506 24.8367 172.806 24.146C172.116 23.446 171.77 22.564 171.77 21.5C171.77 20.4453 172.111 19.568 172.792 18.868C173.474 18.168 174.356 17.818 175.438 17.818C176.465 17.818 177.3 18.182 177.944 18.91C178.598 19.6287 178.924 20.4967 178.924 21.514C178.924 21.6913 178.91 21.8733 178.882 22.06H173.016ZM175.438 18.966C174.785 18.966 174.244 19.1527 173.814 19.526C173.385 19.89 173.119 20.38 173.016 20.996H177.692C177.59 20.3333 177.328 19.8293 176.908 19.484C176.488 19.1387 175.998 18.966 175.438 18.966ZM184.188 17.818C185.168 17.818 186.004 18.1773 186.694 18.896C187.385 19.6053 187.73 20.4733 187.73 21.5C187.73 22.5267 187.385 23.3993 186.694 24.118C186.004 24.8273 185.168 25.182 184.188 25.182C183.031 25.182 182.149 24.72 181.542 23.796V27.8H180.324V18H181.542V19.204C182.149 18.28 183.031 17.818 184.188 17.818ZM184.034 24.006C184.734 24.006 185.322 23.768 185.798 23.292C186.274 22.8067 186.512 22.2093 186.512 21.5C186.512 20.7907 186.274 20.198 185.798 19.722C185.322 19.2367 184.734 18.994 184.034 18.994C183.325 18.994 182.732 19.2367 182.256 19.722C181.78 20.198 181.542 20.7907 181.542 21.5C181.542 22.2093 181.78 22.8067 182.256 23.292C182.732 23.768 183.325 24.006 184.034 24.006ZM195.092 24.118C194.373 24.8273 193.5 25.182 192.474 25.182C191.447 25.182 190.574 24.8273 189.856 24.118C189.146 23.4087 188.792 22.536 188.792 21.5C188.792 20.464 189.146 19.5913 189.856 18.882C190.574 18.1727 191.447 17.818 192.474 17.818C193.5 17.818 194.373 18.1727 195.092 18.882C195.81 19.5913 196.17 20.464 196.17 21.5C196.17 22.536 195.81 23.4087 195.092 24.118ZM192.474 23.992C193.174 23.992 193.762 23.754 194.238 23.278C194.714 22.802 194.952 22.2093 194.952 21.5C194.952 20.7907 194.714 20.198 194.238 19.722C193.762 19.246 193.174 19.008 192.474 19.008C191.783 19.008 191.2 19.246 190.724 19.722C190.248 20.198 190.01 20.7907 190.01 21.5C190.01 22.2093 190.248 22.802 190.724 23.278C191.2 23.754 191.783 23.992 192.474 23.992ZM204.606 18V25H203.416V19.918L201.19 23.502H201.036L198.81 19.918V25H197.606V18H198.908L201.106 21.542L203.304 18H204.606Z" fill="white"/>
</svg>
