<svg width="459" height="516" viewBox="0 0 459 516" fill="none" xmlns="http://www.w3.org/2000/svg">
<path d="M363.836 213.24C363.836 213.258 364.065 207.585 364.065 207.598C363.213 220.671 301.575 208.692 301.575 208.692L306.509 192.899L342.146 181.736L349.419 128.487L352.019 121.187C352.023 121.191 366.176 176.972 363.836 213.24Z" fill="#D1D3D4"/>
<path d="M429.938 159.413C402.543 159.413 395.964 136.67 404.783 102.794C405.671 99.3794 406.719 95.848 407.916 92.218C412.742 77.5636 402.744 55.0398 395.354 52.7766C399.316 45.9827 391.088 33.5421 391.088 33.5421C391.088 33.5421 454.971 -7.98767 446.73 83.878C446.358 88.0368 446.304 92.0119 446.483 95.8122C448.572 138.982 481.488 159.413 429.938 159.413Z" fill="#6B2310"/>
<path d="M429.938 159.414C402.543 159.414 395.964 136.67 404.783 102.795C419.94 109.006 434.505 104.005 446.488 95.8174C448.572 138.983 481.488 159.414 429.938 159.414Z" fill="#501A0C"/>
<path d="M424.563 33.6545C426.185 38.0553 425.074 42.5099 422.089 43.6123C419.104 44.7103 415.371 42.0348 413.749 37.6385C412.127 33.2377 413.238 28.7786 416.223 27.6807C419.212 26.5782 422.945 29.2537 424.563 33.6545Z" fill="#BE1E2D"/>
<path d="M351.465 505.823C351.465 505.823 364.488 499.306 364.748 486.606C368.36 486.606 378.291 486.606 378.291 486.606C378.291 486.606 377.838 493.324 378.076 494.767C378.309 496.174 379.676 501.538 379.676 501.538C379.676 501.538 356.35 522.157 351.465 505.823Z" fill="#FCAE88"/>
<path d="M352.612 505.2L355.382 509.076C355.382 509.076 369.113 502.116 380.316 499.66C383.525 498.957 380.316 515.171 380.316 515.171H372.003V511.294L360.921 515.171H339.867C339.867 515.171 338.007 503.532 352.612 505.2Z" fill="#414042"/>
<path d="M409.593 499.589H425.798V507.718H408.925L409.593 499.589Z" fill="#B2151B"/>
<path d="M409.592 506.419V486.799H422.337C422.337 486.799 427.558 502.793 425.792 506.029C423.856 509.587 409.592 506.419 409.592 506.419Z" fill="#FCAE88"/>
<path d="M425.797 499.589C425.797 499.589 425.797 502.547 425.797 506.029C422.862 504.299 420.07 503.828 417.695 503.927C415.319 503.833 412.527 504.299 409.592 506.029C409.592 502.547 409.592 499.589 409.592 499.589C409.592 499.589 403.564 513.096 409.592 515.171H417.695H425.797C431.82 513.096 425.797 499.589 425.797 499.589Z" fill="#414042"/>
<path d="M428.996 278.37L427.812 339.699L424.931 488.686H406.418L390.513 333.994L387.448 304.152L386.377 333.358L380.694 488.686H360.953L348.056 327.496L344.439 282.282L344.175 278.37H428.996Z" fill="#4A726F"/>
<path d="M428.996 278.37L427.812 339.699L390.513 333.994L387.448 304.152L386.377 333.358L380.676 332.484L379.686 325.717L375.384 331.677L348.056 327.496L344.439 282.282L344.175 278.37H428.996Z" fill="#3C5B59"/>
<path d="M338.188 324.981L375.344 324.811L382.291 311.868L385.32 324.757L407.871 324.618L420.338 324.537L438.605 324.439C449.262 261.273 430.561 230.525 421.952 200.132C418.904 189.372 417.121 178.657 418.349 166.561C419.397 156.263 422.628 144.96 429.126 131.78C429.651 130.718 429.754 129.607 429.512 128.469C427.424 118.488 399.065 106.451 399.065 106.451C399.065 106.451 357.423 110.96 352.139 120.33C350.66 122.961 342.89 151.087 340.483 172.365C340.21 174.74 340.008 177.034 339.891 179.199C339.676 183.129 340.254 188.234 341.039 192.522C341.648 195.883 342.383 198.747 342.957 200.163C351.915 222.194 338.188 324.981 338.188 324.981Z" fill="#F1F2F2"/>
<path d="M399.074 106.456L392.316 119.004L379.624 142.581L378.369 120.281L377.684 108.181L399.074 106.456Z" fill="#FCAE88"/>
<path d="M376.985 90.999L377.532 104.242L377.711 108.625L399.075 106.46L395.785 94.4005L395.373 92.8902L376.985 90.999Z" fill="#FCAE88"/>
<path opacity="0.6" d="M376.985 90.999L377.895 111.905L397.264 99.8141L395.373 92.8902L376.985 90.999Z" fill="#F58D86"/>
<path d="M399.964 80.9672C418.486 73.2949 427.282 52.06 419.61 33.5377C411.937 15.0155 390.702 6.21987 372.18 13.8922C353.658 21.5645 344.862 42.7994 352.535 61.3217C360.207 79.8439 381.442 88.6395 399.964 80.9672Z" fill="#8E2E15"/>
<path d="M418.348 64.2582C418.334 64.8991 418.254 65.5578 418.092 66.2256C417.483 68.7307 416 70.6488 414.265 71.4017C413.647 71.6751 413.006 71.7916 412.374 71.7423C409.524 88.9019 400.323 101.369 383.253 101.253C377.97 101.217 373.47 100.011 369.697 97.8693C358.426 91.4742 353.617 76.663 353.729 59.4631C353.752 56.5591 353.976 53.7268 354.406 50.9931C357.337 32.1126 369.428 17.9781 383.805 18.0767C399.853 18.1798 412.809 35.9398 413.315 58.1007C413.844 58.0111 414.382 58.0245 414.915 58.1769C415.09 58.2262 415.269 58.2889 415.439 58.3741C417.304 59.1987 418.429 61.5604 418.348 64.2582Z" fill="#FCAE88"/>
<path d="M372.265 53.2251C367.304 50.1912 364.418 50.2315 359.538 53.3954C359.516 51.9793 359.507 51.2712 359.493 49.855C364.373 46.6866 367.255 46.6508 372.22 49.6847C372.234 51.1009 372.247 51.809 372.265 53.2251Z" fill="#8E2E15"/>
<path d="M394.848 52.9246C389.887 49.8862 386.996 49.9265 382.121 53.0949C382.103 51.6832 382.089 50.9707 382.071 49.5546C386.952 46.3906 389.842 46.3503 394.803 49.3843C394.821 50.8004 394.826 51.504 394.848 52.9246Z" fill="#8E2E15"/>
<path opacity="0.6" d="M412.37 71.7373C409.529 88.8924 400.328 101.364 383.258 101.248C377.975 101.216 373.471 100.011 369.702 97.8688C369.034 97.1293 367.457 96.6991 366.767 95.9059C367.219 96.1882 398.832 115.06 412.37 71.7373Z" fill="#F58D86"/>
<path d="M365.534 24.8257C365.534 24.8257 393.113 54.3496 413.307 57.63C414.364 53.5877 406.307 -14.2662 365.534 24.8257Z" fill="#8E2E15"/>
<path d="M367.713 27.0757C367.713 27.0757 359.785 53.4446 352.78 61.9191C352.865 59.1003 354.376 10.1536 367.713 27.0757Z" fill="#8E2E15"/>
<path d="M367.819 61.2608C367.837 63.2596 366.896 64.8908 365.713 64.9043C364.53 64.9132 363.557 63.3044 363.539 61.3056C363.521 59.3069 364.462 57.6756 365.641 57.6622C366.824 57.6487 367.797 59.2621 367.819 61.2608Z" fill="#501A0C"/>
<path d="M391.271 61.0358C391.289 63.0345 390.347 64.6658 389.169 64.6792C387.99 64.6882 387.013 63.0793 386.995 61.0761C386.977 59.0729 387.919 57.4461 389.102 57.4327C390.28 57.4237 391.253 59.037 391.271 61.0358Z" fill="#501A0C"/>
<path d="M378.477 58.8936C378.477 58.8936 380.243 67.6011 381.493 73.7765C367.726 77.8681 378.253 59.2924 378.468 58.9025C378.477 58.8936 378.477 58.8936 378.477 58.8936Z" fill="#FCAE88"/>
<path opacity="0.6" d="M381.493 73.7773C367.726 77.8689 378.253 59.2932 378.468 58.9033C378.316 59.2663 371.639 75.2607 381.493 73.7773Z" fill="#F58D86"/>
<path d="M369.858 81.6731C369.858 81.6731 376.971 97.2193 389.487 80.8037C379.57 83.4657 369.858 81.6731 369.858 81.6731Z" fill="#F1F2F2"/>
<path d="M407.366 152.131H382.332V163.021H407.366V152.131Z" fill="white"/>
<path d="M392.316 119.004L379.62 142.581L378.365 120.281C381.26 122.508 385.822 123.683 392.316 119.004Z" fill="#4A726F"/>
<path d="M372.579 185.078L364.513 181.439C357.378 175.56 350.911 152.274 350.643 151.288L351.62 150.817C351.687 151.055 358.176 174.457 364.956 180.135L372.853 183.68L372.579 185.078Z" fill="#5E5F60"/>
<path d="M374.484 186.279C374.368 186.288 374.251 186.266 374.139 186.221L371.567 185.11C371.311 184.998 371.096 184.76 370.966 184.433C370.836 184.11 370.796 183.738 370.863 183.384C370.993 182.681 371.549 182.264 372.055 182.484L374.623 183.595C374.878 183.707 375.089 183.945 375.224 184.272C375.358 184.594 375.394 184.971 375.327 185.316C375.228 185.863 374.887 186.248 374.484 186.279Z" fill="#BCBEC0"/>
<path d="M359.387 186.056L358.912 184.711L366.199 180.046C372.074 173.431 375.05 149.33 375.081 149.088L376.117 149.406C375.991 150.423 373.024 174.404 366.831 181.269L366.728 181.354L359.387 186.056Z" fill="#5E5F60"/>
<path d="M357.684 187.521C357.277 187.552 356.887 187.221 356.707 186.692C356.595 186.356 356.573 185.984 356.658 185.643C356.743 185.298 356.918 185.029 357.151 184.886L359.531 183.407C359.997 183.116 360.606 183.447 360.844 184.124C360.96 184.46 360.974 184.836 360.893 185.177C360.808 185.522 360.633 185.786 360.4 185.934L358.021 187.409C357.913 187.476 357.801 187.512 357.684 187.521Z" fill="#BCBEC0"/>
<path d="M375.757 149.644C375.179 149.684 374.668 149.066 374.601 148.259C374.193 143.034 372.145 138.902 368.829 136.621C364.768 133.829 359.453 134.246 355.904 137.638C353.878 139.579 351.575 143.276 352.09 149.899C352.153 150.711 351.736 151.405 351.163 151.454H351.158C350.58 151.495 350.069 150.876 350.002 150.07C349.513 143.805 351.167 138.516 354.658 135.178C358.781 131.23 364.957 130.741 369.671 133.986C373.7 136.76 376.187 141.766 376.685 148.084C376.752 148.9 376.335 149.599 375.757 149.644C375.761 149.644 375.757 149.644 375.757 149.644Z" fill="#231F20"/>
<path d="M363.151 131.852C363.16 132.61 363.187 133.067 363.191 133.098L360.874 133.246C360.87 133.215 360.847 132.776 360.838 132.032C360.794 128.702 361.121 119.255 365.701 112.806C366.772 112.407 369.546 111.722 371.312 111.296C363.666 115.948 363.124 127.954 363.151 131.852Z" fill="#231F20"/>
<path d="M408.753 173.234C408.717 173.431 408.681 173.628 408.641 173.825C408.537 174.354 408.434 174.888 408.331 175.425C408.278 175.703 408.224 175.986 408.166 176.268L405.889 175.815C405.956 175.47 406.023 175.13 406.091 174.789C406.189 174.274 406.288 173.763 406.386 173.256C406.422 173.064 406.458 172.871 406.494 172.674C413.812 133.721 409.985 116.678 405.096 109.229C406.117 109.709 407.986 110.601 408.73 111.04C412.961 120.16 415.367 138.068 408.753 173.234Z" fill="#231F20"/>
<path d="M411.796 179.36C411.186 182.385 408.246 184.343 405.221 183.734C402.196 183.124 400.238 180.184 400.847 177.159C401.457 174.139 404.401 172.18 407.422 172.785C410.442 173.395 412.401 176.335 411.796 179.36Z" fill="#8D8F90"/>
<path d="M411.225 179.244C410.683 181.955 408.043 183.707 405.332 183.165C402.621 182.623 400.869 179.983 401.415 177.272C401.958 174.56 404.597 172.808 407.304 173.35C410.015 173.897 411.772 176.537 411.225 179.244Z" fill="#BCBEC0"/>
<path d="M409.728 178.943C409.347 180.825 407.519 182.044 405.637 181.668C403.754 181.291 402.535 179.458 402.916 177.576C403.297 175.694 405.13 174.475 407.008 174.851C408.886 175.228 410.105 177.061 409.728 178.943Z" fill="#58595B"/>
<path opacity="0.32" d="M438.61 324.443L420.339 324.542L407.871 324.622C418.17 299.679 423.628 220.639 418.349 206.016C412.267 189.17 418.349 166.565 418.349 166.565C413.652 212.823 453.04 238.914 438.61 324.443Z" fill="#B5B6B6"/>
<path opacity="0.32" d="M396.837 170.706L394.847 192.952L378.503 180.633L391.087 182.421L396.837 170.706Z" fill="#B5B6B6"/>
<path opacity="0.32" d="M341.043 192.531C356.195 201.463 388.089 219.034 402.412 217.757C409.34 217.139 416.242 210.103 421.956 200.136C418.908 189.376 417.125 178.661 418.353 166.565C419.401 156.267 422.632 144.965 429.13 131.785C429.655 130.723 429.758 129.611 429.516 128.473C428.673 127.626 427.741 126.9 426.711 126.308C411.541 117.565 392.615 187.494 392.615 187.494L340.487 172.373C340.214 174.749 340.012 177.043 339.895 179.208C339.685 183.133 340.259 188.238 341.043 192.531Z" fill="#B5B6B6"/>
<path d="M323.939 182.34L320.963 188.067L321.039 181.564L323.939 182.34Z" fill="#414042"/>
<path d="M328.683 150.947L321.042 181.569C320.836 182.398 321.311 183.245 322.109 183.46C322.911 183.671 323.731 183.173 323.937 182.34L331.578 151.718C331.789 150.889 331.3 150.037 330.503 149.827C329.705 149.612 328.889 150.118 328.683 150.947Z" fill="#808285"/>
<path d="M326.681 154.021L327.837 154.33L328.684 150.942L327.523 150.633L326.681 154.021Z" fill="#808285"/>
<path d="M324.507 160.25L325.668 160.559L328.105 150.785L326.945 150.48L324.507 160.25Z" fill="#808285"/>
<path d="M330.504 149.826L322.11 183.46C322.913 183.67 323.733 183.173 323.939 182.339L331.58 151.717C331.786 150.888 331.302 150.041 330.504 149.826Z" fill="#606264"/>
<path d="M336.151 170.841C336.151 170.841 331.929 160.73 329.666 159.377C326.744 157.625 316.388 162.456 316.388 162.456L322.361 168.927L319.933 178.092L333.301 182.425L336.151 170.841Z" fill="#FCAE88"/>
<path d="M426.717 123.548C411.543 114.804 392.617 184.733 392.617 184.733L336.724 168.515L332.731 184.733C332.731 184.733 383.269 216.699 402.414 214.996C425.977 212.895 449.196 136.503 426.717 123.548Z" fill="#F1F2F2"/>
<path d="M331.627 224.654L276.823 225.133L276.044 219.07L264.428 128.683L320.253 127.401L321.961 141.975L331.627 224.654Z" fill="#4D5865"/>
<path d="M331.627 224.654L276.823 225.134L276.043 219.07C305.092 197.819 317.214 167.65 321.96 141.976L331.627 224.654Z" fill="#3A424C"/>
<path d="M265.163 188.448C266.346 189.891 272.387 190.621 272.387 190.621L271.621 184.558C271.621 184.558 289.211 178.4 287.978 173.641C286.853 169.303 274.261 164.53 270.111 166.224C268.314 166.955 264.639 168.936 263.716 170.643C261.596 174.573 262.331 184.993 265.163 188.448Z" fill="#FCAE88"/>
<path d="M107.989 126.246L148.712 135.737L199.107 96.0225L212.031 114.361C212.031 114.361 181.127 161.492 161.744 170.442C150.33 175.712 111.79 176.308 111.79 176.308L107.989 126.246Z" fill="#E6E7E8"/>
<path d="M88.6149 501.471L89.6545 476.486H76.2057L75.166 501.471H88.6149Z" fill="#0E131A"/>
<path d="M128.093 513.812H67.0287C67.0287 513.812 65.6126 508.699 66.3162 505.441C66.5851 504.173 67.1721 503.191 68.2925 502.9C68.2925 498.911 70.1792 490.728 76.0544 489.68C76.0544 489.68 76.0544 489.68 76.0499 489.684C76.0141 489.966 74.9789 498.159 87.5987 489.68C90.7357 487.569 108.523 505.607 121.591 505.41C124.647 505.365 126.386 508.448 127.282 510.89C127.869 512.486 128.093 513.812 128.093 513.812Z" fill="#866C57"/>
<path d="M76.0453 489.688C75.8705 489.93 69.1259 499.417 72.0254 506.565C70.0939 506.552 68.1579 506.117 66.3115 505.441C66.5804 504.172 67.1674 503.191 68.2878 502.9C68.2878 498.911 70.1745 490.728 76.0498 489.679C76.0498 489.679 76.0497 489.684 76.0453 489.688Z" fill="#9E8979"/>
<path d="M128.097 513.812H67.0283V515.17H128.097V513.812Z" fill="#474849"/>
<path d="M128.093 513.812H67.0284C67.0284 513.812 64.2991 503.949 68.2876 502.9C68.2876 502.9 105.591 517.814 127.277 510.89C127.869 512.486 128.093 513.812 128.093 513.812Z" fill="#655141"/>
<path d="M95.8438 497.258C95.8438 498.015 95.2343 498.625 94.4814 498.625C93.724 498.625 93.1191 498.015 93.1191 497.258C93.1191 496.509 93.7285 495.896 94.4814 495.896C95.2343 495.896 95.8438 496.509 95.8438 497.258Z" fill="#43362C"/>
<path d="M100.29 499.674C100.29 500.427 99.6758 501.041 98.9229 501.041C98.17 501.041 97.5605 500.427 97.5605 499.674C97.5605 498.921 98.1745 498.312 98.9229 498.312C99.6758 498.307 100.29 498.921 100.29 499.674Z" fill="#43362C"/>
<path d="M104.732 502.085C104.732 502.837 104.118 503.451 103.369 503.451C102.616 503.451 102.007 502.837 102.007 502.085C102.007 501.332 102.616 500.722 103.369 500.722C104.118 500.722 104.732 501.332 104.732 502.085Z" fill="#43362C"/>
<path d="M123.02 507.099C123.02 507.615 121.989 508.036 120.716 508.036C119.443 508.036 118.408 507.615 118.408 507.099C118.408 506.584 119.443 506.163 120.716 506.163C121.984 506.158 123.02 506.579 123.02 507.099Z" fill="#B6A79A"/>
<path d="M22.263 501.47L23.7015 475.706H10.2526L8.80957 501.47H22.263Z" fill="#0E131A"/>
<path d="M2.07422 513.539C2.07422 513.539 24.2306 515.17 38.9612 513.539C38.9612 513.539 38.9523 513.53 38.9433 513.521C38.9164 513.485 38.8536 513.422 38.764 513.324C37.8453 512.333 34.7666 510.402 30.8588 504.988C26.3907 498.808 23.5136 482.917 15.1019 489.222C11.8125 492.328 6.55569 495.093 6.55569 495.093L3.24836 508.703L2.07422 513.539Z" fill="#866C57"/>
<path d="M2.07324 513.539C2.07324 513.539 24.2297 515.17 38.9603 513.539C38.9603 513.539 38.9513 513.53 38.9423 513.521C38.9154 513.485 38.8527 513.422 38.763 513.324C37.1676 511.71 25.8206 501.197 6.85051 509.9C5.57329 509.631 4.36327 509.214 3.24739 508.708L2.07324 513.539Z" fill="#655141"/>
<path d="M38.9603 513.534H2.07324V515.169H38.9603V513.534Z" fill="#474849"/>
<path d="M12.5109 500.022C12.5109 500.851 12.121 501.528 11.637 501.528C11.1575 501.528 10.7676 500.851 10.7676 500.022C10.7676 499.189 11.1575 498.517 11.637 498.517C12.121 498.517 12.5109 499.189 12.5109 500.022Z" fill="#43362C"/>
<path d="M10.2535 496.728C10.2535 497.557 9.86808 498.234 9.38408 498.234C8.90456 498.234 8.51465 497.561 8.51465 496.728C8.51465 495.894 8.90456 495.222 9.38408 495.222C9.8636 495.222 10.2535 495.894 10.2535 496.728Z" fill="#43362C"/>
<path d="M2.85352 487.766H31.8935L61.5922 348.348L73.9387 290.389H24.1495L2.85352 487.766Z" fill="#414042"/>
<path d="M55.9141 290.389C58.1996 305.137 60.0729 325.842 61.5921 348.352C65.8361 411.317 67.306 488.358 67.306 488.358L95.0687 487.771L113.071 290.389H55.9141Z" fill="#414042"/>
<path d="M35.7343 127.084L30.7822 287.731H105.273L102.257 129.123L80.289 117.588H50.4155L35.7343 127.084Z" fill="#4A726F"/>
<path d="M71.7969 99.7783V121.536L49.2013 121.2L47.96 85.8633L71.7969 99.7783Z" fill="#FCAE88"/>
<path d="M68.7352 245.269L81.2431 264.306L89.2604 242.114L70.8594 136.952L70.7743 136.553L70.8236 136.396L75.6457 121.092H58.5713L67.3191 136.772L67.4043 136.916V137.324L68.7352 245.269Z" fill="#243444"/>
<path d="M70.8238 136.396L67.3193 136.772L67.4045 136.915V137.323L70.8597 136.951L70.8238 136.396Z" fill="#1B2733"/>
<path d="M48.237 105.56L67.8031 121.092L54.6858 132.063L40.502 115.813L48.237 105.56Z" fill="#4E7E7B"/>
<path d="M14.0078 384.388C26.3632 391.737 38.8845 396.353 50.7828 399.114L61.5966 348.352C62.7618 365.664 63.7208 384.038 64.4961 401.578C79.63 403.528 93.0834 402.779 102.943 401.489L113.08 290.389H24.1584L14.0078 384.388Z" fill="#313032"/>
<path d="M72.1856 107.836L67.8027 121.092L80.8976 129.123V115.853L72.1856 107.836Z" fill="#4E7E7B"/>
<path d="M0.77832 375.168C17.8751 281.349 8.81805 138.524 8.81805 138.524L44.1992 112.908C46.6237 113.988 55.0489 143.602 55.0489 143.602C55.0489 143.602 71.4645 176.42 75.1931 188.031C75.1931 188.031 85.1106 122.79 78.0613 113.943L107.984 126.241C107.984 126.241 138.225 304.72 119.838 373.6C109.781 373.6 97.112 381.012 89.3053 382.518C63.9043 387.416 34.0667 384.095 0.77832 375.168Z" fill="#F1F2F2"/>
<path opacity="0.32" d="M75.1934 188.032L96.3459 146.713L89.9329 145.091L75.1934 188.032Z" fill="#B5B6B6"/>
<path d="M77.7831 112.34L80.3376 139.731L75.1973 188.032L94.9964 143.616L87.9784 139.614L94.9964 133.246C94.9964 133.246 91.3754 120.783 88.9644 118.188C86.7505 115.804 77.7831 112.34 77.7831 112.34Z" fill="white"/>
<path d="M88.2759 187.53L95.9975 183.806C102.765 177.935 108.452 155.228 108.689 154.264L107.734 153.834C107.676 154.067 101.962 176.891 95.5359 182.556L87.9756 186.181L88.2759 187.53Z" fill="#5E5F60"/>
<path d="M86.4609 188.736C86.5774 188.74 86.6895 188.718 86.7925 188.669L89.2573 187.53C89.4993 187.418 89.7055 187.181 89.822 186.863C89.943 186.545 89.9699 186.182 89.8982 185.845C89.7548 185.169 89.2081 184.779 88.7241 185.003L86.2593 186.141C86.0128 186.253 85.8156 186.491 85.6946 186.813C85.5736 187.132 85.5467 187.495 85.6184 187.831C85.7305 188.355 86.071 188.718 86.4609 188.736Z" fill="#BCBEC0"/>
<path d="M101.075 188.149L101.5 186.835L94.3255 182.497C88.4772 176.232 84.9995 152.969 84.9636 152.731L83.9688 153.068C84.1166 154.049 87.5808 177.2 93.7474 183.698L93.8504 183.779L101.075 188.149Z" fill="#5E5F60"/>
<path d="M102.764 189.524C103.158 189.542 103.53 189.215 103.692 188.7C103.795 188.373 103.804 188.01 103.714 187.683C103.62 187.351 103.45 187.095 103.217 186.961L100.877 185.585C100.416 185.316 99.833 185.652 99.6269 186.311C99.5238 186.643 99.5149 187.001 99.6045 187.333C99.6942 187.665 99.8689 187.916 100.097 188.054L102.437 189.426C102.54 189.489 102.652 189.52 102.764 189.524Z" fill="#BCBEC0"/>
<path d="M84.3267 153.291C84.8869 153.318 85.3708 152.709 85.4112 151.92C85.6756 146.851 87.5578 142.796 90.7128 140.51C94.5758 137.705 99.734 137.978 103.256 141.178C105.264 143.002 107.585 146.533 107.249 152.96C107.209 153.748 107.63 154.412 108.186 154.443H108.191C108.746 154.47 109.23 153.856 109.271 153.072C109.589 146.995 107.859 141.913 104.395 138.762C100.303 135.043 94.3114 134.716 89.8254 137.978C85.9938 140.761 83.7037 145.673 83.381 151.808C83.3452 152.592 83.7665 153.255 84.3267 153.291C84.3222 153.291 84.3267 153.291 84.3267 153.291Z" fill="#231F20"/>
<path d="M91.1338 119.282C91.1338 119.282 93.8765 118.332 95.2254 120.958C97.9771 126.327 98.5148 137.387 98.5103 137.535L96.2695 137.454C96.274 137.288 96.6908 125.798 91.1338 119.282Z" fill="#231F20"/>
<path d="M51.684 283.685H13.1074V325.766H51.684V283.685Z" fill="white"/>
<path d="M107.989 283.68V325.761H125.498C125.866 312.482 125.619 298.227 124.943 283.68H107.989Z" fill="white"/>
<path d="M56.4159 172.437H31.7588V183.165H56.4159V172.437Z" fill="white"/>
<path d="M41.1832 188.758C26.0134 149.366 27.4161 131.906 31.2567 124.198C33.3227 120.066 35.7786 118.851 35.8861 118.815C35.8861 118.815 32.0589 119.062 31.315 119.801C31.1581 119.958 15.845 133.68 39.0859 189.569L41.1832 188.758Z" fill="#231F20"/>
<path d="M36.1455 193.118C37.23 195.905 40.3625 197.281 43.15 196.197C45.933 195.112 47.3133 191.98 46.2288 189.192C45.1443 186.409 42.0072 185.033 39.2242 186.118C36.4413 187.202 35.061 190.339 36.1455 193.118Z" fill="#8D8F90"/>
<path d="M36.6645 192.916C37.637 195.412 40.4469 196.649 42.9431 195.676C45.4393 194.704 46.6717 191.894 45.6992 189.402C44.7267 186.906 41.9213 185.669 39.4251 186.642C36.9334 187.61 35.6965 190.419 36.6645 192.916Z" fill="#BCBEC0"/>
<path d="M38.0465 192.379C38.7233 194.109 40.6727 194.974 42.407 194.297C44.1369 193.625 44.9973 191.671 44.3251 189.936C43.6529 188.202 41.6945 187.346 39.9691 188.018C38.2303 188.695 37.3743 190.649 38.0465 192.379Z" fill="#58595B"/>
<path opacity="0.32" d="M75.1926 188.032L36.9746 152.731L42.6482 141.411H36.9746L38.1219 131.041L51.6828 134.671L75.1926 188.032Z" fill="#B5B6B6"/>
<path d="M36.962 113.971C34.7302 117.91 36.5049 139 36.5049 139L47.7802 138.31L40.8429 150.006L75.1979 188.032L56.2547 141.868L44.4998 109.185C44.4998 109.189 38.3692 111.51 36.962 113.971Z" fill="white"/>
<path opacity="0.32" d="M113.07 190.994C102.032 201.319 93.4768 212.541 84.4914 214.858C65.5169 219.747 28.7015 195.659 10.6233 182.367C9.87487 166.31 6.84091 158.557 6.30762 151.508L70.4868 176.232L76.5188 178.553L81.3946 180.431L111.34 154.734C113.079 166.234 111.031 174.529 113.07 190.994Z" fill="#B5B6B6"/>
<path d="M36.3306 26.0714C36.3306 26.0714 31.2934 21.5675 36.3306 15.8984C33.588 18.3991 29.2589 24.6149 35.1162 31.8121C36.3127 30.0689 36.3306 26.0714 36.3306 26.0714Z" fill="#482B0E"/>
<path d="M83.7804 24.2916C90.9911 31.9101 89.1268 47.4518 89.1268 47.4518L73.0339 38.341L71.8193 25.412C71.8193 25.412 81.7189 22.1091 83.7804 24.2916Z" fill="#482B0E"/>
<path d="M93.6748 54.954C93.6748 54.954 93.6837 55.0033 93.7016 55.1198C94.0243 56.9303 94.2888 58.7946 94.4636 60.6902C94.84 64.7056 94.8445 68.618 94.5397 72.3555C94.4501 73.4535 94.3381 74.529 94.1946 75.5956L94.1991 75.6135C93.8899 77.926 93.4463 80.1443 92.8951 82.2775C89.5609 95.1124 82.0275 104.228 72.5223 105.12C62.8378 106.029 53.597 98.2091 47.9593 85.8627C47.3319 84.4958 46.7448 83.0752 46.2205 81.6008C46.0502 81.1213 45.8799 80.6373 45.7186 80.1533H45.7141C45.3735 79.1405 45.0598 78.1052 44.773 77.0386C43.7781 73.4221 43.0611 69.568 42.6757 65.5616C42.5054 63.6704 42.4068 61.8106 42.3844 59.9777C42.12 39.2554 51.4862 22.3737 64.6169 21.1413C77.7118 19.8999 90.009 34.6484 93.6748 54.954Z" fill="#FCAE88"/>
<path d="M94.1949 75.5957L94.1994 75.6136C93.8901 77.9261 93.4465 80.1444 92.8953 82.2776C89.5611 95.1125 82.0277 104.228 72.5225 105.12C62.838 106.029 53.5972 98.2092 47.9595 85.8627C47.3321 84.4959 46.745 83.0753 46.2207 81.6009C46.2207 81.6009 52.5665 78.3608 54.8834 78.3204C64.7337 78.1412 83.3183 87.9422 94.1949 75.5957Z" fill="#482B0E"/>
<path d="M30.6435 29.6742C26.9284 38.4803 31.4457 60.1796 37.9214 67.211C40.7179 70.2495 53.8218 71.6791 53.8218 71.6791C53.8218 71.6791 52.7641 40.8107 49.7436 31.8746C48.5201 28.2491 44.209 20.4917 40.9464 21.4821C38.8088 22.123 31.9252 26.6403 30.6435 29.6742Z" fill="#482B0E"/>
<path d="M78.0928 57.6475C78.0928 57.6475 79.1101 68.4523 79.8316 76.1111C97.3765 76.0215 78.4961 58.0284 78.1017 57.6519C78.0928 57.6475 78.0928 57.6475 78.0928 57.6475Z" fill="#FCAE88"/>
<path d="M79.8265 76.1115C97.3715 76.0219 78.491 58.0288 78.0967 57.6523C78.4059 58.0243 91.8772 74.3548 79.8265 76.1115Z" fill="#B06D4D"/>
<path d="M70.1748 86.5936C70.1748 86.5936 79.9623 90.0847 86.0303 84.335C84.2242 87.8171 78.219 94.732 70.1748 86.5936Z" fill="#F1F2F2"/>
<path d="M69.3852 57.4635C69.6541 59.3457 68.8788 61.0173 67.6464 61.1921C66.4185 61.3669 65.204 59.9821 64.9351 58.0999C64.6662 56.2177 65.4415 54.5461 66.6739 54.3713C67.9018 54.1966 69.1163 55.5813 69.3852 57.4635Z" fill="#482B0E"/>
<path d="M88.8491 54.6813C89.118 56.5635 88.3427 58.2351 87.1103 58.4099C85.8824 58.5847 84.6679 57.1999 84.399 55.3177C84.1301 53.4355 84.9054 51.7639 86.1334 51.5891C87.3658 51.4143 88.5803 52.7991 88.8491 54.6813Z" fill="#482B0E"/>
<path d="M54.7051 51.8841C56.9817 48.9397 59.442 46.8783 62.2339 45.5787C63.5112 44.9826 64.887 44.539 66.3838 44.2297L66.5989 45.1484L67.8762 44.9647L67.894 43.9698C68.7321 43.8533 69.606 43.7682 70.5202 43.7278C70.6547 43.7233 70.7891 43.7726 70.8832 43.8712C70.9773 43.9698 71.0266 44.1042 71.0132 44.2387L70.7219 47.7567C70.7084 47.9314 70.6009 48.0793 70.4485 48.1465C70.3813 48.1779 70.3096 48.1913 70.2334 48.1913C67.1098 48.0748 64.6091 48.5051 62.3684 49.5492C60.5086 50.4142 58.7967 51.7003 56.9727 53.6005C56.9324 53.6453 56.8831 53.6767 56.8293 53.7036C56.6814 53.7753 56.4977 53.7618 56.3543 53.6587L54.8037 52.5563C54.6961 52.4801 54.6289 52.3681 54.6065 52.2381C54.5931 52.1126 54.6244 51.9827 54.7051 51.8841Z" fill="#482B0E"/>
<path d="M78.8508 43.697C78.9001 43.6163 78.9763 43.5625 79.0659 43.5446C79.8278 43.4012 80.5537 43.3115 81.2573 43.2667L81.4501 44.0913L82.315 43.9658L82.3284 43.2354C83.1934 43.2443 84.018 43.325 84.8112 43.4908C86.8503 43.9165 88.7863 44.898 90.7402 46.4889C90.8074 46.5427 90.8522 46.6233 90.8567 46.713C90.8657 46.7981 90.8342 46.8878 90.776 46.9505L89.9245 47.914C89.8438 48.0036 89.7274 48.0395 89.6198 48.0171C89.5795 48.0081 89.5436 47.9947 89.5078 47.9723C88.0154 46.9998 86.6889 46.4172 85.331 46.1304C83.6953 45.7853 81.9789 45.8884 79.9398 46.4441C79.8905 46.4575 79.8368 46.4575 79.792 46.4486C79.6844 46.4262 79.5903 46.3455 79.5544 46.2335L78.8194 43.9569C78.797 43.8673 78.806 43.7731 78.8508 43.697Z" fill="#482B0E"/>
<path d="M53.643 36.8037C64.7885 36.7545 98.5115 27.2179 80.5811 1.28809C71.8198 17.1032 27.0813 5.92191 36.9719 26.9579C44.4918 34.3524 46.2217 36.8351 53.643 36.8037Z" fill="#36200B"/>
<path d="M53.6423 36.7998C49.9361 36.8133 47.6506 36.2083 45.3516 34.6667C80.5849 36.7998 80.5848 1.28418 80.5848 1.28418C80.8089 1.61581 81.0331 1.93848 81.2437 2.26562C81.3468 2.42696 81.4543 2.5883 81.5529 2.74963C97.2336 27.5815 64.5726 36.7505 53.6423 36.7998Z" fill="#241607"/>
<path d="M55.1526 52.8076L44.415 59.2519L46.221 60.7936L55.9503 55.4786L55.1526 52.8076Z" fill="#6D6E71"/>
<path d="M83.0893 51.3413C83.1206 51.8522 82.7353 52.2914 82.2289 52.3228L73.2973 52.9098C72.7864 52.9412 72.3472 52.5558 72.3114 52.0449C72.28 51.534 72.6654 51.0948 73.1763 51.059L82.1078 50.4764C82.6143 50.445 83.0579 50.8304 83.0893 51.3413Z" fill="#6D6E71"/>
<path d="M59.4448 53.8149C59.4941 54.6036 58.8981 55.2848 58.1094 55.3341L55.9493 55.4775C55.1606 55.5268 54.4794 54.9308 54.4301 54.142C54.3763 53.3533 54.9768 52.6721 55.7656 52.6228L57.9256 52.4794C58.7144 52.4301 59.3911 53.0262 59.4448 53.8149Z" fill="#525355"/>
<path opacity="0.48" d="M75.3586 52.4394V52.4663C75.3452 52.8651 75.3227 53.2685 75.2869 53.6673C75.1345 55.3658 74.7671 57.0822 74.1845 58.8075C73.826 59.8786 73.3778 60.9587 72.849 62.0342C72.6429 62.4555 72.2305 62.7288 71.7645 62.7602C71.7421 62.7602 71.7241 62.7602 71.7017 62.7602C69.8061 62.7961 67.888 62.8723 66.0058 62.9977C64.4552 63.1008 62.8822 63.2308 61.3316 63.3966C61.3182 63.401 61.2957 63.4011 61.2823 63.4011C60.9776 63.419 60.6729 63.3338 60.4264 63.1501C59.9782 62.8185 59.5435 62.4599 59.1357 62.088C59.0819 62.0432 59.0371 61.9894 58.9923 61.9356C57.3924 59.91 56.523 57.4138 55.8374 54.9445C55.7388 54.586 55.6446 54.232 55.5505 53.8779C55.4564 53.5149 55.5192 53.134 55.7253 52.8248C55.9315 52.5156 56.263 52.3094 56.6305 52.2601C59.5166 51.8658 62.443 51.5655 65.3291 51.3773C67.2068 51.2563 69.107 51.1756 71.0071 51.1398C72.0289 51.1218 73.0507 51.1129 74.0679 51.1174C74.4175 51.1174 74.7492 51.2608 74.9912 51.5072C75.2287 51.7582 75.3631 52.0943 75.3586 52.4394Z" fill="#F1F2F2"/>
<path d="M74.9869 51.5075C74.7449 51.2565 74.4132 51.1176 74.0636 51.1176C73.6289 51.1131 73.1898 51.1131 72.7506 51.1176C72.5848 51.1176 72.419 51.1221 72.2487 51.1221C71.9126 51.1266 71.5809 51.1311 71.2448 51.1355C71.1642 51.1355 71.0835 51.1355 71.0028 51.14C69.1027 51.1759 67.2025 51.2566 65.3203 51.3776C62.4297 51.5658 59.5034 51.866 56.6218 52.2604C56.2543 52.3097 55.9227 52.5158 55.7165 52.8251C55.5104 53.1343 55.4476 53.5197 55.5417 53.8782C55.6359 54.2322 55.73 54.5907 55.8286 54.9448C55.8286 54.9448 70.0886 50.6246 72.7999 53.0043C74.1219 54.1605 74.8658 56.4775 74.1757 58.8123C74.7583 57.0869 75.1258 55.3705 75.2782 53.6721C75.314 53.2687 75.3364 52.8699 75.3498 52.471V52.4441C75.3633 52.0946 75.2289 51.7585 74.9869 51.5075Z" fill="#6D6E71"/>
<path d="M75.0491 59.229C74.9999 59.5248 74.722 59.7219 74.4307 59.6726C74.1349 59.6233 73.9377 59.3455 73.987 59.0542L74.5203 55.8096C74.5696 55.5138 74.843 55.3167 75.1388 55.3659C75.4345 55.4152 75.6317 55.6931 75.5824 55.9844L75.0491 59.229Z" fill="#BCBEC0"/>
<path d="M95.2836 51.4672C95.3329 52.256 96.0142 52.852 96.8029 52.8027L98.9629 52.6593C99.7516 52.6055 100.348 51.9243 100.298 51.1401C100.245 50.3513 99.5679 49.7553 98.7747 49.8046L96.6146 49.948C95.8303 49.9973 95.2298 50.6785 95.2836 51.4672Z" fill="#525355"/>
<path opacity="0.48" d="M79.3248 52.1797L79.3293 52.2066C79.392 52.601 79.4682 52.9954 79.5578 53.3897C79.9298 55.0524 80.5168 56.7105 81.3235 58.3418C81.821 59.3591 82.4035 60.3674 83.0668 61.3668C83.3267 61.7566 83.7704 61.9762 84.2365 61.9449C84.2589 61.9449 84.2768 61.9404 84.2992 61.9404C86.1814 61.7253 88.0906 61.555 89.9773 61.4295C91.5279 61.3264 93.1053 61.2547 94.6604 61.2144C94.6783 61.2144 94.6962 61.2144 94.7141 61.2144C95.0188 61.1965 95.3102 61.0665 95.5298 60.8514C95.9331 60.466 96.314 60.0537 96.6726 59.6279C96.7174 59.5742 96.7577 59.5159 96.7936 59.4576C98.1156 57.2393 98.6534 54.6535 99.0119 52.1125C99.0656 51.745 99.1105 51.3776 99.1553 51.0146C99.2001 50.6426 99.088 50.2751 98.846 49.9928C98.5995 49.7149 98.25 49.5536 97.8736 49.5491C94.9606 49.5312 92.0208 49.6208 89.1302 49.8091C87.2525 49.9345 85.3569 50.1003 83.4702 50.3154C82.4529 50.4275 81.44 50.553 80.4317 50.6919C80.0866 50.7412 79.7774 50.9205 79.5668 51.2028C79.3651 51.4896 79.2755 51.8392 79.3248 52.1797Z" fill="#F1F2F2"/>
<path d="M79.5713 51.2125C79.7819 50.9347 80.0912 50.751 80.4363 50.7017C80.8665 50.6434 81.3012 50.5851 81.7404 50.5314C81.9062 50.509 82.072 50.491 82.2379 50.4686C82.5695 50.4283 82.9011 50.3879 83.2372 50.3521C83.3179 50.3431 83.3986 50.3342 83.4748 50.3252C85.3615 50.1146 87.2615 49.9443 89.1393 49.8188C92.0298 49.6306 94.9697 49.541 97.8826 49.5589C98.2546 49.5589 98.6086 49.7247 98.8551 50.0025C99.1016 50.2849 99.2137 50.6523 99.1644 51.0243C99.1196 51.3873 99.0702 51.7548 99.021 52.1223C99.021 52.1223 84.3172 49.6978 81.9375 52.4091C80.7813 53.7311 80.3377 56.1198 81.3326 58.347C80.5259 56.7158 79.9389 55.0577 79.5669 53.395C79.4773 53.0007 79.4011 52.6063 79.3384 52.2119L79.3339 52.185C79.2756 51.8399 79.3652 51.4904 79.5713 51.2125Z" fill="#6D6E71"/>
<path d="M80.5212 58.8704C80.6063 59.1572 80.9066 59.3185 81.1934 59.2289C81.4802 59.1438 81.6416 58.8435 81.5564 58.5567L80.6063 55.4062C80.5167 55.1194 80.2164 54.9581 79.9341 55.0432C79.6473 55.1284 79.4859 55.4286 79.5756 55.7155L80.5212 58.8704Z" fill="#BCBEC0"/>
<path d="M38.2529 70.5858C41.4796 75.9591 46.6243 78.7959 49.7434 76.9226C52.867 75.0494 52.7818 69.1742 49.5552 63.8054C46.333 58.4321 41.1883 55.5908 38.0647 57.4686C34.9411 59.3373 35.0263 65.2126 38.2529 70.5858Z" fill="#FCAE88"/>
<path d="M44.4513 62.0838C44.4513 62.0838 32.1273 61.6491 45.3521 71.6742C45.1549 69.6441 39.9116 68.2055 44.4513 62.0838Z" fill="#B06D4D"/>
<path d="M123.788 87.5003C124.284 88.4655 124.167 89.5155 123.527 89.8445C122.888 90.1735 121.966 89.6573 121.469 88.6907C120.973 87.7255 121.09 86.6756 121.731 86.3465C122.371 86.019 123.293 86.5352 123.788 87.5003Z" fill="#3B2361"/>
<path d="M243.159 185.392C242.093 184.578 241.095 183.716 240.156 182.815C237.648 186.107 234.864 189.19 231.844 192.02C232.554 192.707 233.283 193.374 234.029 194.016C236.38 196.044 239.072 197.958 242.167 198.216C245.261 198.473 248.73 196.433 248.984 193.339C249.265 189.911 245.893 187.482 243.159 185.392Z" fill="white"/>
<path d="M176.658 202.28C176.431 204.822 177.626 207.877 180.144 208.295C183.126 208.792 185.16 205.505 186.637 202.865C188.948 198.736 192.008 195.029 195.615 191.965C193.162 189.67 190.457 187.648 187.563 185.944C183.594 191.304 177.249 195.679 176.658 202.28Z" fill="white"/>
<path d="M131.316 133.933C130.299 135.786 129.306 137.789 129.452 139.896C129.598 142.004 131.347 144.142 133.45 143.928C135.013 143.767 136.17 142.451 137.159 141.229C139.495 138.342 141.834 135.454 144.171 132.567C141.494 130.479 138.603 128.667 135.557 127.171C134.055 129.347 132.614 131.574 131.316 133.933Z" fill="white"/>
<path d="M147.001 85C148.245 84.3682 149.835 82.6957 151.001 81.9732C149.649 77.9197 147.976 73.9205 146.001 70C147.137 74.6158 147.219 80.3162 147.001 85Z" fill="#E05A00"/>
<path d="M120.17 93.9079C118.916 94.1345 117.639 94.3656 116.5 94.9403C116.395 94.9944 116.289 95.0514 116.187 95.1129C116.095 95.4156 116.032 95.7271 116.026 96.0605C116.006 97.0783 116.474 97.9908 117.149 98.7746C117.611 99.3142 118.174 99.7924 118.742 100.205C120.643 101.579 122.899 102.624 125.243 102.536C125.619 102.523 125.995 102.473 126.365 102.39L126.403 102.549C129.427 103.232 132.609 102.249 135.301 100.708C137.991 99.1665 140.329 97.087 142.872 95.3132C144.039 94.4987 145.276 93.7426 146.573 93.1475C147.048 90.2988 147.335 87.4179 147.432 84.5312C139.62 90.0663 129.699 92.1838 120.17 93.9079Z" fill="white"/>
<path d="M151.467 91.8919C151.436 91.1241 151.4 90.3564 151.359 89.5916C151.347 89.3517 151.335 89.109 151.325 88.8677L151.242 88.8706C150.869 86.7575 150.433 84.6561 149.934 82.5693C149.127 83.2683 148.291 83.9191 147.428 84.5304C147.331 87.417 147.046 90.2979 146.569 93.1466C148.097 92.4461 149.708 91.9708 151.383 91.8962L151.467 91.8919Z" fill="#C9E5ED"/>
<path d="M146.419 59.3242C146.137 59.3973 145.858 59.4734 145.577 59.5523C145.576 59.5538 145.574 59.5538 145.571 59.5538C144.447 60.0349 143.245 60.3318 142.026 60.4312C143.626 63.723 145.055 67.0981 146.313 70.5361C147.548 69.8488 148.709 69.027 149.767 68.0881C148.927 65.0698 147.81 62.1305 146.419 59.3242Z" fill="#F391B5"/>
<path d="M150.001 67.5C148.947 68.4937 147.233 69.7725 146.001 70.5C148.171 76.7999 149.903 81.8937 151.001 88.5L151.501 90C151.228 82.9695 151.694 75.8556 150.001 69C149.937 68.7446 150.068 67.7539 150.001 67.5Z" fill="#E0739B"/>
<path d="M124.89 65.0532C125.321 64.3674 125.041 63.468 124.685 62.7398C123.945 61.2247 122.911 59.8545 121.663 58.7227C121.453 58.7329 121.274 58.7651 121.198 58.8396C120.958 59.0736 121.151 59.565 121.203 59.8604C121.549 61.8199 122.214 63.6888 123.257 65.3895C123.271 65.4144 123.286 65.4378 123.302 65.4612C123.46 65.587 123.616 65.7142 123.774 65.8399C124.216 65.6718 124.641 65.448 124.89 65.0532Z" fill="white"/>
<path d="M124.685 62.7413C125.041 63.4681 125.32 64.3689 124.89 65.0547C124.641 65.4496 124.217 65.6733 123.773 65.8415C124.386 66.3372 125 66.8301 125.693 67.2015C126.638 67.706 127.783 67.959 128.783 67.5788C129.783 67.1986 130.516 66.0404 130.168 65.0284C129.988 64.5064 129.571 64.1057 129.167 63.7284C127.59 62.2485 125.996 60.7554 124.128 59.6616C123.504 59.296 122.841 58.9772 122.158 58.7271C121.996 58.7213 121.821 58.7169 121.661 58.7257C122.91 59.8561 123.944 61.2263 124.685 62.7413Z" fill="#C9E5ED"/>
<path d="M146.475 70.985C145.179 67.392 143.695 63.8663 142.026 60.4312C141.998 60.3712 141.969 60.3127 141.938 60.2528C139.471 60.5189 136.999 60.7324 134.521 60.8904C134.476 60.8947 134.432 60.8977 134.385 60.9006C134.407 60.8874 134.429 60.8757 134.451 60.8626C131.703 59.7687 128.792 59.0829 125.845 58.8357C124.778 58.7465 123.706 58.7144 122.635 58.7422C122.537 58.7451 122.357 58.7334 122.159 58.7246C122.841 58.9761 123.502 59.2935 124.128 59.6591C125.994 60.7529 127.59 62.246 129.168 63.7259C129.571 64.1046 129.988 64.5038 130.168 65.0259C130.516 66.0379 129.783 67.196 128.783 67.5763C127.783 67.9565 126.638 67.7035 125.693 67.199C125 66.829 124.386 66.3347 123.773 65.839C123.641 65.8887 123.51 65.934 123.378 65.9779C122.827 66.1607 122.277 66.3435 121.727 66.5263C117.404 69.7011 114.623 74.8135 115.043 80.2871C115.249 82.9895 116.343 85.5238 116.934 88.1458C117.226 89.4458 117.413 90.7882 117.27 92.1205C117.151 93.2085 116.496 94.0976 116.188 95.111C116.29 95.051 116.395 94.9925 116.501 94.9384C117.64 94.3623 118.915 94.1327 120.171 93.906C129.7 92.1833 139.621 90.0644 147.43 84.5279C147.58 79.9975 147.261 75.4496 146.475 70.985ZM123.526 89.845C122.887 90.1741 121.966 89.6578 121.468 88.6912C120.973 87.7261 121.09 86.6761 121.73 86.3471C122.369 86.018 123.29 86.5343 123.788 87.5009C124.283 88.4675 124.166 89.516 123.526 89.845Z" fill="#F37700"/>
<path d="M187.559 119.634C186.564 118.267 185.481 116.962 184.318 115.735C183.985 116.569 183.675 117.417 183.294 118.207C182.228 120.427 181.048 122.592 179.761 124.694C179.52 125.087 179.241 125.483 178.951 125.887C180.172 128.442 181.352 131.016 182.492 133.608C183.9 131.742 184.906 129.514 185.62 127.275C186.417 124.771 186.924 122.183 187.559 119.634Z" fill="#C9E5ED"/>
<path d="M190.536 129.696C190.932 128.968 191.337 128.212 191.404 127.386C191.486 126.355 191.031 125.365 190.552 124.448C189.673 122.772 188.67 121.163 187.557 119.634C186.922 122.183 186.415 124.771 185.616 127.275C184.903 129.513 183.897 131.742 182.488 133.608C183.348 135.563 184.185 137.529 184.996 139.503C185.7 138.517 186.315 137.441 186.881 136.404C188.099 134.168 189.317 131.932 190.536 129.696Z" fill="white"/>
<path d="M220.11 150.279C221.047 147.045 221.429 143.583 220.68 140.299C218.339 144.794 215.997 149.289 213.656 153.785C213.647 153.802 213.639 153.818 213.63 153.836C213.897 156.587 214.368 159.347 215.029 162.084C215.43 161.254 215.831 160.425 216.233 159.596C217.7 156.565 219.172 153.516 220.11 150.279Z" fill="#E05A00"/>
<path d="M223.797 138.814C222.268 129.311 222.018 119.677 219.6 110.392C215.365 94.1146 206.794 78.9265 193.275 68.6184C180.165 58.6217 162.352 55.1164 146.421 59.3222C147.923 62.3522 149.109 65.5357 149.967 68.807C151.666 75.2838 151.054 82.2256 151.327 88.8676C151.337 89.1089 151.348 89.3517 151.361 89.5915C151.4 90.3563 151.438 91.124 151.469 91.8918C151.586 94.8414 151.587 97.7997 151.109 100.719C151.103 100.757 151.098 100.793 151.092 100.83C150.008 107.283 146.352 111.612 142.869 116.822C140.5 120.364 137.952 123.702 135.559 127.171C138.605 128.667 141.496 130.479 144.172 132.567C146.806 129.313 149.439 126.06 152.073 122.806C154.378 119.959 156.612 117.281 158.553 114.438C160.613 111.424 162.342 108.223 163.478 104.434C164.774 100.109 165.452 95.6471 165.87 91.1445C165.843 90.5552 165.445 94.2142 165.607 93.657C165.633 93.5635 166.002 94.3765 166.002 93.5C166.335 92.6548 168.104 96.428 169.002 96.5699C169.939 96.7176 169.69 91.6036 170.002 92.5C170.77 94.7096 170.762 94.2798 170.689 96.5859C170.651 97.7602 170.594 98.936 170.62 100.11C170.638 100.901 170.371 102.843 171.568 102.102C172.229 101.694 172.474 100.679 172.784 100.021C173.327 98.8716 173.871 97.7207 174.413 96.5699C175.471 94.331 172.806 102.349 173.865 100.11C174.289 99.2123 173.083 102.139 173.865 101.526C174.648 100.913 176.262 102.678 177.002 103.339C177.436 103.725 179.217 102.751 179.242 103.339C180.045 102.87 181.624 105.164 181.981 106C182.285 106.714 185.644 91.2951 185.51 92.06C185.147 94.1526 184.783 96.2438 184.42 98.3379C184.235 99.401 184.05 100.464 183.866 101.526C183.711 102.412 183.325 103.515 183.411 104.414C183.443 104.734 183.578 105.054 183.827 105.262C184.983 106.226 186.691 104.119 187.307 103.339C188.212 102.193 182.252 111.747 183.002 110.5C183.449 109.757 187.186 111.7 188.002 112C188.786 112.288 192.438 99.7095 192.27 100.527C192.117 101.267 191.221 113.279 191.002 114C191.426 115.724 192.003 106.34 191.564 108.082C190.909 110.685 173.69 97.1329 172.784 99.6598C172.313 100.976 171.904 100.745 171.568 102.102C172.681 103.632 189.676 122.769 190.555 124.445C191.035 125.361 191.489 126.352 191.407 127.383C191.342 128.209 190.937 128.965 190.539 129.694C189.321 131.93 188.103 134.166 186.884 136.402C186.32 137.438 185.704 138.513 184.999 139.5C185.023 139.556 185.046 139.611 185.068 139.667C184.523 141.469 184.166 143.329 184.004 145.187C183.354 152.613 185.39 160.019 188.025 166.991C189.536 170.983 191.28 175.161 190.591 179.373C190.194 181.811 189.043 183.946 187.563 185.943C190.457 187.647 193.162 189.671 195.615 191.964C196.477 191.231 197.37 190.535 198.291 189.88C201.942 187.283 206.315 184.969 207.836 180.753C209.332 176.606 207.518 172.041 207.681 167.633C207.869 162.486 210.68 157.984 213.594 153.529L213.602 153.533C213.61 153.632 213.621 153.733 213.631 153.833C213.64 153.815 213.648 153.799 213.657 153.782C215.998 149.286 218.34 144.791 220.681 140.296C221.43 143.58 221.047 147.04 220.111 150.276C219.173 153.511 217.701 156.562 216.234 159.595C215.833 160.424 215.433 161.253 215.03 162.082C217.745 173.301 223.66 184.104 231.845 192.018C234.864 189.188 237.649 186.106 240.157 182.814C228.5 171.637 226.276 154.216 223.797 138.814Z" fill="#F37700"/>
<path d="M193.31 102.498C194.534 101.633 195.47 100.835 195.753 100.266C197.16 97.4472 194.619 97.5951 191.33 98.6438C192.925 97.5772 194.207 96.5644 194.547 95.8787C196.34 92.2891 191.733 92.9702 187.323 94.2654C189.447 92.9837 191.061 91.7468 191.289 90.8281C192.19 87.1757 173.314 90.8595 173.314 90.8595C170.943 91.823 163.688 93.2884 162.469 95.5426C162.222 96.0042 162.083 96.524 162.039 97.0887L155.034 111.111L169.272 121.531L175.241 118.179C175.241 118.179 188.632 113.092 192.437 107.795C193.718 106.836 194.816 105.76 195.439 104.613C196.609 102.462 195.403 102.077 193.31 102.498Z" fill="#FCAE88"/>
<path d="M148.971 114.871L155.061 108.408L171.396 121.337L164.347 130.708L148.971 114.871Z" fill="#4A726F"/>
<path d="M8.8172 138.524L84.4196 167.645L150.288 111.115L169.272 128.239C169.272 128.239 118.183 198.024 89.1207 205.522C69.2364 210.649 27.3795 195.604 10.6277 182.366C2.86134 176.231 -5.00366 147.877 8.8172 138.524Z" fill="#F1F2F2"/>
<path d="M338.38 423.949C335.732 449.265 330.516 465.497 322.117 474.245C320.737 475.684 319.267 476.925 317.712 477.969C312.366 481.545 307.167 481.859 302.565 480.627C294.216 478.381 287.838 471.054 286.14 468.943C285.078 467.626 285.898 464.955 287.991 462.956C290.07 460.971 292.625 460.424 293.687 461.746C298.894 468.199 308.91 472.26 315.426 467.89C317.743 466.34 326.334 462.033 329.96 427.436C330.193 425.253 332.259 422.699 334.594 421.736C336.427 420.978 337.87 421.426 338.286 422.721C338.394 423.067 338.43 423.483 338.38 423.949Z" fill="#814D24"/>
<path d="M338.381 423.949C335.733 449.265 330.516 465.497 322.118 474.245C320.738 475.683 319.268 476.925 317.713 477.969C312.366 481.545 307.168 481.859 302.565 480.626C302.619 479.645 302.709 478.605 302.821 477.525C330.951 479.622 337.346 431.469 338.278 422.726C338.395 423.066 338.431 423.483 338.381 423.949Z" fill="#FAEED4"/>
<path d="M218.514 481.268C214.468 486.031 214.132 497.369 214.499 505.62C214.746 511.065 215.297 515.17 215.297 515.17C215.297 515.17 214.409 515.17 212.922 515.17H184.415C184.415 508.161 189.475 502.339 196.143 501.147C198.025 478.077 198.671 447.365 198.671 447.365C198.671 447.365 208.808 449.055 218.514 449.055C218.514 449.055 218.51 449.059 218.51 449.064C217.022 453.137 214.786 463.678 218.514 481.268Z" fill="#FAEED4"/>
<path d="M189.475 515.171H188.614C187.929 513.571 187.929 511.137 190.667 507.808C189.699 511.196 188.525 512.522 189.475 515.171Z" fill="#BCB39F"/>
<path d="M194.342 515.17H193.482C192.8 513.57 192.8 511.137 195.534 507.807C194.566 511.195 193.396 512.522 194.342 515.17Z" fill="#BCB39F"/>
<path d="M196.143 501.147C198.025 478.077 198.67 447.365 198.67 447.365C198.67 447.365 203.837 481.765 196.143 501.147Z" fill="#FCF5E5"/>
<path opacity="0.63" d="M214.504 505.62C214.163 505.961 213.822 506.297 213.482 506.615C211.658 498.064 213.831 483.701 216.874 481.263C209.561 467.572 218.277 449.548 218.515 449.064C217.022 453.133 214.786 463.674 218.519 481.263C214.468 486.032 214.132 497.37 214.504 505.62Z" fill="#ADA193"/>
<path d="M286.61 453.164C273.919 448.082 252.269 447.365 252.269 447.365C252.269 447.365 225.268 467.949 245.977 498.208C240.03 501.528 236.01 507.879 236.01 515.165H274.828C274.828 512.472 274.277 509.904 273.287 507.574C275.173 503.971 298.804 458.045 286.61 453.164Z" fill="#FAEED4"/>
<path d="M241.653 515.17C240.483 513.723 239.457 510.913 242.988 506.62C241.881 510.478 240.519 511.661 242.316 515.17H241.653Z" fill="#BCB39F"/>
<path d="M246.519 515.17C245.349 513.723 244.323 510.913 247.854 506.62C246.748 510.478 245.385 511.661 247.182 515.17H246.519Z" fill="#BCB39F"/>
<path d="M307.11 465.905C306.428 468.37 305.81 470.758 305.447 473.093C305.411 473.326 305.371 473.546 305.326 473.77C305.061 475.097 304.627 476.347 304.04 477.517C304.04 477.517 304.035 477.517 304.035 477.521C303.359 478.865 302.494 480.12 301.454 481.267C301.454 481.267 301.454 481.268 301.454 481.272C290.595 493.336 261.434 494.932 248.918 490.634C217.874 479.972 187.342 450.323 188.996 422.596C190.43 398.58 197.887 377.665 201.266 369.267C202.283 366.735 202.929 365.341 202.929 365.341C202.929 365.341 225.323 366.233 235.276 366.233C235.276 366.233 235.276 366.251 235.285 366.282C235.442 367.29 235.702 368.312 236.038 369.343C238.848 377.97 247.152 386.785 250.701 388.335C320.092 425.729 312.075 447.903 307.11 465.905Z" fill="#814D24"/>
<path d="M301.457 481.268C294.739 488.734 281.017 492.193 268.563 492.722C260.886 493.054 253.693 492.274 248.921 490.634C217.877 479.972 187.345 450.323 188.999 422.596C190.402 399.131 197.549 378.628 201.032 369.863C201.112 369.656 201.193 369.455 201.269 369.267H222.359L218.357 380.712C218.357 380.712 200.108 450.798 242.203 465.506C284.293 480.219 301.457 481.268 301.457 481.268Z" fill="#FAEED4"/>
<path d="M276.437 487.739C276.437 487.739 276.437 487.739 276.437 487.748C274.317 489.778 271.624 491.427 268.563 492.727C260.886 493.058 253.693 492.279 248.921 490.638C217.877 479.977 187.345 450.327 188.999 422.601C190.402 399.136 197.549 378.633 201.032 369.867L205.804 370.217L200.973 381.34C200.973 381.34 177.616 449.893 218.509 467.657C259.398 485.431 276.437 487.739 276.437 487.739Z" fill="#FCF5E5"/>
<path d="M242.198 481.268C238.151 486.031 237.815 497.369 238.183 505.62C238.429 511.065 238.981 515.17 238.981 515.17C238.981 515.17 238.093 515.17 236.605 515.17H208.099C208.099 508.161 213.158 502.339 219.822 501.147C221.709 478.077 222.35 447.365 222.35 447.365C222.35 447.365 232.491 449.055 242.194 449.055C242.194 449.055 242.194 449.059 242.194 449.064C240.706 453.137 238.47 463.678 242.198 481.268Z" fill="#814D24"/>
<path d="M213.159 515.171H212.303C211.617 513.571 211.617 511.137 214.355 507.808C213.383 511.196 212.209 512.522 213.159 515.171Z" fill="#613A1B"/>
<path d="M218.03 515.17H217.169C216.484 513.57 216.484 511.137 219.222 507.807C218.249 511.195 217.08 512.522 218.03 515.17Z" fill="#613A1B"/>
<path opacity="0.68" d="M219.828 501.147C221.715 478.077 222.356 447.365 222.356 447.365C222.356 447.365 227.523 481.765 219.828 501.147Z" fill="#A27E63"/>
<path opacity="0.66" d="M238.188 505.62C237.848 505.961 237.507 506.297 237.166 506.615C235.342 498.064 237.516 483.701 240.559 481.263C233.245 467.572 241.962 449.548 242.204 449.064C240.711 453.133 238.475 463.674 242.204 481.263C238.152 486.032 237.816 497.37 238.188 505.62Z" fill="#68472D"/>
<path d="M290.922 507.579C291.913 509.909 292.464 512.477 292.464 515.17H253.646C253.646 507.879 257.665 501.529 263.612 498.212C243.369 468.639 268.703 448.307 269.859 447.406C269.864 447.406 269.864 447.406 269.864 447.402C269.873 447.393 269.882 447.388 269.886 447.379C269.895 447.375 269.895 447.37 269.895 447.37C269.895 447.37 291.545 448.083 304.237 453.169C316.435 458.045 292.8 503.971 290.922 507.579Z" fill="#814D24"/>
<path d="M259.277 515.17C258.107 513.723 257.086 510.913 260.613 506.62C259.506 510.478 258.143 511.661 259.94 515.17H259.277Z" fill="#613A1B"/>
<path d="M264.149 515.17C262.979 513.723 261.953 510.913 265.484 506.62C264.377 510.478 263.015 511.661 264.812 515.17H264.149Z" fill="#613A1B"/>
<path opacity="0.4" d="M307.108 465.905C313.777 420.414 253.976 392.534 246.64 388.048C240.832 384.499 237.439 374.474 236.041 369.343C238.851 377.97 247.155 386.785 250.704 388.335C320.091 425.729 312.074 447.903 307.108 465.905Z" fill="#68472D"/>
<path d="M269.86 447.406C268.833 448.333 248.393 467.344 263.613 498.212C243.37 468.639 268.703 448.307 269.86 447.406Z" fill="#ECDFD0"/>
<path d="M191.267 307.459C191.267 307.459 144.472 327.048 157.598 343.598C170.724 360.148 148.057 359.583 162.819 371.566C177.576 383.554 191.787 352.493 188.027 340.922C184.267 329.351 191.267 307.459 191.267 307.459Z" fill="#814D24"/>
<path d="M225.366 307.459C225.366 307.459 272.162 327.048 259.036 343.598C245.909 360.148 268.577 359.583 253.815 371.566C239.057 383.554 224.846 352.493 228.606 340.922C232.366 329.351 225.366 307.459 225.366 307.459Z" fill="#814D24"/>
<path d="M235.786 332.183C235.288 304.577 218.68 301.574 208.417 301.574C198.155 301.574 181.546 304.577 181.049 332.183C175.573 346.353 171.096 358.7 171.096 358.7L208.417 357.454L245.739 358.7C245.739 358.695 241.262 346.353 235.786 332.183Z" fill="#FAEED4"/>
<path opacity="0.46" d="M245.74 358.695L208.418 357.449L171.092 358.695C171.092 358.695 173.019 353.389 175.887 345.743C187.602 340.267 208.418 344.699 208.418 344.699C208.418 344.699 229.234 340.267 240.944 345.743C243.813 353.389 245.74 358.695 245.74 358.695Z" fill="#AEA082"/>
<path d="M248.729 358.942C248.729 373.453 230.346 376.07 218.412 376.236C217.099 378.831 213.128 380.717 208.418 380.717C203.713 380.717 199.742 378.831 198.429 376.236C186.49 376.07 168.107 373.453 168.107 358.942C168.107 358.651 168.112 358.364 168.13 358.086C169.196 337.695 208.418 346.049 208.418 346.049C208.418 346.049 247.636 337.695 248.707 358.086C248.725 358.364 248.729 358.651 248.729 358.942Z" fill="#FAEED4"/>
<path d="M218.519 348.553C218.519 351.619 214.392 354.133 209.117 354.428C208.772 354.446 208.423 354.464 208.069 354.464C202.296 354.464 197.613 351.82 197.613 348.553C197.613 345.291 202.296 342.638 208.069 342.638C208.512 342.638 208.947 342.656 209.373 342.687C214.526 343.05 218.519 345.542 218.519 348.553Z" fill="#231F20"/>
<path d="M196.959 333.056C198.333 333.056 199.446 331 199.446 328.463C199.446 325.926 198.333 323.869 196.959 323.869C195.585 323.869 194.472 325.926 194.472 328.463C194.472 331 195.585 333.056 196.959 333.056Z" fill="#231F20"/>
<path d="M221.661 328.463C221.661 330.999 220.55 333.056 219.179 333.056C217.807 333.056 216.691 330.999 216.691 328.463C216.691 325.926 217.803 323.869 219.179 323.869C220.554 323.869 221.661 325.922 221.661 328.463Z" fill="#231F20"/>
<path d="M214.548 320.616C214.548 320.616 217.089 314.49 222.166 319.868C220.822 319.124 216.936 316.583 214.548 320.616Z" fill="#814D24"/>
<path d="M201.104 320.616C201.104 320.616 198.563 314.49 193.485 319.868C194.83 319.124 198.711 316.583 201.104 320.616Z" fill="#814D24"/>
</svg>
