<svg width="124" height="143" viewBox="0 0 124 143" fill="none" xmlns="http://www.w3.org/2000/svg">
<g opacity="0.12">
<path d="M72.4629 77.6084L75.8692 74.1448L79.3328 77.5511L75.9265 81.0147L72.4629 77.6084Z" fill="#74B3AF"/>
<path d="M124.188 101.223C127.01 98.3539 126.971 93.7404 124.102 90.9185C121.232 88.0965 116.619 88.135 113.797 91.0043C110.975 93.8737 111.014 98.4873 113.883 101.309C116.754 104.127 121.364 104.088 124.188 101.223ZM117.261 94.4107C118.201 93.4543 119.739 93.4415 120.695 94.382C121.652 95.3226 121.665 96.8606 120.724 97.817C119.784 98.7734 118.246 98.7862 117.289 97.8456C116.334 96.9044 116.321 95.3677 117.261 94.4107Z" fill="#74B3AF"/>
<path d="M102.046 123.737C104.868 120.868 104.83 116.254 101.96 113.432C99.0909 110.61 94.4773 110.649 91.6554 113.518C88.8335 116.387 88.8719 121.001 91.7413 123.823C94.6125 126.64 99.2222 126.602 102.046 123.737ZM95.1189 116.924C96.0595 115.968 97.5975 115.955 98.5539 116.896C99.5103 117.836 99.5231 119.374 98.5825 120.331C97.642 121.287 96.104 121.3 95.1476 120.359C94.1927 119.418 94.1799 117.881 95.1189 116.924Z" fill="#74B3AF"/>
<path d="M108.973 130.549C113.843 125.584 115.205 118.156 112.411 111.787C121.069 115.421 131.033 111.348 134.667 102.69C138.301 94.0327 134.229 84.0686 125.571 80.4346C120.03 78.109 113.674 78.881 108.851 82.4652L89.1882 77.0233L52.765 41.2023C48.8229 37.3278 44.4458 33.9225 39.7208 31.054C34.9937 28.1881 29.9507 25.8794 24.6923 24.1738C23.4161 23.7602 22.0463 24.4593 21.6327 25.7355C21.4707 26.2354 21.4752 26.7747 21.6455 27.2718C25.2536 37.7598 31.2416 47.2698 39.1396 55.0568L75.563 90.8781L81.5557 111.208C77.4571 119.655 80.9822 129.826 89.4295 133.924C95.9935 137.109 103.857 135.751 108.973 130.549ZM91.924 102.358L91.2757 92.7039L102.24 93.2576C101.685 96.5366 102.098 99.9063 103.43 102.954C99.779 101.43 95.7128 101.22 91.924 102.358ZM127.507 87.4548C132.289 92.1578 132.353 99.8474 127.65 104.63C122.947 109.412 115.258 109.476 110.475 104.773C105.693 100.07 105.629 92.38 110.332 87.5979C115.039 82.8233 122.722 82.7593 127.507 87.4548ZM42.5459 51.5932C36.4535 45.5871 31.5682 38.4694 28.1535 30.6252C31.2805 31.9213 34.3046 33.4535 37.1992 35.2084C41.6035 37.8816 45.6837 41.055 49.3585 44.6661L86.2304 80.9284C86.5248 81.2175 86.8879 81.4273 87.2856 81.5378L105.011 86.443C104.561 87.0904 104.158 87.7685 103.804 88.4725L78.7593 87.208L42.5459 51.5932ZM81.0128 92.1859L86.3909 92.4564L87.2073 104.626C86.4853 105.124 85.8029 105.677 85.1664 106.281L81.0128 92.1859ZM88.1913 110.111C92.8943 105.329 100.584 105.265 105.366 109.968C110.148 114.671 110.212 122.361 105.509 127.143C100.806 131.925 93.1165 131.989 88.3344 127.286C83.5598 122.58 83.4957 114.896 88.1913 110.111Z" fill="#74B3AF"/>
</g>
</svg>
