<svg width="84" height="84" viewBox="0 0 84 84" fill="none" xmlns="http://www.w3.org/2000/svg">
<g opacity="0.2">
<path d="M66.7414 8.84166L61.1184 3.16165C59.1295 1.15221 56.3672 0 53.5399 0H25.79C21.7192 0 18.4072 3.31193 18.4072 7.38281C18.4072 11.4537 21.7192 14.7656 25.79 14.7656H29.8916V19.7341C26.2054 20.1436 23.3291 23.2767 23.3291 27.0703V29.821C18.6318 30.9353 15.126 35.1622 15.126 40.1953V74.9766C15.126 79.9521 19.1739 84 24.1494 84H50.3994C55.3749 84 59.4229 79.9521 59.4229 74.9766V40.1953C59.4229 35.1624 55.9168 30.9353 51.2197 29.821V27.0703C51.2197 23.2767 48.3434 20.1438 44.6572 19.7341V14.7656H51.7487L56.2566 19.2737C57.6984 20.7154 59.5922 21.4362 61.4859 21.4361C63.3797 21.4361 65.2735 20.7152 66.7151 19.2736C69.5839 16.4046 69.5957 11.7249 66.7414 8.84166ZM50.3994 79.0781H24.1494C21.8878 79.0781 20.0479 77.2382 20.0479 74.9766V74.1562H54.501V74.9766C54.501 77.2382 52.6612 79.0781 50.3994 79.0781ZM54.501 40.1953V69.2344H20.0479V40.1953C20.0479 37.0291 22.6238 34.4531 25.79 34.4531H48.7588C51.925 34.4531 54.501 37.0291 54.501 40.1953ZM46.2979 27.0703V29.5312H28.251V27.0703C28.251 25.7134 29.355 24.6094 30.7119 24.6094H43.8369C45.194 24.6094 46.2979 25.7134 46.2979 27.0703ZM39.7354 19.6875H34.8135V14.7656H39.7354V19.6875ZM63.2348 15.7933C62.2703 16.7575 60.7014 16.7575 59.7369 15.7933L54.5082 10.5646C54.0467 10.103 53.4206 9.84375 52.768 9.84375H25.79C24.4331 9.84375 23.3291 8.73977 23.3291 7.38281C23.3291 6.02585 24.4331 4.92188 25.79 4.92188H53.5399C55.0622 4.92188 56.5498 5.54236 57.6206 6.62419L63.2434 12.3042C64.1982 13.2686 64.1941 14.8337 63.2348 15.7933Z" fill="#74B3AF"/>
<path d="M37.2744 48.7266C32.5794 48.7266 29.0713 53.0573 29.0713 56.9297C29.0713 60.8549 32.3678 63.4922 37.2744 63.4922C42.1809 63.4922 45.4775 60.8549 45.4775 56.9297C45.4775 53.0573 41.9695 48.7266 37.2744 48.7266ZM37.2744 58.5703C36.9386 58.5703 33.9932 58.5244 33.9932 56.9297C33.9932 55.4835 35.5381 53.6484 37.2744 53.6484C39.0107 53.6484 40.5557 55.4835 40.5557 56.9297C40.5557 58.5244 37.6102 58.5703 37.2744 58.5703Z" fill="#74B3AF"/>
<path d="M37.2744 45.4453C38.6336 45.4453 39.7354 44.3435 39.7354 42.9844C39.7354 41.6252 38.6336 40.5234 37.2744 40.5234C35.9153 40.5234 34.8135 41.6252 34.8135 42.9844C34.8135 44.3435 35.9153 45.4453 37.2744 45.4453Z" fill="#74B3AF"/>
<path d="M31.1578 47.374C32.2711 46.5944 32.5417 45.0599 31.7622 43.9466C30.9826 42.8332 29.4481 42.5627 28.3348 43.3422C27.2214 44.1216 26.9509 45.6563 27.7304 46.7696C28.51 47.8831 30.0445 48.1536 31.1578 47.374Z" fill="#74B3AF"/>
<path d="M46.2145 43.3422C45.1012 42.5626 43.5667 42.8333 42.7871 43.9466C42.0074 45.06 42.2781 46.5945 43.3915 47.3741C44.5048 48.1537 46.0393 47.883 46.8189 46.7697C47.5984 45.6562 47.3278 44.1217 46.2145 43.3422Z" fill="#74B3AF"/>
</g>
</svg>
