<svg width="1160" height="183" viewBox="0 0 1160 183" fill="none" xmlns="http://www.w3.org/2000/svg">
<rect width="1160" height="183" rx="8" fill="#74B3AF"/>
<path d="M63.3296 89V84.008C64.2096 83.256 65.0816 82.512 65.9456 81.776C66.8256 81.04 67.7056 80.304 68.5856 79.568C70.6336 77.84 72.3936 76.224 73.8656 74.72C75.3376 73.216 76.4656 71.768 77.2496 70.376C78.0336 68.984 78.4256 67.584 78.4256 66.176C78.4256 64.64 77.9936 63.488 77.1296 62.72C76.2656 61.936 74.9616 61.544 73.2176 61.544C72.4656 61.544 71.6896 61.632 70.8896 61.808C70.1056 61.968 69.3136 62.208 68.5136 62.528C67.7136 62.832 66.9136 63.192 66.1136 63.608C65.3296 64.024 64.5616 64.488 63.8096 65L63.1616 57.944C63.8976 57.592 64.7056 57.264 65.5856 56.96C66.4816 56.64 67.4256 56.36 68.4176 56.12C69.4256 55.864 70.4576 55.664 71.5136 55.52C72.5856 55.376 73.6576 55.304 74.7296 55.304C77.1616 55.304 79.2176 55.704 80.8976 56.504C82.5936 57.288 83.8736 58.424 84.7376 59.912C85.6176 61.384 86.0576 63.152 86.0576 65.216C86.0576 66.912 85.7056 68.6 85.0016 70.28C84.2976 71.944 83.2256 73.616 81.7856 75.296C80.3616 76.976 78.5536 78.672 76.3616 80.384L71.6336 84.104L70.7216 82.664H76.6736C78.3056 82.664 79.9376 82.664 81.5696 82.664C83.2016 82.664 84.8256 82.664 86.4416 82.664V89H63.3296ZM104.393 89.6C101.897 89.6 99.7525 89.168 97.9605 88.304C96.1845 87.424 94.7365 86.208 93.6165 84.656C92.5125 83.104 91.6965 81.288 91.1685 79.208C90.6565 77.128 90.4005 74.888 90.4005 72.488C90.4005 69.112 90.8885 66.136 91.8645 63.56C92.8405 60.968 94.3445 58.944 96.3765 57.488C98.4245 56.032 101.041 55.304 104.225 55.304C106.641 55.304 108.721 55.728 110.465 56.576C112.209 57.408 113.649 58.592 114.785 60.128C115.921 61.648 116.761 63.456 117.305 65.552C117.865 67.648 118.145 69.952 118.145 72.464C118.145 75.904 117.641 78.912 116.633 81.488C115.625 84.064 114.105 86.064 112.073 87.488C110.041 88.896 107.481 89.6 104.393 89.6ZM104.297 83.456C105.817 83.456 107.025 82.984 107.921 82.04C108.833 81.08 109.497 79.776 109.913 78.128C110.329 76.464 110.537 74.576 110.537 72.464C110.537 70.24 110.313 68.312 109.865 66.68C109.433 65.032 108.753 63.752 107.825 62.84C106.913 61.928 105.737 61.472 104.297 61.472C102.825 61.472 101.625 61.936 100.697 62.864C99.7845 63.792 99.1125 65.08 98.6805 66.728C98.2485 68.376 98.0325 70.288 98.0325 72.464C98.0325 74.608 98.2325 76.504 98.6325 78.152C99.0485 79.8 99.7125 81.096 100.625 82.04C101.553 82.984 102.777 83.456 104.297 83.456ZM145.455 89.6C142.959 89.6 140.815 89.168 139.023 88.304C137.247 87.424 135.799 86.208 134.679 84.656C133.575 83.104 132.759 81.288 132.231 79.208C131.719 77.128 131.463 74.888 131.463 72.488C131.463 69.112 131.951 66.136 132.927 63.56C133.903 60.968 135.407 58.944 137.439 57.488C139.487 56.032 142.103 55.304 145.287 55.304C147.703 55.304 149.783 55.728 151.527 56.576C153.271 57.408 154.711 58.592 155.847 60.128C156.983 61.648 157.823 63.456 158.367 65.552C158.927 67.648 159.207 69.952 159.207 72.464C159.207 75.904 158.703 78.912 157.695 81.488C156.687 84.064 155.167 86.064 153.135 87.488C151.103 88.896 148.543 89.6 145.455 89.6ZM145.359 83.456C146.879 83.456 148.087 82.984 148.983 82.04C149.895 81.08 150.559 79.776 150.975 78.128C151.391 76.464 151.599 74.576 151.599 72.464C151.599 70.24 151.375 68.312 150.927 66.68C150.495 65.032 149.815 63.752 148.887 62.84C147.975 61.928 146.799 61.472 145.359 61.472C143.887 61.472 142.687 61.936 141.759 62.864C140.847 63.792 140.175 65.08 139.743 66.728C139.311 68.376 139.095 70.288 139.095 72.464C139.095 74.608 139.295 76.504 139.695 78.152C140.111 79.8 140.775 81.096 141.687 82.04C142.615 82.984 143.839 83.456 145.359 83.456ZM177.33 89.6C174.834 89.6 172.69 89.168 170.898 88.304C169.122 87.424 167.674 86.208 166.554 84.656C165.45 83.104 164.634 81.288 164.106 79.208C163.594 77.128 163.338 74.888 163.338 72.488C163.338 69.112 163.826 66.136 164.802 63.56C165.778 60.968 167.282 58.944 169.314 57.488C171.362 56.032 173.978 55.304 177.162 55.304C179.578 55.304 181.658 55.728 183.402 56.576C185.146 57.408 186.586 58.592 187.722 60.128C188.858 61.648 189.698 63.456 190.242 65.552C190.802 67.648 191.082 69.952 191.082 72.464C191.082 75.904 190.578 78.912 189.57 81.488C188.562 84.064 187.042 86.064 185.01 87.488C182.978 88.896 180.418 89.6 177.33 89.6ZM177.234 83.456C178.754 83.456 179.962 82.984 180.858 82.04C181.77 81.08 182.434 79.776 182.85 78.128C183.266 76.464 183.474 74.576 183.474 72.464C183.474 70.24 183.25 68.312 182.802 66.68C182.37 65.032 181.69 63.752 180.762 62.84C179.85 61.928 178.674 61.472 177.234 61.472C175.762 61.472 174.562 61.936 173.634 62.864C172.722 63.792 172.05 65.08 171.618 66.728C171.186 68.376 170.97 70.288 170.97 72.464C170.97 74.608 171.17 76.504 171.57 78.152C171.986 79.8 172.65 81.096 173.562 82.04C174.49 82.984 175.714 83.456 177.234 83.456ZM209.205 89.6C206.709 89.6 204.565 89.168 202.773 88.304C200.997 87.424 199.549 86.208 198.429 84.656C197.325 83.104 196.509 81.288 195.981 79.208C195.469 77.128 195.213 74.888 195.213 72.488C195.213 69.112 195.701 66.136 196.677 63.56C197.653 60.968 199.157 58.944 201.189 57.488C203.237 56.032 205.853 55.304 209.037 55.304C211.453 55.304 213.533 55.728 215.277 56.576C217.021 57.408 218.461 58.592 219.597 60.128C220.733 61.648 221.573 63.456 222.117 65.552C222.677 67.648 222.957 69.952 222.957 72.464C222.957 75.904 222.453 78.912 221.445 81.488C220.437 84.064 218.917 86.064 216.885 87.488C214.853 88.896 212.293 89.6 209.205 89.6ZM209.109 83.456C210.629 83.456 211.837 82.984 212.733 82.04C213.645 81.08 214.309 79.776 214.725 78.128C215.141 76.464 215.349 74.576 215.349 72.464C215.349 70.24 215.125 68.312 214.677 66.68C214.245 65.032 213.565 63.752 212.637 62.84C211.725 61.928 210.549 61.472 209.109 61.472C207.637 61.472 206.437 61.936 205.509 62.864C204.597 63.792 203.925 65.08 203.493 66.728C203.061 68.376 202.845 70.288 202.845 72.464C202.845 74.608 203.045 76.504 203.445 78.152C203.861 79.8 204.525 81.096 205.437 82.04C206.365 82.984 207.589 83.456 209.109 83.456ZM236.184 86.504C236.184 84.856 236.184 83.264 236.184 81.728C236.184 80.192 236.184 78.744 236.184 77.384V71.456C236.184 70.096 236.184 68.648 236.184 67.112C236.184 65.576 236.184 63.984 236.184 62.336H242.568C242.568 63.984 242.568 65.576 242.568 67.112C242.568 68.648 242.568 70.096 242.568 71.456V77.384C242.568 78.744 242.568 80.192 242.568 81.728C242.568 83.264 242.568 84.856 242.568 86.504H236.184ZM227.472 77.528V71.312C229.12 71.312 230.712 71.312 232.248 71.312C233.784 71.312 235.224 71.312 236.568 71.312H242.16C243.52 71.312 244.968 71.312 246.504 71.312C248.04 71.312 249.632 71.312 251.28 71.312V77.528C249.632 77.528 248.04 77.528 246.504 77.528C244.968 77.528 243.52 77.528 242.16 77.528H236.568C235.224 77.528 233.784 77.528 232.248 77.528C230.712 77.528 229.12 77.528 227.472 77.528Z" fill="white"/>
<path d="M61.8244 123V113.694H69.8884V123H68.5024V114.918H63.2104V123H61.8244ZM72.9865 125.88V113.694H74.3725V115.566C75.3085 114.186 76.4965 113.496 77.9365 113.496C79.1245 113.496 80.1625 113.94 81.0505 114.828C81.9385 115.704 82.3825 116.88 82.3825 118.356C82.3825 119.808 81.9385 120.978 81.0505 121.866C80.1625 122.754 79.1245 123.198 77.9365 123.198C76.4725 123.198 75.2845 122.538 74.3725 121.218V125.88H72.9865ZM77.6845 121.956C78.6205 121.956 79.4005 121.632 80.0245 120.984C80.6485 120.324 80.9605 119.442 80.9605 118.338C80.9605 117.27 80.6425 116.406 80.0065 115.746C79.3705 115.074 78.5965 114.738 77.6845 114.738C76.7845 114.738 75.9985 115.08 75.3265 115.764C74.6545 116.448 74.3185 117.312 74.3185 118.356C74.3185 119.4 74.6545 120.264 75.3265 120.948C75.9985 121.62 76.7845 121.956 77.6845 121.956ZM92.6616 121.794C91.7256 122.742 90.5676 123.216 89.1876 123.216C87.8076 123.216 86.6556 122.742 85.7316 121.794C84.8196 120.846 84.3636 119.7 84.3636 118.356C84.3636 117.024 84.8256 115.884 85.7496 114.936C86.6856 113.976 87.8436 113.496 89.2236 113.496C90.6036 113.496 91.7556 113.97 92.6796 114.918C93.6036 115.866 94.0656 117.012 94.0656 118.356C94.0656 119.688 93.5976 120.834 92.6616 121.794ZM89.2236 121.974C90.2196 121.974 91.0356 121.626 91.6716 120.93C92.3196 120.234 92.6436 119.376 92.6436 118.356C92.6436 117.348 92.3076 116.49 91.6356 115.782C90.9756 115.074 90.1596 114.72 89.1876 114.72C88.1916 114.72 87.3756 115.074 86.7396 115.782C86.1036 116.478 85.7856 117.336 85.7856 118.356C85.7856 119.364 86.1156 120.222 86.7756 120.93C87.4356 121.626 88.2516 121.974 89.2236 121.974ZM100.77 123.216C99.4263 123.216 98.2923 122.742 97.3683 121.794C96.4563 120.834 96.0003 119.688 96.0003 118.356C96.0003 117.024 96.4563 115.884 97.3683 114.936C98.2923 113.976 99.4263 113.496 100.77 113.496C102.21 113.496 103.452 114.048 104.496 115.152L103.614 116.088C102.75 115.176 101.796 114.72 100.752 114.72C99.8163 114.72 99.0243 115.074 98.3763 115.782C97.7403 116.478 97.4223 117.336 97.4223 118.356C97.4223 119.364 97.7463 120.222 98.3943 120.93C99.0543 121.626 99.8703 121.974 100.842 121.974C101.838 121.974 102.774 121.506 103.65 120.57L104.568 121.416C103.488 122.616 102.222 123.216 100.77 123.216ZM106.86 123V113.694H108.174L111.648 118.59L115.122 113.694H116.454V123H115.05V115.908L111.612 120.624L108.21 115.908V123H106.86ZM127.273 121.794C126.337 122.742 125.179 123.216 123.799 123.216C122.419 123.216 121.267 122.742 120.343 121.794C119.431 120.846 118.975 119.7 118.975 118.356C118.975 117.024 119.437 115.884 120.361 114.936C121.297 113.976 122.455 113.496 123.835 113.496C125.215 113.496 126.367 113.97 127.291 114.918C128.215 115.866 128.677 117.012 128.677 118.356C128.677 119.688 128.209 120.834 127.273 121.794ZM123.835 121.974C124.831 121.974 125.647 121.626 126.283 120.93C126.931 120.234 127.255 119.376 127.255 118.356C127.255 117.348 126.919 116.49 126.247 115.782C125.587 115.074 124.771 114.72 123.799 114.72C122.803 114.72 121.987 115.074 121.351 115.782C120.715 116.478 120.397 117.336 120.397 118.356C120.397 119.364 120.727 120.222 121.387 120.93C122.047 121.626 122.863 121.974 123.835 121.974ZM133.438 123V114.918H130.108V113.694H138.172V114.918H134.842V123H133.438ZM140.188 125.88V113.694H141.574V115.566C142.51 114.186 143.698 113.496 145.138 113.496C146.326 113.496 147.364 113.94 148.252 114.828C149.14 115.704 149.584 116.88 149.584 118.356C149.584 119.808 149.14 120.978 148.252 121.866C147.364 122.754 146.326 123.198 145.138 123.198C143.674 123.198 142.486 122.538 141.574 121.218V125.88H140.188ZM144.886 121.956C145.822 121.956 146.602 121.632 147.226 120.984C147.85 120.324 148.162 119.442 148.162 118.338C148.162 117.27 147.844 116.406 147.208 115.746C146.572 115.074 145.798 114.738 144.886 114.738C143.986 114.738 143.2 115.08 142.528 115.764C141.856 116.448 141.52 117.312 141.52 118.356C141.52 119.4 141.856 120.264 142.528 120.948C143.2 121.62 143.986 121.956 144.886 121.956ZM159.863 121.794C158.927 122.742 157.769 123.216 156.389 123.216C155.009 123.216 153.857 122.742 152.933 121.794C152.021 120.846 151.565 119.7 151.565 118.356C151.565 117.024 152.027 115.884 152.951 114.936C153.887 113.976 155.045 113.496 156.425 113.496C157.805 113.496 158.957 113.97 159.881 114.918C160.805 115.866 161.267 117.012 161.267 118.356C161.267 119.688 160.799 120.834 159.863 121.794ZM156.425 121.974C157.421 121.974 158.237 121.626 158.873 120.93C159.521 120.234 159.845 119.376 159.845 118.356C159.845 117.348 159.509 116.49 158.837 115.782C158.177 115.074 157.361 114.72 156.389 114.72C155.393 114.72 154.577 115.074 153.941 115.782C153.305 116.478 152.987 117.336 152.987 118.356C152.987 119.364 153.317 120.222 153.977 120.93C154.637 121.626 155.453 121.974 156.425 121.974ZM163.777 123V113.694H168.277C169.201 113.694 169.939 113.904 170.491 114.324C171.043 114.744 171.319 115.308 171.319 116.016C171.319 117.012 170.803 117.726 169.771 118.158C171.139 118.53 171.823 119.298 171.823 120.462C171.823 121.242 171.517 121.86 170.905 122.316C170.293 122.772 169.471 123 168.439 123H163.777ZM165.163 121.812H168.259C168.919 121.812 169.441 121.674 169.825 121.398C170.209 121.122 170.401 120.738 170.401 120.246C170.401 119.79 170.197 119.436 169.789 119.184C169.393 118.932 168.823 118.806 168.079 118.806H165.163V121.812ZM165.163 117.69H168.025C168.601 117.69 169.057 117.564 169.393 117.312C169.741 117.048 169.915 116.676 169.915 116.196C169.915 115.8 169.753 115.482 169.429 115.242C169.105 115.002 168.649 114.882 168.061 114.882H165.163V117.69ZM183.915 123.216C182.571 123.216 181.437 122.742 180.513 121.794C179.601 120.834 179.145 119.688 179.145 118.356C179.145 117.024 179.601 115.884 180.513 114.936C181.437 113.976 182.571 113.496 183.915 113.496C185.355 113.496 186.597 114.048 187.641 115.152L186.759 116.088C185.895 115.176 184.941 114.72 183.897 114.72C182.961 114.72 182.169 115.074 181.521 115.782C180.885 116.478 180.567 117.336 180.567 118.356C180.567 119.364 180.891 120.222 181.539 120.93C182.199 121.626 183.015 121.974 183.987 121.974C184.983 121.974 185.919 121.506 186.795 120.57L187.713 121.416C186.633 122.616 185.367 123.216 183.915 123.216ZM192.254 123V114.918H188.924V113.694H196.988V114.918H193.658V123H192.254ZM199.004 125.88V113.694H200.39V115.566C201.326 114.186 202.514 113.496 203.954 113.496C205.142 113.496 206.18 113.94 207.068 114.828C207.956 115.704 208.4 116.88 208.4 118.356C208.4 119.808 207.956 120.978 207.068 121.866C206.18 122.754 205.142 123.198 203.954 123.198C202.49 123.198 201.302 122.538 200.39 121.218V125.88H199.004ZM203.702 121.956C204.638 121.956 205.418 121.632 206.042 120.984C206.666 120.324 206.978 119.442 206.978 118.338C206.978 117.27 206.66 116.406 206.024 115.746C205.388 115.074 204.614 114.738 203.702 114.738C202.802 114.738 202.016 115.08 201.344 115.764C200.672 116.448 200.336 117.312 200.336 118.356C200.336 119.4 200.672 120.264 201.344 120.948C202.016 121.62 202.802 121.956 203.702 121.956ZM213.729 123.198C212.781 123.198 211.965 122.94 211.281 122.424C210.597 121.908 210.255 121.188 210.255 120.264C210.255 119.292 210.615 118.542 211.335 118.014C212.055 117.486 213.021 117.222 214.233 117.222C215.193 117.222 216.141 117.354 217.077 117.618V117.33C217.077 116.514 216.837 115.89 216.357 115.458C215.877 115.026 215.199 114.81 214.323 114.81C213.411 114.81 212.469 115.032 211.497 115.476L211.083 114.342C212.235 113.814 213.363 113.55 214.467 113.55C215.787 113.55 216.789 113.892 217.473 114.576C218.121 115.224 218.445 116.136 218.445 117.312V123H217.077V121.614C216.249 122.67 215.133 123.198 213.729 123.198ZM213.999 122.082C214.863 122.082 215.595 121.848 216.195 121.38C216.795 120.912 217.095 120.312 217.095 119.58V118.716C216.183 118.452 215.277 118.32 214.377 118.32C213.525 118.32 212.859 118.494 212.379 118.842C211.899 119.178 211.659 119.64 211.659 120.228C211.659 120.792 211.881 121.242 212.325 121.578C212.781 121.914 213.339 122.082 213.999 122.082ZM221.381 123V113.694H222.767V117.708H228.131V113.694H229.517V123H228.131V118.932H222.767V123H221.381ZM232.613 123V113.694H233.999V121.056L239.525 113.694H240.875V123H239.489V115.638L233.945 123H232.613ZM251.997 125.322V123H243.969V113.694H245.355V121.776H250.575V113.694H251.961V121.776H253.365L253.149 125.322H251.997ZM84.8605 140V130.694H86.2465V136.058L91.3405 130.694H93.0505L89.1625 134.726L93.1585 140H91.5205L88.2085 135.734L86.2465 137.75V140H84.8605ZM97.8454 140.198C96.8974 140.198 96.0814 139.94 95.3974 139.424C94.7134 138.908 94.3714 138.188 94.3714 137.264C94.3714 136.292 94.7314 135.542 95.4514 135.014C96.1714 134.486 97.1374 134.222 98.3494 134.222C99.3094 134.222 100.257 134.354 101.193 134.618V134.33C101.193 133.514 100.953 132.89 100.473 132.458C99.9934 132.026 99.3154 131.81 98.4394 131.81C97.5274 131.81 96.5854 132.032 95.6134 132.476L95.1994 131.342C96.3514 130.814 97.4794 130.55 98.5834 130.55C99.9034 130.55 100.905 130.892 101.589 131.576C102.237 132.224 102.561 133.136 102.561 134.312V140H101.193V138.614C100.365 139.67 99.2494 140.198 97.8454 140.198ZM98.1154 139.082C98.9794 139.082 99.7114 138.848 100.311 138.38C100.911 137.912 101.211 137.312 101.211 136.58V135.716C100.299 135.452 99.3934 135.32 98.4934 135.32C97.6414 135.32 96.9754 135.494 96.4954 135.842C96.0154 136.178 95.7754 136.64 95.7754 137.228C95.7754 137.792 95.9974 138.242 96.4414 138.578C96.8974 138.914 97.4554 139.082 98.1154 139.082ZM104.309 140L108.125 134.672L104.507 130.694H106.181L110.915 136.094V130.694H112.301V136.094L117.035 130.694H118.709L115.091 134.672L118.907 140H117.287L114.191 135.662L112.301 137.732V140H110.915V137.732L109.025 135.662L105.929 140H104.309ZM119.44 142.322V138.776H120.448C121.276 137.252 121.69 135.098 121.69 132.314V130.694H128.314V138.776H129.718L129.502 142.322H128.35V140H120.826L120.574 142.322H119.44ZM121.924 138.776H126.928V131.918H123.022V133.214C123.022 135.554 122.656 137.408 121.924 138.776ZM133.058 142.934C132.386 142.934 131.726 142.778 131.078 142.466L131.546 141.368C131.99 141.596 132.476 141.71 133.004 141.71C133.424 141.71 133.778 141.578 134.066 141.314C134.354 141.062 134.636 140.612 134.912 139.964L130.682 130.694H132.212L135.596 138.452L138.584 130.694H140.06L136.154 140.306C135.758 141.254 135.32 141.926 134.84 142.322C134.36 142.73 133.766 142.934 133.058 142.934ZM150.245 140.216C148.973 140.216 147.929 139.808 147.113 138.992C146.297 138.176 145.829 137.15 145.709 135.914H143.639V140H142.253V130.694H143.639V134.744H145.709C145.853 133.532 146.333 132.524 147.149 131.72C147.977 130.904 149.021 130.496 150.281 130.496C151.649 130.496 152.753 130.964 153.593 131.9C154.445 132.836 154.871 133.988 154.871 135.356C154.871 136.7 154.445 137.846 153.593 138.794C152.741 139.742 151.625 140.216 150.245 140.216ZM150.281 138.974C151.253 138.974 152.021 138.632 152.585 137.948C153.149 137.252 153.431 136.388 153.431 135.356C153.431 134.324 153.137 133.466 152.549 132.782C151.961 132.086 151.193 131.738 150.245 131.738C149.285 131.738 148.523 132.086 147.959 132.782C147.395 133.466 147.113 134.324 147.113 135.356C147.113 136.388 147.401 137.252 147.977 137.948C148.565 138.632 149.333 138.974 150.281 138.974ZM162.767 140V130.694H164.153V134.708H169.517V130.694H170.903V140H169.517V135.932H164.153V140H162.767ZM178.067 140.216C176.759 140.216 175.655 139.766 174.755 138.866C173.867 137.954 173.423 136.784 173.423 135.356C173.423 134 173.849 132.854 174.701 131.918C175.553 130.97 176.615 130.496 177.887 130.496C179.219 130.496 180.275 130.964 181.055 131.9C181.835 132.836 182.225 134.012 182.225 135.428C182.225 135.608 182.219 135.77 182.207 135.914H174.827C174.923 136.862 175.277 137.618 175.889 138.182C176.513 138.734 177.251 139.01 178.103 139.01C179.219 139.01 180.197 138.572 181.037 137.696L181.901 138.47C180.857 139.634 179.579 140.216 178.067 140.216ZM174.827 134.798H180.821C180.737 133.898 180.437 133.154 179.921 132.566C179.417 131.966 178.727 131.666 177.851 131.666C177.059 131.666 176.381 131.96 175.817 132.548C175.253 133.136 174.923 133.886 174.827 134.798ZM183.284 142.322V138.776H184.292C185.12 137.252 185.534 135.098 185.534 132.314V130.694H192.158V138.776H193.562L193.346 142.322H192.194V140H184.67L184.418 142.322H183.284ZM185.768 138.776H190.772V131.918H186.866V133.214C186.866 135.554 186.5 137.408 185.768 138.776ZM199.53 140.216C198.222 140.216 197.118 139.766 196.218 138.866C195.33 137.954 194.886 136.784 194.886 135.356C194.886 134 195.312 132.854 196.164 131.918C197.016 130.97 198.078 130.496 199.35 130.496C200.682 130.496 201.738 130.964 202.518 131.9C203.298 132.836 203.688 134.012 203.688 135.428C203.688 135.608 203.682 135.77 203.67 135.914H196.29C196.386 136.862 196.74 137.618 197.352 138.182C197.976 138.734 198.714 139.01 199.566 139.01C200.682 139.01 201.66 138.572 202.5 137.696L203.364 138.47C202.32 139.634 201.042 140.216 199.53 140.216ZM196.29 134.798H202.284C202.2 133.898 201.9 133.154 201.384 132.566C200.88 131.966 200.19 131.666 199.314 131.666C198.522 131.666 197.844 131.96 197.28 132.548C196.716 133.136 196.386 133.886 196.29 134.798ZM205.664 140.144C205.304 140.144 204.932 140.096 204.548 140L204.71 138.812C204.986 138.896 205.208 138.938 205.376 138.938C205.64 138.938 205.856 138.908 206.024 138.848C206.192 138.776 206.372 138.602 206.564 138.326C206.768 138.038 206.924 137.636 207.032 137.12C207.14 136.604 207.23 135.872 207.302 134.924C207.386 133.976 207.428 132.824 207.428 131.468V130.694H214.016V140H212.63V131.918H208.742V132.134C208.742 133.55 208.688 134.756 208.58 135.752C208.472 136.748 208.334 137.528 208.166 138.092C208.01 138.656 207.788 139.094 207.5 139.406C207.212 139.718 206.93 139.916 206.654 140C206.39 140.096 206.06 140.144 205.664 140.144ZM225.11 140.216C223.838 140.216 222.794 139.808 221.978 138.992C221.162 138.176 220.694 137.15 220.574 135.914H218.504V140H217.118V130.694H218.504V134.744H220.574C220.718 133.532 221.198 132.524 222.014 131.72C222.842 130.904 223.886 130.496 225.146 130.496C226.514 130.496 227.618 130.964 228.458 131.9C229.31 132.836 229.736 133.988 229.736 135.356C229.736 136.7 229.31 137.846 228.458 138.794C227.606 139.742 226.49 140.216 225.11 140.216ZM225.146 138.974C226.118 138.974 226.886 138.632 227.45 137.948C228.014 137.252 228.296 136.388 228.296 135.356C228.296 134.324 228.002 133.466 227.414 132.782C226.826 132.086 226.058 131.738 225.11 131.738C224.15 131.738 223.388 132.086 222.824 132.782C222.26 133.466 221.978 134.324 221.978 135.356C221.978 136.388 222.266 137.252 222.842 137.948C223.43 138.632 224.198 138.974 225.146 138.974Z" fill="white"/>
<path d="M404.103 89V84.008C404.983 83.256 405.855 82.512 406.719 81.776C407.599 81.04 408.479 80.304 409.359 79.568C411.407 77.84 413.167 76.224 414.639 74.72C416.111 73.216 417.239 71.768 418.023 70.376C418.807 68.984 419.199 67.584 419.199 66.176C419.199 64.64 418.767 63.488 417.903 62.72C417.039 61.936 415.735 61.544 413.991 61.544C413.239 61.544 412.463 61.632 411.663 61.808C410.879 61.968 410.087 62.208 409.287 62.528C408.487 62.832 407.687 63.192 406.887 63.608C406.103 64.024 405.335 64.488 404.583 65L403.935 57.944C404.671 57.592 405.479 57.264 406.359 56.96C407.255 56.64 408.199 56.36 409.191 56.12C410.199 55.864 411.231 55.664 412.287 55.52C413.359 55.376 414.431 55.304 415.503 55.304C417.935 55.304 419.991 55.704 421.671 56.504C423.367 57.288 424.647 58.424 425.511 59.912C426.391 61.384 426.831 63.152 426.831 65.216C426.831 66.912 426.479 68.6 425.775 70.28C425.071 71.944 423.999 73.616 422.559 75.296C421.135 76.976 419.327 78.672 417.135 80.384L412.407 84.104L411.495 82.664H417.447C419.079 82.664 420.711 82.664 422.343 82.664C423.975 82.664 425.599 82.664 427.215 82.664V89H404.103ZM445.166 89.6C442.67 89.6 440.526 89.168 438.734 88.304C436.958 87.424 435.51 86.208 434.39 84.656C433.286 83.104 432.47 81.288 431.942 79.208C431.43 77.128 431.174 74.888 431.174 72.488C431.174 69.112 431.662 66.136 432.638 63.56C433.614 60.968 435.118 58.944 437.15 57.488C439.198 56.032 441.814 55.304 444.998 55.304C447.414 55.304 449.494 55.728 451.238 56.576C452.982 57.408 454.422 58.592 455.558 60.128C456.694 61.648 457.534 63.456 458.078 65.552C458.638 67.648 458.918 69.952 458.918 72.464C458.918 75.904 458.414 78.912 457.406 81.488C456.398 84.064 454.878 86.064 452.846 87.488C450.814 88.896 448.254 89.6 445.166 89.6ZM445.07 83.456C446.59 83.456 447.798 82.984 448.694 82.04C449.606 81.08 450.27 79.776 450.686 78.128C451.102 76.464 451.31 74.576 451.31 72.464C451.31 70.24 451.086 68.312 450.638 66.68C450.206 65.032 449.526 63.752 448.598 62.84C447.686 61.928 446.51 61.472 445.07 61.472C443.598 61.472 442.398 61.936 441.47 62.864C440.558 63.792 439.886 65.08 439.454 66.728C439.022 68.376 438.806 70.288 438.806 72.464C438.806 74.608 439.006 76.504 439.406 78.152C439.822 79.8 440.486 81.096 441.398 82.04C442.326 82.984 443.55 83.456 445.07 83.456Z" fill="white"/>
<path d="M329.556 123V113.694H330.942V119.058L336.036 113.694H337.746L333.858 117.726L337.854 123H336.216L332.904 118.734L330.942 120.75V123H329.556ZM339.769 125.88V113.694H341.155V115.566C342.091 114.186 343.279 113.496 344.719 113.496C345.907 113.496 346.945 113.94 347.833 114.828C348.721 115.704 349.165 116.88 349.165 118.356C349.165 119.808 348.721 120.978 347.833 121.866C346.945 122.754 345.907 123.198 344.719 123.198C343.255 123.198 342.067 122.538 341.155 121.218V125.88H339.769ZM344.467 121.956C345.403 121.956 346.183 121.632 346.807 120.984C347.431 120.324 347.743 119.442 347.743 118.338C347.743 117.27 347.425 116.406 346.789 115.746C346.153 115.074 345.379 114.738 344.467 114.738C343.567 114.738 342.781 115.08 342.109 115.764C341.437 116.448 341.101 117.312 341.101 118.356C341.101 119.4 341.437 120.264 342.109 120.948C342.781 121.62 343.567 121.956 344.467 121.956ZM353.162 125.934C352.49 125.934 351.83 125.778 351.182 125.466L351.65 124.368C352.094 124.596 352.58 124.71 353.108 124.71C353.528 124.71 353.882 124.578 354.17 124.314C354.458 124.062 354.74 123.612 355.016 122.964L350.786 113.694H352.316L355.7 121.452L358.688 113.694H360.164L356.258 123.306C355.862 124.254 355.424 124.926 354.944 125.322C354.464 125.73 353.87 125.934 353.162 125.934ZM362.357 123V113.694H370.421V123H369.035V114.918H363.743V123H362.357ZM373.519 123V113.694H374.905V117.708H380.269V113.694H381.655V123H380.269V118.932H374.905V123H373.519ZM388.819 123.216C387.511 123.216 386.407 122.766 385.507 121.866C384.619 120.954 384.175 119.784 384.175 118.356C384.175 117 384.601 115.854 385.453 114.918C386.305 113.97 387.367 113.496 388.639 113.496C389.971 113.496 391.027 113.964 391.807 114.9C392.587 115.836 392.977 117.012 392.977 118.428C392.977 118.608 392.971 118.77 392.959 118.914H385.579C385.675 119.862 386.029 120.618 386.641 121.182C387.265 121.734 388.003 122.01 388.855 122.01C389.971 122.01 390.949 121.572 391.789 120.696L392.653 121.47C391.609 122.634 390.331 123.216 388.819 123.216ZM385.579 117.798H391.573C391.489 116.898 391.189 116.154 390.673 115.566C390.169 114.966 389.479 114.666 388.603 114.666C387.811 114.666 387.133 114.96 386.569 115.548C386.005 116.136 385.675 116.886 385.579 117.798ZM395.403 123V113.694H396.789V121.056L402.315 113.694H403.665V123H402.279V115.638L396.735 123H395.403ZM401.163 111.75C400.707 112.158 400.149 112.362 399.489 112.362C398.829 112.362 398.265 112.158 397.797 111.75C397.341 111.342 397.059 110.814 396.951 110.166L397.905 109.968C398.145 110.808 398.673 111.228 399.489 111.228C400.305 111.228 400.833 110.808 401.073 109.968L402.027 110.166C401.919 110.814 401.631 111.342 401.163 111.75ZM406.759 123V113.694H408.145V121.776H412.681V113.694H414.067V121.776H418.603V113.694H420.007V123H406.759ZM423.107 123V113.694H424.493V121.056L430.019 113.694H431.369V123H429.983V115.638L424.439 123H423.107ZM433.616 123L437.27 118.266L433.76 113.694H435.344L438.098 117.294L440.852 113.694H442.4L438.872 118.23L442.544 123H440.942L438.062 119.202L435.164 123H433.616ZM450.194 125.88V113.694H451.58V115.566C452.516 114.186 453.704 113.496 455.144 113.496C456.332 113.496 457.37 113.94 458.258 114.828C459.146 115.704 459.59 116.88 459.59 118.356C459.59 119.808 459.146 120.978 458.258 121.866C457.37 122.754 456.332 123.198 455.144 123.198C453.68 123.198 452.492 122.538 451.58 121.218V125.88H450.194ZM454.892 121.956C455.828 121.956 456.608 121.632 457.232 120.984C457.856 120.324 458.168 119.442 458.168 118.338C458.168 117.27 457.85 116.406 457.214 115.746C456.578 115.074 455.804 114.738 454.892 114.738C453.992 114.738 453.206 115.08 452.534 115.764C451.862 116.448 451.526 117.312 451.526 118.356C451.526 119.4 451.862 120.264 452.534 120.948C453.206 121.62 453.992 121.956 454.892 121.956ZM466.216 123.216C464.908 123.216 463.804 122.766 462.904 121.866C462.016 120.954 461.572 119.784 461.572 118.356C461.572 117 461.998 115.854 462.85 114.918C463.702 113.97 464.764 113.496 466.036 113.496C467.368 113.496 468.424 113.964 469.204 114.9C469.984 115.836 470.374 117.012 470.374 118.428C470.374 118.608 470.368 118.77 470.356 118.914H462.976C463.072 119.862 463.426 120.618 464.038 121.182C464.662 121.734 465.4 122.01 466.252 122.01C467.368 122.01 468.346 121.572 469.186 120.696L470.05 121.47C469.006 122.634 467.728 123.216 466.216 123.216ZM462.976 117.798H468.97C468.886 116.898 468.586 116.154 468.07 115.566C467.566 114.966 466.876 114.666 466 114.666C465.208 114.666 464.53 114.96 463.966 115.548C463.402 116.136 463.072 116.886 462.976 117.798ZM472.8 123V113.694H479.118V114.918H474.186V123H472.8ZM481.132 123V113.694H482.518V121.056L488.044 113.694H489.394V123H488.008V115.638L482.464 123H481.132ZM500.209 121.794C499.273 122.742 498.115 123.216 496.735 123.216C495.355 123.216 494.203 122.742 493.279 121.794C492.367 120.846 491.911 119.7 491.911 118.356C491.911 117.024 492.373 115.884 493.297 114.936C494.233 113.976 495.391 113.496 496.771 113.496C498.151 113.496 499.303 113.97 500.227 114.918C501.151 115.866 501.613 117.012 501.613 118.356C501.613 119.688 501.145 120.834 500.209 121.794ZM496.771 121.974C497.767 121.974 498.583 121.626 499.219 120.93C499.867 120.234 500.191 119.376 500.191 118.356C500.191 117.348 499.855 116.49 499.183 115.782C498.523 115.074 497.707 114.72 496.735 114.72C495.739 114.72 494.923 115.074 494.287 115.782C493.651 116.478 493.333 117.336 493.333 118.356C493.333 119.364 493.663 120.222 494.323 120.93C494.983 121.626 495.799 121.974 496.771 121.974ZM504.124 123V113.694H505.51V117.708H510.874V113.694H512.26V123H510.874V118.932H505.51V123H504.124ZM523.079 121.794C522.143 122.742 520.985 123.216 519.605 123.216C518.225 123.216 517.073 122.742 516.149 121.794C515.237 120.846 514.781 119.7 514.781 118.356C514.781 117.024 515.243 115.884 516.167 114.936C517.103 113.976 518.261 113.496 519.641 113.496C521.021 113.496 522.173 113.97 523.097 114.918C524.021 115.866 524.483 117.012 524.483 118.356C524.483 119.688 524.015 120.834 523.079 121.794ZM519.641 121.974C520.637 121.974 521.453 121.626 522.089 120.93C522.737 120.234 523.061 119.376 523.061 118.356C523.061 117.348 522.725 116.49 522.053 115.782C521.393 115.074 520.577 114.72 519.605 114.72C518.609 114.72 517.793 115.074 517.157 115.782C516.521 116.478 516.203 117.336 516.203 118.356C516.203 119.364 516.533 120.222 517.193 120.93C517.853 121.626 518.669 121.974 519.641 121.974ZM526.993 123V113.694H531.493C532.417 113.694 533.155 113.904 533.707 114.324C534.259 114.744 534.535 115.308 534.535 116.016C534.535 117.012 534.019 117.726 532.987 118.158C534.355 118.53 535.039 119.298 535.039 120.462C535.039 121.242 534.733 121.86 534.121 122.316C533.509 122.772 532.687 123 531.655 123H526.993ZM528.379 121.812H531.475C532.135 121.812 532.657 121.674 533.041 121.398C533.425 121.122 533.617 120.738 533.617 120.246C533.617 119.79 533.413 119.436 533.005 119.184C532.609 118.932 532.039 118.806 531.295 118.806H528.379V121.812ZM528.379 117.69H531.241C531.817 117.69 532.273 117.564 532.609 117.312C532.957 117.048 533.131 116.676 533.131 116.196C533.131 115.8 532.969 115.482 532.645 115.242C532.321 115.002 531.865 114.882 531.277 114.882H528.379V117.69ZM381.434 140V127.4H382.856V134.924L390.092 127.4H391.928L386.528 132.908L392.162 140H390.38L385.538 133.898L382.856 136.616V140H381.434ZM396.91 140.198C395.962 140.198 395.146 139.94 394.462 139.424C393.778 138.908 393.436 138.188 393.436 137.264C393.436 136.292 393.796 135.542 394.516 135.014C395.236 134.486 396.202 134.222 397.414 134.222C398.374 134.222 399.322 134.354 400.258 134.618V134.33C400.258 133.514 400.018 132.89 399.538 132.458C399.058 132.026 398.38 131.81 397.504 131.81C396.592 131.81 395.65 132.032 394.678 132.476L394.264 131.342C395.416 130.814 396.544 130.55 397.648 130.55C398.968 130.55 399.97 130.892 400.654 131.576C401.302 132.224 401.626 133.136 401.626 134.312V140H400.258V138.614C399.43 139.67 398.314 140.198 396.91 140.198ZM397.18 139.082C398.044 139.082 398.776 138.848 399.376 138.38C399.976 137.912 400.276 137.312 400.276 136.58V135.716C399.364 135.452 398.458 135.32 397.558 135.32C396.706 135.32 396.04 135.494 395.56 135.842C395.08 136.178 394.84 136.64 394.84 137.228C394.84 137.792 395.062 138.242 395.506 138.578C395.962 138.914 396.52 139.082 397.18 139.082ZM407.514 140.216C406.086 140.216 404.802 139.754 403.662 138.83L404.364 137.804C405.312 138.608 406.35 139.01 407.478 139.01C408.114 139.01 408.654 138.866 409.098 138.578C409.554 138.278 409.782 137.87 409.782 137.354C409.782 136.874 409.578 136.502 409.17 136.238C408.762 135.962 408.186 135.824 407.442 135.824H406.2V134.69H407.46C408.072 134.69 408.57 134.546 408.954 134.258C409.338 133.958 409.53 133.568 409.53 133.088C409.53 132.668 409.338 132.332 408.954 132.08C408.582 131.828 408.102 131.702 407.514 131.702C406.41 131.702 405.468 132.014 404.688 132.638L404.004 131.666C405.012 130.886 406.212 130.496 407.604 130.496C408.636 130.496 409.452 130.73 410.052 131.198C410.664 131.654 410.97 132.248 410.97 132.98C410.97 134 410.472 134.714 409.476 135.122C410.628 135.53 411.204 136.292 411.204 137.408C411.204 138.188 410.868 138.854 410.196 139.406C409.524 139.946 408.63 140.216 407.514 140.216ZM416.545 140.198C415.597 140.198 414.781 139.94 414.097 139.424C413.413 138.908 413.071 138.188 413.071 137.264C413.071 136.292 413.431 135.542 414.151 135.014C414.871 134.486 415.837 134.222 417.049 134.222C418.009 134.222 418.957 134.354 419.893 134.618V134.33C419.893 133.514 419.653 132.89 419.173 132.458C418.693 132.026 418.015 131.81 417.139 131.81C416.227 131.81 415.285 132.032 414.313 132.476L413.899 131.342C415.051 130.814 416.179 130.55 417.283 130.55C418.603 130.55 419.605 130.892 420.289 131.576C420.937 132.224 421.261 133.136 421.261 134.312V140H419.893V138.614C419.065 139.67 417.949 140.198 416.545 140.198ZM416.815 139.082C417.679 139.082 418.411 138.848 419.011 138.38C419.611 137.912 419.911 137.312 419.911 136.58V135.716C418.999 135.452 418.093 135.32 417.193 135.32C416.341 135.32 415.675 135.494 415.195 135.842C414.715 136.178 414.475 136.64 414.475 137.228C414.475 137.792 414.697 138.242 415.141 138.578C415.597 138.914 416.155 139.082 416.815 139.082ZM423.35 140L427.004 135.266L423.494 130.694H425.078L427.832 134.294L430.586 130.694H432.134L428.606 135.23L432.278 140H430.676L427.796 136.202L424.898 140H423.35ZM438.726 140.216C437.382 140.216 436.248 139.742 435.324 138.794C434.412 137.834 433.956 136.688 433.956 135.356C433.956 134.024 434.412 132.884 435.324 131.936C436.248 130.976 437.382 130.496 438.726 130.496C440.166 130.496 441.408 131.048 442.452 132.152L441.57 133.088C440.706 132.176 439.752 131.72 438.708 131.72C437.772 131.72 436.98 132.074 436.332 132.782C435.696 133.478 435.378 134.336 435.378 135.356C435.378 136.364 435.702 137.222 436.35 137.93C437.01 138.626 437.826 138.974 438.798 138.974C439.794 138.974 440.73 138.506 441.606 137.57L442.524 138.416C441.444 139.616 440.178 140.216 438.726 140.216ZM447.066 140V131.918H443.736V130.694H451.8V131.918H448.47V140H447.066ZM456.588 140.198C455.64 140.198 454.824 139.94 454.14 139.424C453.456 138.908 453.114 138.188 453.114 137.264C453.114 136.292 453.474 135.542 454.194 135.014C454.914 134.486 455.88 134.222 457.092 134.222C458.052 134.222 459 134.354 459.936 134.618V134.33C459.936 133.514 459.696 132.89 459.216 132.458C458.736 132.026 458.058 131.81 457.182 131.81C456.27 131.81 455.328 132.032 454.356 132.476L453.942 131.342C455.094 130.814 456.222 130.55 457.326 130.55C458.646 130.55 459.648 130.892 460.332 131.576C460.98 132.224 461.304 133.136 461.304 134.312V140H459.936V138.614C459.108 139.67 457.992 140.198 456.588 140.198ZM456.858 139.082C457.722 139.082 458.454 138.848 459.054 138.38C459.654 137.912 459.954 137.312 459.954 136.58V135.716C459.042 135.452 458.136 135.32 457.236 135.32C456.384 135.32 455.718 135.494 455.238 135.842C454.758 136.178 454.518 136.64 454.518 137.228C454.518 137.792 454.74 138.242 455.184 138.578C455.64 138.914 456.198 139.082 456.858 139.082ZM464.239 140V130.694H465.625V134.708H470.989V130.694H472.375V140H470.989V135.932H465.625V140H464.239ZM478.244 140.198C477.296 140.198 476.48 139.94 475.796 139.424C475.112 138.908 474.77 138.188 474.77 137.264C474.77 136.292 475.13 135.542 475.85 135.014C476.57 134.486 477.536 134.222 478.748 134.222C479.708 134.222 480.656 134.354 481.592 134.618V134.33C481.592 133.514 481.352 132.89 480.872 132.458C480.392 132.026 479.714 131.81 478.838 131.81C477.926 131.81 476.984 132.032 476.012 132.476L475.598 131.342C476.75 130.814 477.878 130.55 478.982 130.55C480.302 130.55 481.304 130.892 481.988 131.576C482.636 132.224 482.96 133.136 482.96 134.312V140H481.592V138.614C480.764 139.67 479.648 140.198 478.244 140.198ZM478.514 139.082C479.378 139.082 480.11 138.848 480.71 138.38C481.31 137.912 481.61 137.312 481.61 136.58V135.716C480.698 135.452 479.792 135.32 478.892 135.32C478.04 135.32 477.374 135.494 476.894 135.842C476.414 136.178 476.174 136.64 476.174 137.228C476.174 137.792 476.396 138.242 476.84 138.578C477.296 138.914 477.854 139.082 478.514 139.082Z" fill="white"/>
<path d="M652.361 89V84.008C653.241 83.256 654.113 82.512 654.977 81.776C655.857 81.04 656.737 80.304 657.617 79.568C659.665 77.84 661.425 76.224 662.897 74.72C664.369 73.216 665.497 71.768 666.281 70.376C667.065 68.984 667.457 67.584 667.457 66.176C667.457 64.64 667.025 63.488 666.161 62.72C665.297 61.936 663.993 61.544 662.249 61.544C661.497 61.544 660.721 61.632 659.921 61.808C659.137 61.968 658.345 62.208 657.545 62.528C656.745 62.832 655.945 63.192 655.145 63.608C654.361 64.024 653.593 64.488 652.841 65L652.193 57.944C652.929 57.592 653.737 57.264 654.617 56.96C655.513 56.64 656.457 56.36 657.449 56.12C658.457 55.864 659.489 55.664 660.545 55.52C661.617 55.376 662.689 55.304 663.761 55.304C666.193 55.304 668.249 55.704 669.929 56.504C671.625 57.288 672.905 58.424 673.769 59.912C674.649 61.384 675.089 63.152 675.089 65.216C675.089 66.912 674.737 68.6 674.033 70.28C673.329 71.944 672.257 73.616 670.817 75.296C669.393 76.976 667.585 78.672 665.393 80.384L660.665 84.104L659.753 82.664H665.705C667.337 82.664 668.969 82.664 670.601 82.664C672.233 82.664 673.857 82.664 675.473 82.664V89H652.361ZM693.424 89.6C690.928 89.6 688.784 89.168 686.992 88.304C685.216 87.424 683.768 86.208 682.648 84.656C681.544 83.104 680.728 81.288 680.2 79.208C679.688 77.128 679.432 74.888 679.432 72.488C679.432 69.112 679.92 66.136 680.896 63.56C681.872 60.968 683.376 58.944 685.408 57.488C687.456 56.032 690.072 55.304 693.256 55.304C695.672 55.304 697.752 55.728 699.496 56.576C701.24 57.408 702.68 58.592 703.816 60.128C704.952 61.648 705.792 63.456 706.336 65.552C706.896 67.648 707.176 69.952 707.176 72.464C707.176 75.904 706.672 78.912 705.664 81.488C704.656 84.064 703.136 86.064 701.104 87.488C699.072 88.896 696.512 89.6 693.424 89.6ZM693.328 83.456C694.848 83.456 696.056 82.984 696.952 82.04C697.864 81.08 698.528 79.776 698.944 78.128C699.36 76.464 699.568 74.576 699.568 72.464C699.568 70.24 699.344 68.312 698.896 66.68C698.464 65.032 697.784 63.752 696.856 62.84C695.944 61.928 694.768 61.472 693.328 61.472C691.856 61.472 690.656 61.936 689.728 62.864C688.816 63.792 688.144 65.08 687.712 66.728C687.28 68.376 687.064 70.288 687.064 72.464C687.064 74.608 687.264 76.504 687.664 78.152C688.08 79.8 688.744 81.096 689.656 82.04C690.584 82.984 691.808 83.456 693.328 83.456ZM725.299 89.6C722.803 89.6 720.659 89.168 718.867 88.304C717.091 87.424 715.643 86.208 714.523 84.656C713.419 83.104 712.603 81.288 712.075 79.208C711.563 77.128 711.307 74.888 711.307 72.488C711.307 69.112 711.795 66.136 712.771 63.56C713.747 60.968 715.251 58.944 717.283 57.488C719.331 56.032 721.947 55.304 725.131 55.304C727.547 55.304 729.627 55.728 731.371 56.576C733.115 57.408 734.555 58.592 735.691 60.128C736.827 61.648 737.667 63.456 738.211 65.552C738.771 67.648 739.051 69.952 739.051 72.464C739.051 75.904 738.547 78.912 737.539 81.488C736.531 84.064 735.011 86.064 732.979 87.488C730.947 88.896 728.387 89.6 725.299 89.6ZM725.203 83.456C726.723 83.456 727.931 82.984 728.827 82.04C729.739 81.08 730.403 79.776 730.819 78.128C731.235 76.464 731.443 74.576 731.443 72.464C731.443 70.24 731.219 68.312 730.771 66.68C730.339 65.032 729.659 63.752 728.731 62.84C727.819 61.928 726.643 61.472 725.203 61.472C723.731 61.472 722.531 61.936 721.603 62.864C720.691 63.792 720.019 65.08 719.587 66.728C719.155 68.376 718.939 70.288 718.939 72.464C718.939 74.608 719.139 76.504 719.539 78.152C719.955 79.8 720.619 81.096 721.531 82.04C722.459 82.984 723.683 83.456 725.203 83.456ZM757.174 89.6C754.678 89.6 752.534 89.168 750.742 88.304C748.966 87.424 747.518 86.208 746.398 84.656C745.294 83.104 744.478 81.288 743.95 79.208C743.438 77.128 743.182 74.888 743.182 72.488C743.182 69.112 743.67 66.136 744.646 63.56C745.622 60.968 747.126 58.944 749.158 57.488C751.206 56.032 753.822 55.304 757.006 55.304C759.422 55.304 761.502 55.728 763.246 56.576C764.99 57.408 766.43 58.592 767.566 60.128C768.702 61.648 769.542 63.456 770.086 65.552C770.646 67.648 770.926 69.952 770.926 72.464C770.926 75.904 770.422 78.912 769.414 81.488C768.406 84.064 766.886 86.064 764.854 87.488C762.822 88.896 760.262 89.6 757.174 89.6ZM757.078 83.456C758.598 83.456 759.806 82.984 760.702 82.04C761.614 81.08 762.278 79.776 762.694 78.128C763.11 76.464 763.318 74.576 763.318 72.464C763.318 70.24 763.094 68.312 762.646 66.68C762.214 65.032 761.534 63.752 760.606 62.84C759.694 61.928 758.518 61.472 757.078 61.472C755.606 61.472 754.406 61.936 753.478 62.864C752.566 63.792 751.894 65.08 751.462 66.728C751.03 68.376 750.814 70.288 750.814 72.464C750.814 74.608 751.014 76.504 751.414 78.152C751.83 79.8 752.494 81.096 753.406 82.04C754.334 82.984 755.558 83.456 757.078 83.456ZM784.153 86.504C784.153 84.856 784.153 83.264 784.153 81.728C784.153 80.192 784.153 78.744 784.153 77.384V71.456C784.153 70.096 784.153 68.648 784.153 67.112C784.153 65.576 784.153 63.984 784.153 62.336H790.537C790.537 63.984 790.537 65.576 790.537 67.112C790.537 68.648 790.537 70.096 790.537 71.456V77.384C790.537 78.744 790.537 80.192 790.537 81.728C790.537 83.264 790.537 84.856 790.537 86.504H784.153ZM775.441 77.528V71.312C777.089 71.312 778.681 71.312 780.217 71.312C781.753 71.312 783.193 71.312 784.537 71.312H790.129C791.489 71.312 792.937 71.312 794.473 71.312C796.009 71.312 797.601 71.312 799.249 71.312V77.528C797.601 77.528 796.009 77.528 794.473 77.528C792.937 77.528 791.489 77.528 790.129 77.528H784.537C783.193 77.528 781.753 77.528 780.217 77.528C778.681 77.528 777.089 77.528 775.441 77.528Z" fill="white"/>
<path d="M623.176 123V113.694H624.562V119.058L629.656 113.694H631.366L627.478 117.726L631.474 123H629.836L626.524 118.734L624.562 120.75V123H623.176ZM632.939 123.144C632.579 123.144 632.207 123.096 631.823 123L631.985 121.812C632.261 121.896 632.483 121.938 632.651 121.938C632.915 121.938 633.131 121.908 633.299 121.848C633.467 121.776 633.647 121.602 633.839 121.326C634.043 121.038 634.199 120.636 634.307 120.12C634.415 119.604 634.505 118.872 634.577 117.924C634.661 116.976 634.703 115.824 634.703 114.468V113.694H641.291V123H639.905V114.918H636.017V115.134C636.017 116.55 635.963 117.756 635.855 118.752C635.747 119.748 635.609 120.528 635.441 121.092C635.285 121.656 635.063 122.094 634.775 122.406C634.487 122.718 634.205 122.916 633.929 123C633.665 123.096 633.335 123.144 632.939 123.144ZM644.393 123V113.694H645.779V121.056L651.305 113.694H652.655V123H651.269V115.638L645.725 123H644.393ZM655.748 123V113.694H657.134V117.708H662.498V113.694H663.884V123H662.498V118.932H657.134V123H655.748ZM666.981 123V113.694H668.367V121.056L673.893 113.694H675.243V123H673.857V115.638L668.313 123H666.981ZM678.336 123V113.694H679.722V119.058L684.816 113.694H686.526L682.638 117.726L686.634 123H684.996L681.684 118.734L679.722 120.75V123H678.336ZM693.945 123V113.694H702.009V123H700.623V114.918H695.331V123H693.945ZM712.83 121.794C711.894 122.742 710.736 123.216 709.356 123.216C707.976 123.216 706.824 122.742 705.9 121.794C704.988 120.846 704.532 119.7 704.532 118.356C704.532 117.024 704.994 115.884 705.918 114.936C706.854 113.976 708.012 113.496 709.392 113.496C710.772 113.496 711.924 113.97 712.848 114.918C713.772 115.866 714.234 117.012 714.234 118.356C714.234 119.688 713.766 120.834 712.83 121.794ZM709.392 121.974C710.388 121.974 711.204 121.626 711.84 120.93C712.488 120.234 712.812 119.376 712.812 118.356C712.812 117.348 712.476 116.49 711.804 115.782C711.144 115.074 710.328 114.72 709.356 114.72C708.36 114.72 707.544 115.074 706.908 115.782C706.272 116.478 705.954 117.336 705.954 118.356C705.954 119.364 706.284 120.222 706.944 120.93C707.604 121.626 708.42 121.974 709.392 121.974ZM722.141 123V113.694H726.641C727.565 113.694 728.303 113.904 728.855 114.324C729.407 114.744 729.683 115.308 729.683 116.016C729.683 117.012 729.167 117.726 728.135 118.158C729.503 118.53 730.187 119.298 730.187 120.462C730.187 121.242 729.881 121.86 729.269 122.316C728.657 122.772 727.835 123 726.803 123H722.141ZM723.527 121.812H726.623C727.283 121.812 727.805 121.674 728.189 121.398C728.573 121.122 728.765 120.738 728.765 120.246C728.765 119.79 728.561 119.436 728.153 119.184C727.757 118.932 727.187 118.806 726.443 118.806H723.527V121.812ZM723.527 117.69H726.389C726.965 117.69 727.421 117.564 727.757 117.312C728.105 117.048 728.279 116.676 728.279 116.196C728.279 115.8 728.117 115.482 727.793 115.242C727.469 115.002 727.013 114.882 726.425 114.882H723.527V117.69ZM736.882 123.216C735.538 123.216 734.404 122.742 733.48 121.794C732.568 120.834 732.112 119.688 732.112 118.356C732.112 117.024 732.568 115.884 733.48 114.936C734.404 113.976 735.538 113.496 736.882 113.496C738.322 113.496 739.564 114.048 740.608 115.152L739.726 116.088C738.862 115.176 737.908 114.72 736.864 114.72C735.928 114.72 735.136 115.074 734.488 115.782C733.852 116.478 733.534 117.336 733.534 118.356C733.534 119.364 733.858 120.222 734.506 120.93C735.166 121.626 735.982 121.974 736.954 121.974C737.95 121.974 738.886 121.506 739.762 120.57L740.68 121.416C739.6 122.616 738.334 123.216 736.882 123.216ZM747.039 123.216C745.731 123.216 744.627 122.766 743.727 121.866C742.839 120.954 742.395 119.784 742.395 118.356C742.395 117 742.821 115.854 743.673 114.918C744.525 113.97 745.587 113.496 746.859 113.496C748.191 113.496 749.247 113.964 750.027 114.9C750.807 115.836 751.197 117.012 751.197 118.428C751.197 118.608 751.191 118.77 751.179 118.914H743.799C743.895 119.862 744.249 120.618 744.861 121.182C745.485 121.734 746.223 122.01 747.075 122.01C748.191 122.01 749.169 121.572 750.009 120.696L750.873 121.47C749.829 122.634 748.551 123.216 747.039 123.216ZM743.799 117.798H749.793C749.709 116.898 749.409 116.154 748.893 115.566C748.389 114.966 747.699 114.666 746.823 114.666C746.031 114.666 745.353 114.96 744.789 115.548C744.225 116.136 743.895 116.886 743.799 117.798ZM753.623 123V113.694H755.009V121.056L760.535 113.694H761.885V123H760.499V115.638L754.955 123H753.623ZM759.383 111.75C758.927 112.158 758.369 112.362 757.709 112.362C757.049 112.362 756.485 112.158 756.017 111.75C755.561 111.342 755.279 110.814 755.171 110.166L756.125 109.968C756.365 110.808 756.893 111.228 757.709 111.228C758.525 111.228 759.053 110.808 759.293 109.968L760.247 110.166C760.139 110.814 759.851 111.342 759.383 111.75ZM774.569 123.216C773.225 123.216 772.091 122.742 771.167 121.794C770.255 120.834 769.799 119.688 769.799 118.356C769.799 117.024 770.255 115.884 771.167 114.936C772.091 113.976 773.225 113.496 774.569 113.496C776.009 113.496 777.251 114.048 778.295 115.152L777.413 116.088C776.549 115.176 775.595 114.72 774.551 114.72C773.615 114.72 772.823 115.074 772.175 115.782C771.539 116.478 771.221 117.336 771.221 118.356C771.221 119.364 771.545 120.222 772.193 120.93C772.853 121.626 773.669 121.974 774.641 121.974C775.637 121.974 776.573 121.506 777.449 120.57L778.367 121.416C777.287 122.616 776.021 123.216 774.569 123.216ZM782.908 123V114.918H779.578V113.694H787.642V114.918H784.312V123H782.908ZM789.658 125.88V113.694H791.044V115.566C791.98 114.186 793.168 113.496 794.608 113.496C795.796 113.496 796.834 113.94 797.722 114.828C798.61 115.704 799.054 116.88 799.054 118.356C799.054 119.808 798.61 120.978 797.722 121.866C796.834 122.754 795.796 123.198 794.608 123.198C793.144 123.198 791.956 122.538 791.044 121.218V125.88H789.658ZM794.356 121.956C795.292 121.956 796.072 121.632 796.696 120.984C797.32 120.324 797.632 119.442 797.632 118.338C797.632 117.27 797.314 116.406 796.678 115.746C796.042 115.074 795.268 114.738 794.356 114.738C793.456 114.738 792.67 115.08 791.998 115.764C791.326 116.448 790.99 117.312 790.99 118.356C790.99 119.4 791.326 120.264 791.998 120.948C792.67 121.62 793.456 121.956 794.356 121.956ZM804.383 123.198C803.435 123.198 802.619 122.94 801.935 122.424C801.251 121.908 800.909 121.188 800.909 120.264C800.909 119.292 801.269 118.542 801.989 118.014C802.709 117.486 803.675 117.222 804.887 117.222C805.847 117.222 806.795 117.354 807.731 117.618V117.33C807.731 116.514 807.491 115.89 807.011 115.458C806.531 115.026 805.853 114.81 804.977 114.81C804.065 114.81 803.123 115.032 802.151 115.476L801.737 114.342C802.889 113.814 804.017 113.55 805.121 113.55C806.441 113.55 807.443 113.892 808.127 114.576C808.775 115.224 809.099 116.136 809.099 117.312V123H807.731V121.614C806.903 122.67 805.787 123.198 804.383 123.198ZM804.653 122.082C805.517 122.082 806.249 121.848 806.849 121.38C807.449 120.912 807.749 120.312 807.749 119.58V118.716C806.837 118.452 805.931 118.32 805.031 118.32C804.179 118.32 803.513 118.494 803.033 118.842C802.553 119.178 802.313 119.64 802.313 120.228C802.313 120.792 802.535 121.242 802.979 121.578C803.435 121.914 803.993 122.082 804.653 122.082ZM812.035 123V113.694H813.421V117.708H818.785V113.694H820.171V123H818.785V118.932H813.421V123H812.035ZM827.336 123.216C826.028 123.216 824.924 122.766 824.024 121.866C823.136 120.954 822.692 119.784 822.692 118.356C822.692 117 823.118 115.854 823.97 114.918C824.822 113.97 825.884 113.496 827.156 113.496C828.488 113.496 829.544 113.964 830.324 114.9C831.104 115.836 831.494 117.012 831.494 118.428C831.494 118.608 831.488 118.77 831.476 118.914H824.096C824.192 119.862 824.546 120.618 825.158 121.182C825.782 121.734 826.52 122.01 827.372 122.01C828.488 122.01 829.466 121.572 830.306 120.696L831.17 121.47C830.126 122.634 828.848 123.216 827.336 123.216ZM824.096 117.798H830.09C830.006 116.898 829.706 116.154 829.19 115.566C828.686 114.966 827.996 114.666 827.12 114.666C826.328 114.666 825.65 114.96 825.086 115.548C824.522 116.136 824.192 116.886 824.096 117.798Z" fill="white"/>
<path d="M932.205 67.832L930.501 62.096C932.677 61.04 934.853 59.992 937.029 58.952C939.205 57.896 941.381 56.84 943.557 55.784L943.293 62.384C941.437 63.296 939.589 64.208 937.749 65.12C935.909 66.016 934.061 66.92 932.205 67.832ZM939.741 89C939.741 87.288 939.741 85.632 939.741 84.032C939.741 82.416 939.741 80.616 939.741 78.632V68.936C939.741 67.288 939.741 65.648 939.741 64.016C939.741 62.368 939.741 60.712 939.741 59.048L943.557 55.784L947.133 56C947.133 57.872 947.133 59.768 947.133 61.688C947.133 63.592 947.133 65.528 947.133 67.496V78.632C947.133 80.616 947.133 82.416 947.133 84.032C947.133 85.632 947.133 87.288 947.133 89H939.741ZM967.252 89.6C964.756 89.6 962.612 89.168 960.82 88.304C959.044 87.424 957.596 86.208 956.476 84.656C955.372 83.104 954.556 81.288 954.028 79.208C953.516 77.128 953.26 74.888 953.26 72.488C953.26 69.112 953.748 66.136 954.724 63.56C955.7 60.968 957.204 58.944 959.236 57.488C961.284 56.032 963.9 55.304 967.084 55.304C969.5 55.304 971.58 55.728 973.324 56.576C975.068 57.408 976.508 58.592 977.644 60.128C978.78 61.648 979.62 63.456 980.164 65.552C980.724 67.648 981.004 69.952 981.004 72.464C981.004 75.904 980.5 78.912 979.492 81.488C978.484 84.064 976.964 86.064 974.932 87.488C972.9 88.896 970.34 89.6 967.252 89.6ZM967.156 83.456C968.676 83.456 969.884 82.984 970.78 82.04C971.692 81.08 972.356 79.776 972.772 78.128C973.188 76.464 973.396 74.576 973.396 72.464C973.396 70.24 973.172 68.312 972.724 66.68C972.292 65.032 971.612 63.752 970.684 62.84C969.772 61.928 968.596 61.472 967.156 61.472C965.684 61.472 964.484 61.936 963.556 62.864C962.644 63.792 961.972 65.08 961.54 66.728C961.108 68.376 960.892 70.288 960.892 72.464C960.892 74.608 961.092 76.504 961.492 78.152C961.908 79.8 962.572 81.096 963.484 82.04C964.412 82.984 965.636 83.456 967.156 83.456ZM999.127 89.6C996.631 89.6 994.487 89.168 992.695 88.304C990.919 87.424 989.471 86.208 988.351 84.656C987.247 83.104 986.431 81.288 985.903 79.208C985.391 77.128 985.135 74.888 985.135 72.488C985.135 69.112 985.623 66.136 986.599 63.56C987.575 60.968 989.079 58.944 991.111 57.488C993.159 56.032 995.775 55.304 998.959 55.304C1001.37 55.304 1003.45 55.728 1005.2 56.576C1006.94 57.408 1008.38 58.592 1009.52 60.128C1010.65 61.648 1011.49 63.456 1012.04 65.552C1012.6 67.648 1012.88 69.952 1012.88 72.464C1012.88 75.904 1012.37 78.912 1011.37 81.488C1010.36 84.064 1008.84 86.064 1006.81 87.488C1004.77 88.896 1002.21 89.6 999.127 89.6ZM999.031 83.456C1000.55 83.456 1001.76 82.984 1002.65 82.04C1003.57 81.08 1004.23 79.776 1004.65 78.128C1005.06 76.464 1005.27 74.576 1005.27 72.464C1005.27 70.24 1005.05 68.312 1004.6 66.68C1004.17 65.032 1003.49 63.752 1002.56 62.84C1001.65 61.928 1000.47 61.472 999.031 61.472C997.559 61.472 996.359 61.936 995.431 62.864C994.519 63.792 993.847 65.08 993.415 66.728C992.983 68.376 992.767 70.288 992.767 72.464C992.767 74.608 992.967 76.504 993.367 78.152C993.783 79.8 994.447 81.096 995.359 82.04C996.287 82.984 997.511 83.456 999.031 83.456ZM1031 89.6C1028.51 89.6 1026.36 89.168 1024.57 88.304C1022.79 87.424 1021.35 86.208 1020.23 84.656C1019.12 83.104 1018.31 81.288 1017.78 79.208C1017.27 77.128 1017.01 74.888 1017.01 72.488C1017.01 69.112 1017.5 66.136 1018.47 63.56C1019.45 60.968 1020.95 58.944 1022.99 57.488C1025.03 56.032 1027.65 55.304 1030.83 55.304C1033.25 55.304 1035.33 55.728 1037.07 56.576C1038.82 57.408 1040.26 58.592 1041.39 60.128C1042.53 61.648 1043.37 63.456 1043.91 65.552C1044.47 67.648 1044.75 69.952 1044.75 72.464C1044.75 75.904 1044.25 78.912 1043.24 81.488C1042.23 84.064 1040.71 86.064 1038.68 87.488C1036.65 88.896 1034.09 89.6 1031 89.6ZM1030.91 83.456C1032.43 83.456 1033.63 82.984 1034.53 82.04C1035.44 81.08 1036.11 79.776 1036.52 78.128C1036.94 76.464 1037.15 74.576 1037.15 72.464C1037.15 70.24 1036.92 68.312 1036.47 66.68C1036.04 65.032 1035.36 63.752 1034.43 62.84C1033.52 61.928 1032.35 61.472 1030.91 61.472C1029.43 61.472 1028.23 61.936 1027.31 62.864C1026.39 63.792 1025.72 65.08 1025.29 66.728C1024.86 68.376 1024.64 70.288 1024.64 72.464C1024.64 74.608 1024.84 76.504 1025.24 78.152C1025.66 79.8 1026.32 81.096 1027.23 82.04C1028.16 82.984 1029.39 83.456 1030.91 83.456ZM1057.98 86.504C1057.98 84.856 1057.98 83.264 1057.98 81.728C1057.98 80.192 1057.98 78.744 1057.98 77.384V71.456C1057.98 70.096 1057.98 68.648 1057.98 67.112C1057.98 65.576 1057.98 63.984 1057.98 62.336H1064.36C1064.36 63.984 1064.36 65.576 1064.36 67.112C1064.36 68.648 1064.36 70.096 1064.36 71.456V77.384C1064.36 78.744 1064.36 80.192 1064.36 81.728C1064.36 83.264 1064.36 84.856 1064.36 86.504H1057.98ZM1049.27 77.528V71.312C1050.92 71.312 1052.51 71.312 1054.04 71.312C1055.58 71.312 1057.02 71.312 1058.36 71.312H1063.96C1065.32 71.312 1066.76 71.312 1068.3 71.312C1069.84 71.312 1071.43 71.312 1073.08 71.312V77.528C1071.43 77.528 1069.84 77.528 1068.3 77.528C1066.76 77.528 1065.32 77.528 1063.96 77.528H1058.36C1057.02 77.528 1055.58 77.528 1054.04 77.528C1052.51 77.528 1050.92 77.528 1049.27 77.528Z" fill="white"/>
<path d="M941.084 123V110.4H946.448C947.924 110.4 949.022 110.772 949.742 111.516C950.282 112.08 950.552 112.764 950.552 113.568C950.552 114.936 949.886 115.908 948.554 116.484C950.354 117.024 951.254 118.05 951.254 119.562C951.254 120.63 950.84 121.47 950.012 122.082C949.184 122.694 948.074 123 946.682 123H941.084ZM942.488 121.722H946.718C947.678 121.722 948.434 121.524 948.986 121.128C949.538 120.72 949.814 120.156 949.814 119.436C949.814 118.74 949.526 118.206 948.95 117.834C948.386 117.462 947.558 117.276 946.466 117.276H942.488V121.722ZM942.488 116.016H946.214C947.09 116.016 947.792 115.818 948.32 115.422C948.848 115.026 949.112 114.462 949.112 113.73C949.112 113.094 948.866 112.596 948.374 112.236C947.894 111.864 947.21 111.678 946.322 111.678H942.488V116.016ZM957.908 123.216C956.6 123.216 955.496 122.766 954.596 121.866C953.708 120.954 953.264 119.784 953.264 118.356C953.264 117 953.69 115.854 954.542 114.918C955.394 113.97 956.456 113.496 957.728 113.496C959.06 113.496 960.116 113.964 960.896 114.9C961.676 115.836 962.066 117.012 962.066 118.428C962.066 118.608 962.06 118.77 962.048 118.914H954.668C954.764 119.862 955.118 120.618 955.73 121.182C956.354 121.734 957.092 122.01 957.944 122.01C959.06 122.01 960.038 121.572 960.878 120.696L961.742 121.47C960.698 122.634 959.42 123.216 957.908 123.216ZM954.668 117.798H960.662C960.578 116.898 960.278 116.154 959.762 115.566C959.258 114.966 958.568 114.666 957.692 114.666C956.9 114.666 956.222 114.96 955.658 115.548C955.094 116.136 954.764 116.886 954.668 117.798ZM966.742 123V114.918H963.412V113.694H971.476V114.918H968.146V123H966.742ZM977.56 123.216C976.252 123.216 975.148 122.766 974.248 121.866C973.36 120.954 972.916 119.784 972.916 118.356C972.916 117 973.342 115.854 974.194 114.918C975.046 113.97 976.108 113.496 977.38 113.496C978.712 113.496 979.768 113.964 980.548 114.9C981.328 115.836 981.718 117.012 981.718 118.428C981.718 118.608 981.712 118.77 981.7 118.914H974.32C974.416 119.862 974.77 120.618 975.382 121.182C976.006 121.734 976.744 122.01 977.596 122.01C978.712 122.01 979.69 121.572 980.53 120.696L981.394 121.47C980.35 122.634 979.072 123.216 977.56 123.216ZM974.32 117.798H980.314C980.23 116.898 979.93 116.154 979.414 115.566C978.91 114.966 978.22 114.666 977.344 114.666C976.552 114.666 975.874 114.96 975.31 115.548C974.746 116.136 974.416 116.886 974.32 117.798ZM984.145 125.88V113.694H985.531V115.566C986.467 114.186 987.655 113.496 989.095 113.496C990.283 113.496 991.321 113.94 992.209 114.828C993.097 115.704 993.541 116.88 993.541 118.356C993.541 119.808 993.097 120.978 992.209 121.866C991.321 122.754 990.283 123.198 989.095 123.198C987.631 123.198 986.443 122.538 985.531 121.218V125.88H984.145ZM988.843 121.956C989.779 121.956 990.559 121.632 991.183 120.984C991.807 120.324 992.119 119.442 992.119 118.338C992.119 117.27 991.801 116.406 991.165 115.746C990.529 115.074 989.755 114.738 988.843 114.738C987.943 114.738 987.157 115.08 986.485 115.764C985.813 116.448 985.477 117.312 985.477 118.356C985.477 119.4 985.813 120.264 986.485 120.948C987.157 121.62 987.943 121.956 988.843 121.956ZM996.098 123V113.694H997.484V121.056L1003.01 113.694H1004.36V123H1002.97V115.638L997.43 123H996.098ZM1007.45 123V113.694H1008.84V117.708H1014.2V113.694H1015.59V123H1014.2V118.932H1008.84V123H1007.45ZM1021.46 123.198C1020.51 123.198 1019.69 122.94 1019.01 122.424C1018.33 121.908 1017.98 121.188 1017.98 120.264C1017.98 119.292 1018.34 118.542 1019.06 118.014C1019.78 117.486 1020.75 117.222 1021.96 117.222C1022.92 117.222 1023.87 117.354 1024.81 117.618V117.33C1024.81 116.514 1024.57 115.89 1024.09 115.458C1023.61 115.026 1022.93 114.81 1022.05 114.81C1021.14 114.81 1020.2 115.032 1019.23 115.476L1018.81 114.342C1019.96 113.814 1021.09 113.55 1022.2 113.55C1023.52 113.55 1024.52 113.892 1025.2 114.576C1025.85 115.224 1026.17 116.136 1026.17 117.312V123H1024.81V121.614C1023.98 122.67 1022.86 123.198 1021.46 123.198ZM1021.73 122.082C1022.59 122.082 1023.32 121.848 1023.92 121.38C1024.52 120.912 1024.82 120.312 1024.82 119.58V118.716C1023.91 118.452 1023.01 118.32 1022.11 118.32C1021.25 118.32 1020.59 118.494 1020.11 118.842C1019.63 119.178 1019.39 119.64 1019.39 120.228C1019.39 120.792 1019.61 121.242 1020.05 121.578C1020.51 121.914 1021.07 122.082 1021.73 122.082ZM1029.11 125.88V113.694H1030.5V115.566C1031.43 114.186 1032.62 113.496 1034.06 113.496C1035.25 113.496 1036.29 113.94 1037.17 114.828C1038.06 115.704 1038.51 116.88 1038.51 118.356C1038.51 119.808 1038.06 120.978 1037.17 121.866C1036.29 122.754 1035.25 123.198 1034.06 123.198C1032.6 123.198 1031.41 122.538 1030.5 121.218V125.88H1029.11ZM1033.81 121.956C1034.74 121.956 1035.52 121.632 1036.15 120.984C1036.77 120.324 1037.08 119.442 1037.08 118.338C1037.08 117.27 1036.77 116.406 1036.13 115.746C1035.49 115.074 1034.72 114.738 1033.81 114.738C1032.91 114.738 1032.12 115.08 1031.45 115.764C1030.78 116.448 1030.44 117.312 1030.44 118.356C1030.44 119.4 1030.78 120.264 1031.45 120.948C1032.12 121.62 1032.91 121.956 1033.81 121.956ZM1048.78 121.794C1047.85 122.742 1046.69 123.216 1045.31 123.216C1043.93 123.216 1042.78 122.742 1041.85 121.794C1040.94 120.846 1040.49 119.7 1040.49 118.356C1040.49 117.024 1040.95 115.884 1041.87 114.936C1042.81 113.976 1043.97 113.496 1045.35 113.496C1046.73 113.496 1047.88 113.97 1048.8 114.918C1049.73 115.866 1050.19 117.012 1050.19 118.356C1050.19 119.688 1049.72 120.834 1048.78 121.794ZM1045.35 121.974C1046.34 121.974 1047.16 121.626 1047.79 120.93C1048.44 120.234 1048.77 119.376 1048.77 118.356C1048.77 117.348 1048.43 116.49 1047.76 115.782C1047.1 115.074 1046.28 114.72 1045.31 114.72C1044.31 114.72 1043.5 115.074 1042.86 115.782C1042.23 116.478 1041.91 117.336 1041.91 118.356C1041.91 119.364 1042.24 120.222 1042.9 120.93C1043.56 121.626 1044.37 121.974 1045.35 121.974ZM1052.7 123V113.694H1057.2C1058.12 113.694 1058.86 113.904 1059.41 114.324C1059.97 114.744 1060.24 115.308 1060.24 116.016C1060.24 117.012 1059.73 117.726 1058.69 118.158C1060.06 118.53 1060.75 119.298 1060.75 120.462C1060.75 121.242 1060.44 121.86 1059.83 122.316C1059.22 122.772 1058.39 123 1057.36 123H1052.7ZM1054.09 121.812H1057.18C1057.84 121.812 1058.36 121.674 1058.75 121.398C1059.13 121.122 1059.32 120.738 1059.32 120.246C1059.32 119.79 1059.12 119.436 1058.71 119.184C1058.32 118.932 1057.75 118.806 1057 118.806H1054.09V121.812ZM1054.09 117.69H1056.95C1057.52 117.69 1057.98 117.564 1058.32 117.312C1058.66 117.048 1058.84 116.676 1058.84 116.196C1058.84 115.8 1058.68 115.482 1058.35 115.242C1058.03 115.002 1057.57 114.882 1056.98 114.882H1054.09V117.69Z" fill="white"/>
</svg>
