<svg width="49" height="72" viewBox="0 0 49 72" fill="none" xmlns="http://www.w3.org/2000/svg">
<path opacity="0.8" d="M48.4797 72H0.879688V60.4L24.3797 36C29.113 31.0667 31.4797 26.9333 31.4797 23.6C31.4797 21.4 30.813 19.6333 29.4797 18.3C28.1464 16.9 26.313 16.2 23.9797 16.2C19.313 16.2 15.8797 18.7333 13.6797 23.8L0.179688 15.9C2.31302 11.0333 5.47969 7.26667 9.67969 4.6C13.8797 1.93333 18.5797 0.599995 23.7797 0.599995C30.3797 0.599995 35.9464 2.63333 40.4797 6.69999C45.1464 10.7 47.4797 16.1 47.4797 22.9C47.4797 30.3 43.8464 37.6333 36.5797 44.9L24.9797 56.6H48.4797V72Z" fill="#74B3AF"/>
</svg>
