<svg width="51" height="72" viewBox="0 0 51 72" fill="none" xmlns="http://www.w3.org/2000/svg">
<path opacity="0.8" d="M47.2195 13L35.1195 28.4C39.6529 30 43.2529 32.5333 45.9195 36C48.6529 39.4 50.0195 43.4 50.0195 48C50.0195 55.3333 47.5529 61.0667 42.6195 65.2C37.6862 69.3333 31.6529 71.4 24.5195 71.4C18.8529 71.4 13.8529 70.1333 9.51953 67.6C5.1862 65 2.01953 61.2667 0.0195314 56.4L13.8195 48.4C15.5529 53.3333 19.1195 55.8 24.5195 55.8C28.4529 56.0667 31.2529 54.8333 32.9195 52.1C34.5862 49.3667 34.5862 46.6333 32.9195 43.9C31.2529 41.1667 28.4529 39.9333 24.5195 40.2H21.2195L15.1195 31.1L27.8195 15H2.21953V-4.76837e-06H47.2195V13Z" fill="#74B3AF"/>
</svg>
