<svg width="51" height="72" viewBox="0 0 51 72" fill="none" xmlns="http://www.w3.org/2000/svg">
<path opacity="0.8" d="M20.8195 24.6H26.5195C33.3862 24.6 39.0862 26.6667 43.6195 30.8C48.2195 34.9333 50.5195 40.6667 50.5195 48C50.5195 55.3333 48.0529 61.0667 43.1195 65.2C38.1862 69.3333 32.1529 71.4 25.0195 71.4C19.0862 71.4 13.9195 70.1333 9.51953 67.6C5.1862 65.0667 2.01953 61.3333 0.0195314 56.4L13.8195 48.4C15.5529 53.3333 19.2862 55.8 25.0195 55.8C29.0195 56.0667 31.8195 54.8333 33.4195 52.1C35.0862 49.3667 35.1195 46.6333 33.5195 43.9C31.9195 41.1667 29.2529 39.9333 25.5195 40.2H3.61953L6.51953 -4.76837e-06H47.0195V15H21.5195L20.8195 24.6Z" fill="#74B3AF"/>
</svg>
