<svg width="101" height="100" viewBox="0 0 101 100" fill="none" xmlns="http://www.w3.org/2000/svg">
<g clip-path="url(#clip0)">
<path d="M50.5 42.3149C51.5787 42.3149 52.4531 41.4405 52.4531 40.3618C52.4531 39.2831 51.5787 38.4087 50.5 38.4087C49.4213 38.4087 48.5469 39.2831 48.5469 40.3618C48.5469 41.4405 49.4213 42.3149 50.5 42.3149Z" fill="#FF8A34"/>
<path d="M69.0501 64.6795L74.0551 66.8266C74.5321 67.0313 75.0713 67.0379 75.5528 66.8453C76.0348 66.6527 76.4206 66.2766 76.6251 65.7994L79.9526 58.0399C80.3786 57.0465 79.9188 55.8961 78.9256 55.4701L73.921 53.3231C74.2098 51.3098 74.2358 49.282 73.9977 47.2643L79.0532 45.2434C80.0565 44.8422 80.545 43.7037 80.144 42.7002L77.0124 34.8606C76.82 34.3785 76.4436 33.9926 75.9667 33.7881C75.4897 33.5832 74.9508 33.5766 74.4688 33.7693L69.4137 35.79C68.1944 34.1627 66.7776 32.7106 65.1801 31.4514L67.327 26.4473C67.753 25.4541 67.2934 24.3037 66.3004 23.8774L58.5428 20.5479C58.0657 20.3434 57.527 20.3365 57.045 20.5289C56.5629 20.7215 56.1772 21.0977 55.9725 21.5748L53.8252 26.5801C51.8098 26.2914 49.7815 26.2656 47.7649 26.5029L45.744 21.4473C45.343 20.4438 44.2042 19.9557 43.2004 20.3565L35.3608 23.4902C34.879 23.6828 34.4932 24.059 34.2887 24.5361C34.0842 25.0131 34.0774 25.552 34.2702 26.0338L36.2909 31.0887C34.6665 32.3059 33.2147 33.7223 31.9534 35.3205L26.9481 33.1734C26.4711 32.969 25.9323 32.9621 25.4502 33.1547C24.9682 33.3473 24.5825 33.7234 24.378 34.2006L21.0504 41.9604C20.6245 42.9535 21.0842 44.1041 22.0774 44.5301L27.0821 46.677C26.793 48.69 26.7672 50.7178 27.0053 52.7358L21.9499 54.7567C20.9465 55.1578 20.4581 56.2963 20.8588 57.2998L23.9905 65.1395C24.1831 65.6215 24.5592 66.0074 25.0364 66.2119C25.5135 66.4166 26.0522 66.4235 26.5342 66.2307L31.5893 64.21C32.8085 65.8373 34.2254 67.2895 35.8227 68.5486L33.676 73.5527C33.2499 74.5459 33.7096 75.6965 34.7026 76.1227L42.4602 79.4522C42.9372 79.6568 43.476 79.6635 43.9581 79.4711C44.4401 79.2785 44.8258 78.9024 45.0305 78.4252L47.1778 73.4197C49.1934 73.7084 51.2217 73.7344 53.2381 73.4971L55.2592 78.5527C55.5653 79.3182 56.3 79.7838 57.0768 79.7838C57.3186 79.7838 57.5645 79.7387 57.8026 79.6436L65.6424 76.5098C66.1245 76.3172 66.51 75.941 66.7145 75.4639C66.9192 74.9869 66.9258 74.4481 66.7331 73.9662L64.7126 68.9113C66.3372 67.6941 67.7885 66.2779 69.0501 64.6795ZM66.7805 61.1633C65.3006 63.3244 63.4417 65.1377 61.2555 66.5529C60.4704 67.0611 60.1547 68.0537 60.502 68.9221L62.3727 73.602L58.1672 75.283L56.2963 70.6031C55.9952 69.8496 55.268 69.3725 54.4803 69.3725C54.3606 69.3725 54.2395 69.3834 54.1186 69.4063C51.5573 69.8867 48.9602 69.8537 46.3993 69.3082C45.485 69.1139 44.5614 69.5922 44.1932 70.4508L42.2057 75.0838L38.0448 73.2981L40.0325 68.6645C40.4012 67.8051 40.1102 66.8047 39.3381 66.2772C37.1809 64.8033 35.3674 62.9445 33.9479 60.7529C33.4395 59.9682 32.4475 59.6527 31.579 59.9996L26.8997 61.8701L25.2198 57.665L29.9001 55.7941C30.768 55.4471 31.2696 54.5346 31.0969 53.6158C30.6155 51.0514 30.6483 48.4555 31.1946 45.9002C31.3901 44.9859 30.9116 44.0611 30.0524 43.6926L25.4188 41.7047L27.2038 37.542L31.8368 39.5295C32.695 39.8979 33.6948 39.6078 34.2229 38.8369C35.7028 36.676 37.5616 34.8627 39.7479 33.4473C40.5329 32.9391 40.8487 31.9465 40.5016 31.0781L38.6309 26.3983L42.8364 24.7172L44.7071 29.3971C45.054 30.265 45.9667 30.7666 46.8852 30.5942C49.4463 30.1135 52.0436 30.1467 54.6043 30.692C55.519 30.8871 56.4422 30.4082 56.8106 29.5496L58.7981 24.9166L62.959 26.7025L60.9711 31.3361C60.6026 32.1955 60.8936 33.1959 61.6657 33.7234C63.8229 35.1973 65.6366 37.0561 67.0559 39.2475C67.5645 40.0324 68.5571 40.3479 69.4249 40.0008L74.1043 38.1303L75.7842 42.3354L71.1038 44.2063C70.2358 44.5533 69.7342 45.4658 69.9069 46.3848C70.3885 48.9485 70.3555 51.5443 69.8092 54.1002C69.6139 55.0145 70.0922 55.9391 70.9514 56.3076L75.585 58.2953L73.7999 62.458L69.167 60.4705C68.3081 60.1018 67.3086 60.392 66.7805 61.1633Z" fill="#FF8A34"/>
<path d="M59.8511 43.1621C59.2138 42.2894 57.9894 42.0988 57.1167 42.7359C56.2437 43.3734 56.053 44.5976 56.6905 45.4705C57.0896 46.017 57.4159 46.6182 57.6609 47.2574C59.1724 51.2062 57.1903 55.6486 53.2425 57.1605C51.3294 57.8935 49.2458 57.8377 47.3747 57.0031C45.504 56.1685 44.0704 54.6555 43.3382 52.7426C42.4132 50.3262 42.763 47.6265 44.2739 45.5211C44.9042 44.643 44.703 43.4203 43.8249 42.7902C42.947 42.1599 41.7241 42.3611 41.0941 43.2392C38.8136 46.417 38.2861 50.4926 39.6829 54.1416C40.789 57.0312 42.9544 59.3168 45.7802 60.5773C47.2894 61.2506 48.89 61.5883 50.4943 61.5883C51.8939 61.5883 53.2962 61.3311 54.6425 60.8152C60.605 58.5318 63.5989 51.8221 61.3159 45.8582C60.9474 44.8953 60.4546 43.9883 59.8511 43.1621Z" fill="#FF8A34"/>
<path d="M12.5742 50C12.5742 46.7369 9.91953 44.082 6.65625 44.082C3.39297 44.082 0.738281 46.7367 0.738281 50C0.738281 53.2633 3.39297 55.918 6.65625 55.918C9.91953 55.918 12.5742 53.2631 12.5742 50ZM4.65215 50C4.65215 48.8949 5.55117 47.9959 6.65625 47.9959C7.76133 47.9959 8.66035 48.8949 8.66035 50C8.66035 51.1051 7.76133 52.0041 6.65625 52.0041C5.55117 52.0041 4.65215 51.1051 4.65215 50Z" fill="#FF8A34"/>
<path d="M94.3475 44.082C91.0844 44.082 88.4297 46.7367 88.4297 50C88.4297 53.2633 91.0844 55.918 94.3475 55.918C97.6106 55.918 100.265 53.2633 100.265 50C100.265 46.7367 97.6106 44.082 94.3475 44.082ZM94.3475 52.0041C93.2424 52.0041 92.3436 51.1051 92.3436 50C92.3436 48.8949 93.2426 47.9959 94.3475 47.9959C95.4523 47.9959 96.3514 48.8949 96.3514 50C96.3514 51.1051 95.4523 52.0041 94.3475 52.0041Z" fill="#FF8A34"/>
<path d="M46.5391 11.8359H54.4609C55.5416 11.8359 56.418 10.9598 56.418 9.87891V1.95703C56.418 0.876172 55.5416 0 54.4609 0H46.5391C45.4582 0 44.582 0.876172 44.582 1.95703V9.87891C44.582 10.9598 45.4582 11.8359 46.5391 11.8359ZM48.4959 3.91387H52.5039V7.92207H48.4959V3.91387Z" fill="#FF8A34"/>
<path d="M52.1966 85.0586C51.847 84.4531 51.2009 84.0801 50.5019 84.0801C49.8026 84.0801 49.1567 84.4531 48.8071 85.0586L41.8755 97.0646C41.5259 97.6701 41.5259 98.4162 41.8755 99.0217C42.2251 99.6271 42.871 100 43.5702 100H57.4335C58.1325 100 58.7786 99.6273 59.1282 99.0217C59.4778 98.4162 59.4778 97.6703 59.1282 97.0646L52.1966 85.0586ZM46.9597 96.0861L50.5019 89.9508L54.0441 96.0859H46.9597V96.0861Z" fill="#FF8A34"/>
<path d="M4.94941 37.2536C5.15312 37.3208 5.35976 37.3528 5.56308 37.3528C6.38456 37.3528 7.14941 36.8315 7.42109 36.0087C9.208 30.596 11.9766 25.6514 15.6502 21.3124C19.0428 17.3052 23.0494 13.9995 27.5715 11.4725L26.6914 15.554C26.4637 16.6104 27.1353 17.6516 28.1918 17.8796C28.3309 17.9096 28.4695 17.9239 28.6062 17.9239C29.5082 17.9239 30.3195 17.2966 30.5174 16.3792L32.3078 8.07547C32.5215 7.08406 31.9426 6.09383 30.9738 5.79363L22.9832 3.31824C21.9508 2.99812 20.8547 3.57625 20.5348 4.60847C20.215 5.6409 20.7926 6.73699 21.825 7.05691L25.4475 8.17898C20.6029 10.9194 16.3064 14.4802 12.6633 18.7835C8.66386 23.5075 5.6496 28.8901 3.70468 34.7817C3.36581 35.8081 3.92304 36.9147 4.94941 37.2536Z" fill="#FF8A34"/>
<path d="M64.6214 9.73361C70.0341 11.5205 74.9787 14.2891 79.3177 17.9627C83.3249 21.3553 86.6306 25.3619 89.1574 29.8838L85.0759 29.0037C84.0193 28.7758 82.9783 29.4477 82.7505 30.5041C82.5228 31.5608 83.1945 32.6018 84.2511 32.8297C84.2511 32.8297 92.8318 34.6645 92.9685 34.6645C93.8093 34.6645 94.5785 34.1196 94.8365 33.2863L97.3118 25.2957C97.6318 24.2633 97.054 23.1672 96.0216 22.8473C94.9896 22.5279 93.8931 23.1051 93.5734 24.1375L92.4511 27.76C89.7107 22.9156 86.1501 18.619 81.8468 14.9756C77.1228 10.9762 71.7402 7.96193 65.8484 6.01701C64.8216 5.67853 63.7154 6.23556 63.3765 7.26193C63.0376 8.2881 63.5953 9.39474 64.6214 9.73361Z" fill="#FF8A34"/>
<path d="M96.055 60.8186C95.0292 60.4806 93.922 61.037 93.5831 62.0636C91.7962 67.4762 89.0275 72.4208 85.354 76.7598C81.9614 80.7669 77.9548 84.0725 73.4329 86.5995L74.313 82.518C74.5407 81.4614 73.8691 80.4204 72.8124 80.1925C71.7562 79.9643 70.7148 80.6364 70.487 81.6928L68.6966 89.9966C68.4829 90.988 69.0618 91.9784 70.0306 92.2784C70.0306 92.2784 78.4091 94.8419 78.6011 94.8419C79.4362 94.8419 80.2099 94.303 80.4698 93.4635C80.7898 92.4311 80.212 91.335 79.1796 91.0151L75.5571 89.893C80.4015 87.1526 84.6982 83.5921 88.3413 79.2887C92.3409 74.5649 95.355 69.1821 97.3001 63.2905C97.6388 62.2643 97.0814 61.1575 96.055 60.8186Z" fill="#FF8A34"/>
<path d="M36.3838 88.3387C30.9711 86.5518 26.0266 83.7832 21.6875 80.1096C17.6805 76.717 14.3748 72.7104 11.8479 68.1883L15.9293 69.0684C16.9856 69.2963 18.0272 68.6242 18.2549 67.568C18.4827 66.5113 17.811 65.4703 16.7545 65.2424L8.45083 63.452C7.45961 63.2383 6.46899 63.8172 6.16899 64.7859L3.6936 72.7766C3.37387 73.809 3.95141 74.9051 4.98383 75.225C5.17661 75.2848 5.37172 75.3133 5.56352 75.3131C6.39848 75.3131 7.17211 74.7742 7.43227 73.9348L8.55434 70.3123C11.2948 75.1568 14.8553 79.4533 19.1588 83.0967C23.8827 87.0961 29.2655 90.1102 35.1571 92.0553C35.3608 92.1225 35.5674 92.1545 35.7707 92.1545C36.5922 92.1545 37.3571 91.6332 37.6288 90.8104C37.9674 89.784 37.41 88.6773 36.3838 88.3387Z" fill="#FF8A34"/>
</g>
<defs>
<clipPath id="clip0">
<rect width="100" height="100" fill="white" transform="translate(0.5)"/>
</clipPath>
</defs>
</svg>
