<svg width="101" height="100" viewBox="0 0 101 100" fill="none" xmlns="http://www.w3.org/2000/svg">
<g clip-path="url(#clip0)">
<path d="M88.0508 56.8394C89.1295 56.8394 90.0039 55.9649 90.0039 54.8862C90.0039 53.8075 89.1295 52.9331 88.0508 52.9331C86.9721 52.9331 86.0977 53.8075 86.0977 54.8862C86.0977 55.9649 86.9721 56.8394 88.0508 56.8394Z" fill="#FF8A34"/>
<path d="M54.0713 29.2006C54.9563 29.8219 56.1768 29.6078 56.7975 28.723L62.7252 20.2772L72.7188 38.8387C73.0569 39.4666 73.7096 39.8607 74.4227 39.8678H74.4418C75.1475 39.8678 75.7992 39.4875 76.1465 38.8721L92.5658 9.75254L93.1897 13.3652C93.3541 14.3176 94.1811 14.9897 95.1158 14.9895C95.2264 14.9895 95.3385 14.9801 95.4512 14.9605C96.5162 14.7766 97.2305 13.7641 97.0465 12.699L95.5237 3.88125C95.4262 3.31719 95.0865 2.82403 94.5946 2.53164C94.1022 2.23946 93.5069 2.17715 92.9649 2.36172L84.4932 5.24434C83.4699 5.59239 82.9229 6.7041 83.2711 7.72735C83.6194 8.75078 84.7315 9.29785 85.7541 8.94961L89.1832 7.78282L74.4815 33.8564L64.6682 15.6297C64.3465 15.0322 63.7381 14.6439 63.0606 14.6039C62.3817 14.5627 61.7332 14.8777 61.3432 15.4332L53.5936 26.4746C52.9727 27.3592 53.1865 28.5797 54.0713 29.2006Z" fill="#FF8A34"/>
<path d="M100.5 28.0156C100.5 26.9348 99.6238 26.0586 98.543 26.0586H88.0494C86.9688 26.0586 86.0924 26.9348 86.0924 28.0156V46.1275C86.0924 47.2084 86.9686 48.0846 88.0494 48.0846C89.1303 48.0846 90.0064 47.2084 90.0064 46.1275V29.9727H96.5861V86.0561H90.0064V63.626C90.0064 62.5451 89.1303 61.6689 88.0494 61.6689C86.9686 61.6689 86.0924 62.5451 86.0924 63.626V86.0559H81.6465V48.3277C81.6465 47.2469 80.7703 46.3707 79.6895 46.3707H69.1957C68.115 46.3707 67.2387 47.2469 67.2387 48.3277V86.0561H62.8164V36.8701C62.8164 35.7893 61.9402 34.9131 60.8594 34.9131H50.3656C49.285 34.9131 48.4086 35.7893 48.4086 36.8701V52.5592C43.3996 46.7943 36.0178 43.1434 27.799 43.1434C12.7465 43.1434 0.5 55.3898 0.5 70.4428C0.5 85.4957 12.7465 97.7422 27.7994 97.7422C35.2064 97.7422 41.9326 94.7756 46.8559 89.9699H98.543C99.6236 89.9699 100.5 89.0938 100.5 88.0129C100.5 87.9426 100.496 87.8732 100.489 87.8049C100.496 87.7365 100.5 87.6672 100.5 87.5969V28.0156ZM71.1527 50.2846H77.7326V86.0561H71.1527V50.2846ZM52.3229 38.8271H58.9027V86.0561H50.1803C53.2783 81.6285 55.099 76.2447 55.099 70.4428C55.099 66.1453 54.0996 62.0775 52.3231 58.4572V38.8271H52.3229ZM29.7564 93.7457V90.5213C29.7564 89.4404 28.8803 88.5643 27.7994 88.5643C26.7186 88.5643 25.8424 89.4404 25.8424 90.5213V93.7457C14.5055 92.802 5.44023 83.7367 4.49648 72.3998H7.7209C8.80156 72.3998 9.67793 71.5236 9.67793 70.4428C9.67793 69.3619 8.80176 68.4857 7.7209 68.4857H4.49648C5.44023 57.1486 14.5055 48.0836 25.8424 47.1398V50.3643C25.8424 51.4451 26.7186 52.3213 27.7994 52.3213C28.8803 52.3213 29.7564 51.4451 29.7564 50.3643V47.1398C41.0936 48.0836 50.1586 57.1488 51.1023 68.4857H47.8779C46.7973 68.4857 45.9209 69.3619 45.9209 70.4428C45.9209 71.5236 46.7971 72.3998 47.8779 72.3998H51.1023C50.1586 83.7367 41.0934 92.802 29.7564 93.7457Z" fill="#FF8A34"/>
<path d="M37.6016 68.4857H29.7578V58.876C29.7578 57.7951 28.8816 56.9189 27.8008 56.9189C26.7199 56.9189 25.8438 57.7951 25.8438 58.876V70.4428C25.8438 71.5236 26.7199 72.3998 27.8008 72.3998H37.6014C38.682 72.3998 39.5584 71.5236 39.5584 70.4428C39.5584 69.3619 38.6822 68.4857 37.6016 68.4857Z" fill="#FF8A34"/>
</g>
<defs>
<clipPath id="clip0">
<rect width="100" height="100" fill="white" transform="translate(0.5)"/>
</clipPath>
</defs>
</svg>
