<svg width="589" height="386" viewBox="0 0 589 386" fill="none" xmlns="http://www.w3.org/2000/svg">
<g clip-path="url(#clip0)">
<path opacity="0.4" d="M68.1062 332.666C43.6412 301.825 -14.1098 201.112 28.547 134.624C135.322 11.0814 229.45 164.715 268.509 94.1721C333.121 -22.517 579.539 -16.0388 517.276 127.454C484.612 202.736 621.328 221.196 570.51 287.979C519.691 354.762 120.455 398.659 68.1062 332.666Z" fill="#C1E3D6"/>
<path d="M392.792 157.122L396.42 148.662L396.506 148.46C396.941 147.427 396.534 146.238 395.56 145.693L388.832 141.928C388.72 141.867 388.617 141.797 388.521 141.721C387.864 141.176 387.559 140.288 387.808 139.459C389.205 134.545 389.609 129.416 388.984 124.35C388.962 124.141 388.97 123.931 389 123.734C389.126 122.98 389.658 122.323 390.393 122.04L396.422 119.784C397.214 119.48 397.749 118.748 397.833 117.944C397.851 117.699 397.841 117.435 397.775 117.176L395.416 108.081C395.129 106.964 394.011 106.237 392.856 106.437L384.408 107.863C383.575 108.001 382.741 107.654 382.258 106.96C381.548 105.972 380.807 105.012 380.001 104.079C378.49 102.327 376.856 100.753 375.122 99.3485L375.114 99.3405C374.391 98.754 374.106 97.8044 374.397 96.9246L377.117 88.6971L377.249 88.2821C377.608 87.2287 377.085 86.0537 376.04 85.6128L367.352 81.918C366.292 81.4751 365.057 81.8841 364.494 82.8856L360.283 90.337C359.816 91.1669 358.868 91.6058 357.944 91.4203C354.019 90.7001 350.001 90.5764 346.038 91.0811C345.028 91.1988 344.072 90.6243 343.709 89.6706L341.006 82.5644C340.591 81.4831 339.44 80.9025 338.332 81.1898L329.154 83.5419C328.07 83.8232 327.385 84.8846 327.573 85.9719L329.242 95.8592C329.389 96.6971 329.038 97.543 328.347 98.0458C327.493 98.6602 326.659 99.3166 325.847 100.013C324.312 101.326 322.911 102.726 321.642 104.198C321.071 104.873 320.151 105.144 319.311 104.857L309.38 101.593C308.282 101.24 307.109 101.77 306.658 102.816L302.928 111.492C302.539 112.412 302.832 113.485 303.608 114.084C303.688 114.144 303.776 114.211 303.874 114.257L312.178 118.912C312.952 119.341 313.401 120.177 313.304 121.05C313.298 121.126 313.292 121.204 313.272 121.28C313.224 121.507 313.176 121.721 313.15 121.958C312.637 124.637 312.421 127.379 312.493 130.118C312.533 131.032 311.956 131.869 311.08 132.189L303.54 135.036C302.469 135.435 301.878 136.586 302.167 137.689L302.688 139.712L304.526 146.768C304.806 147.878 305.901 148.578 307.039 148.394L315.361 146.99C316.249 146.832 317.125 147.261 317.578 148.037C318.758 150.072 320.159 152.045 321.764 153.905C322.955 155.283 324.24 156.57 325.579 157.735L325.005 159.461L322.668 166.543C322.37 167.417 322.676 168.374 323.388 168.913C323.534 169.033 323.699 169.123 323.879 169.196L332.618 172.935C333.656 173.368 334.85 172.949 335.406 171.985L338.274 166.888C338.759 166.028 339.793 165.589 340.749 165.847C344.718 166.918 348.818 167.357 352.893 167.145C353.859 167.094 354.731 167.654 355.046 168.534L358.461 177.518C358.85 178.519 359.926 179.08 360.976 178.81L370.25 176.418C371.35 176.137 372.044 175.07 371.847 173.974L370.106 163.688C369.947 162.804 370.356 161.923 371.13 161.448C372.781 160.436 374.367 159.267 375.894 157.96C376.716 157.258 377.5 156.528 378.247 155.774C378.834 155.185 379.704 154.972 380.5 155.225L390.022 158.349C391.137 158.713 392.325 158.184 392.792 157.122ZM368.037 117.431C372.326 123.692 372.852 130.776 370.493 136.211C362.191 155.247 336.44 153.543 330.603 133.922C329.172 128.881 329.78 123.261 333.433 117.787C341.992 105.11 359.83 105.471 368.037 117.431Z" fill="#C1E3D6"/>
<path d="M274.606 272.804L282.938 258.583L283.134 258.244C284.138 256.507 283.681 254.306 282.072 253.123L270.968 244.951C270.784 244.816 270.615 244.67 270.465 244.512C269.421 243.401 269.076 241.757 269.706 240.339C273.283 231.922 275.145 222.906 275.167 213.773C275.173 213.394 275.233 213.027 275.334 212.682C275.728 211.369 276.817 210.324 278.186 209.981L289.394 207.305C290.867 206.942 291.981 205.761 292.312 204.351C292.4 203.918 292.438 203.449 292.38 202.972L290.221 186.3C289.961 184.251 288.141 182.717 286.044 182.814L270.726 183.479C269.216 183.541 267.811 182.737 267.11 181.4C266.072 179.489 264.969 177.621 263.747 175.788C261.454 172.344 258.904 169.188 256.143 166.311L256.133 166.296C254.978 165.093 254.685 163.347 255.399 161.847L262.063 147.84L262.39 147.131C263.264 145.34 262.594 143.139 260.839 142.124L246.237 133.641C244.454 132.621 242.173 133.074 240.946 134.724L231.805 147.024C230.79 148.394 229.009 148.963 227.409 148.428C220.601 146.281 213.495 145.172 206.346 145.194C204.528 145.178 202.955 143.949 202.526 142.174L199.311 128.959C198.816 126.948 196.904 125.661 194.872 125.926L178.052 128.073C176.063 128.332 174.61 130.064 174.703 132.037L175.462 149.96C175.534 151.478 174.723 152.903 173.384 153.647C171.73 154.551 170.105 155.53 168.505 156.586C165.487 158.579 162.685 160.755 160.107 163.087C158.943 164.161 157.247 164.436 155.822 163.742L138.918 155.752C137.048 154.882 134.847 155.564 133.811 157.322L125.251 171.904C124.357 173.452 124.634 175.421 125.88 176.656C126.011 176.781 126.151 176.921 126.313 177.025L140.019 187.126C141.297 188.057 141.907 189.643 141.54 191.171C141.512 191.307 141.486 191.441 141.43 191.57C141.293 191.965 141.161 192.333 141.063 192.748C139.554 197.392 138.557 202.21 138.074 207.088C137.94 208.72 136.731 210.078 135.102 210.453L121.08 213.839C119.092 214.31 117.785 216.225 118.05 218.246L118.523 221.955L120.212 234.89C120.463 236.923 122.251 238.408 124.313 238.332L139.403 237.678C141.017 237.596 142.474 238.549 143.105 240.028C144.747 243.902 146.795 247.717 149.228 251.369C151.034 254.081 153.026 256.648 155.143 259.014L153.74 261.951L148.01 274.011C147.284 275.495 147.617 277.263 148.759 278.38C148.992 278.623 149.262 278.819 149.567 278.993L164.248 287.561C165.994 288.561 168.211 288.08 169.409 286.494L175.641 278.079C176.693 276.66 178.627 276.108 180.27 276.776C187.077 279.555 194.262 281.243 201.542 281.768C203.268 281.891 204.693 283.078 205.053 284.71L209.112 301.415C209.579 303.28 211.363 304.511 213.291 304.268L230.289 302.071C232.304 301.818 233.775 300.074 233.671 298.085L232.875 279.437C232.793 277.831 233.713 276.359 235.192 275.687C238.351 274.256 241.427 272.531 244.43 270.548C246.045 269.482 247.6 268.361 249.095 267.186C250.27 266.27 251.861 266.085 253.218 266.709L269.427 274.364C271.309 275.26 273.538 274.586 274.606 272.804ZM239.513 196.859C241.599 200.907 243.065 205.504 243.758 210.635C243.918 211.722 243.965 212.953 243.955 214.246C243.838 219.818 242.155 226.563 239.679 230.745C220.691 262.707 175.35 253.987 169.369 217.861C169.279 217.266 169.187 216.672 169.113 216.065C168.383 210.421 170.179 201.731 173.031 196.809C174.53 194.23 176.204 191.91 177.994 189.839C196.018 169.222 227.61 173.807 239.513 196.859Z" fill="#84C7AE"/>
<path d="M79.2629 310.887C79.2629 310.887 78.82 307.454 77.7938 305.413C76.7676 303.372 70.2416 304.67 70.2416 304.67C70.2416 304.67 68.9368 305.784 68.6562 310.981L79.2629 310.887Z" fill="#233862"/>
<path d="M101.494 310.841C99.9609 309.909 100.833 302.959 100.833 302.959C100.833 302.959 107.978 297.269 108.96 301.626C109.942 305.983 115.749 307.938 119.054 308.471C121.335 308.84 122.042 310.097 122.261 310.841H101.494Z" fill="#233862"/>
<path d="M86.6934 260.291C86.984 261.887 87.1684 263.194 87.2185 264.134C87.882 277.03 98.1258 306.518 99.9577 307.206C102.792 308.272 107.255 306.007 109.592 305.267C110.56 304.96 111.214 303.988 110.997 303.003C105.924 279.793 104.061 246.37 103.383 226.583C103.04 216.616 101.323 209.731 101.323 209.731C101.323 209.731 76.3413 203.098 76.193 211.489C76.0587 218.914 84.4647 248.04 86.6934 260.291Z" fill="#213F7A"/>
<path d="M86.6954 260.291L103.383 226.583C103.04 216.616 101.323 209.731 101.323 209.731C101.323 209.731 76.3413 203.098 76.193 211.489C76.0607 218.914 84.4666 248.04 86.6954 260.291Z" fill="#233862"/>
<path d="M92.252 211.519L79.0458 306.787C79.0458 306.787 73.2474 308.18 68.7358 307.067C68.7358 307.067 64.8695 256.399 65.1922 244.147C65.5149 231.898 62.4183 211.369 65.8997 209.107C69.3812 206.842 92.252 211.519 92.252 211.519Z" fill="#213F7A"/>
<path d="M63.3293 209.931C63.2651 210.792 63.8183 211.575 64.6521 211.816C66.494 212.349 68.6186 212.718 72.7133 213.564C76.5595 214.36 81.7366 215.064 88.0962 215.102C98.2118 215.166 102.042 211.696 102.042 211.696C102.477 211.704 101.811 209.597 101.212 199.576C101.01 196.183 100.813 191.88 100.671 186.443C100.543 181.551 100.457 175.738 100.449 168.843C100.439 160.548 87.539 151.624 87.3005 151.624L87.2985 151.628C87.2985 152.823 85.4064 155.026 82.4942 155.217C79.0368 155.442 74.7958 153.729 74.7958 151.748C74.7958 151.728 68.5464 161.699 66.3277 172.324C66.0451 173.671 65.8266 175.092 65.6542 176.588C65.1271 181.091 65.6362 177.877 63.3293 209.931Z" fill="#F99746"/>
<path d="M87.2969 151.624C87.2969 151.624 99.2905 151.523 102.179 155.552C105.065 159.582 111.394 181.26 108.091 188.474C104.788 195.688 98.609 185.49 95.1777 181.073C91.7484 176.652 87.2969 151.624 87.2969 151.624Z" fill="#F99746"/>
<path d="M87.4238 149.801L87.4178 151.036C87.4178 151.036 87.7545 154.896 82.9803 155.459C78.2061 156.023 74.6505 154.749 74.7808 151.77C75.2117 149.464 75.6206 147.084 75.6527 145.176C75.6647 144.468 75.6166 143.714 75.4823 142.866L84.7341 142.683L87.4599 143.126L87.4238 149.801Z" fill="#FFB27D"/>
<path d="M87.4561 143.126L87.42 149.801C86.438 150.256 85.3276 150.533 84.0849 150.533C79.8318 150.533 77.084 147.429 75.6469 145.176C75.6589 144.468 75.6108 143.714 75.4766 142.866L84.7283 142.683L87.4561 143.126Z" fill="#E2915A"/>
<path d="M74.7688 141.384C75.8431 147.135 83.2971 146.946 86.5179 146.585C87.4239 146.485 87.9951 146.369 87.9951 146.369C89.0173 146.098 89.5885 144.494 89.8531 142.395C90.3782 138.239 89.7148 132.141 89.0093 130.582C87.947 128.234 85.9487 125.697 78.4427 127.528C70.9347 129.359 73.3919 134.016 74.7688 141.384Z" fill="#FFB27D"/>
<path d="M99.5646 167.778C99.5646 167.778 104.202 177.974 104.068 181.033C104.068 181.033 101.771 180.955 99.5646 181.609C95.9388 182.685 99.5646 167.778 99.5646 167.778Z" fill="#ED7D2B"/>
<path d="M91.3169 125.106C91.3169 125.106 88.0118 124.853 84.1155 123.167C80.9527 121.799 76.9602 123.307 75.6654 123.985C75.6995 123.778 75.7837 123.494 75.9821 123.209C75.9821 123.209 75.4009 123.62 75.3147 124.193C75.2546 124.236 75.2285 124.266 75.2425 124.276C75.2425 124.276 74.5831 124.157 74.1602 124.346C74.1602 124.346 74.4569 124.304 74.5631 124.494C74.5751 124.514 74.5911 124.532 74.6112 124.546C69.6766 126.92 69.2217 134.682 70.8091 136.478C72.7191 138.639 75.5492 143.447 75.5492 143.447C75.5492 143.447 75.8458 142.355 75.4991 140.454C75.1523 138.553 76.8019 138.553 78.8863 137.687C80.9708 136.823 79.233 134.403 81.0569 132.933C82.8808 131.462 89.5671 132.328 89.4809 131.203C91.9602 130.307 91.3169 125.36 91.3169 125.106Z" fill="#233862"/>
<path d="M73.2578 186.88C75.216 194.709 96.3952 198.753 101.21 199.575C101.007 196.181 100.811 191.878 100.668 186.441L73.2578 186.88Z" fill="#ED7D2B"/>
<path d="M77.9095 189.426C77.707 189.426 73.2014 188.756 72.3937 188.355C71.586 187.954 67.8961 182.731 70.3132 181.392C72.7304 180.053 79.2203 185.408 79.2203 185.408L77.9095 189.426Z" fill="#FFB27D"/>
<path d="M105.317 190.976C105.317 190.976 87.8881 191.918 76.1931 189.424C76.1931 189.424 75.8985 186.06 79.5743 184.566C79.5743 184.566 97.8033 180.72 102.183 181.791C106.562 182.864 105.317 190.976 105.317 190.976Z" fill="#F99746"/>
<path d="M65.2919 177.362C68.9097 181.703 73.6378 185.247 78.8489 186.078L78.8509 186.076C78.893 186.011 80.4283 183.692 80.1417 180.283C80.0094 178.705 79.4843 176.893 78.2436 174.964C77.8608 174.372 77.5221 173.677 77.2194 172.907C74.3733 165.677 74.7962 151.746 74.7962 151.746C74.7962 151.746 62.7084 153.007 58.9424 158.362C56.6334 161.641 59.5757 170.499 65.2919 177.362Z" fill="#F99746"/>
<path d="M86.5196 146.585C87.4255 146.485 87.9967 146.369 87.9967 146.369C89.0189 146.098 89.5901 144.494 89.8547 142.395C87.9386 142.866 87.0587 144.34 86.6939 144.967C86.5276 145.25 86.4935 145.882 86.5196 146.585Z" fill="#E2915A"/>
<path d="M91.3927 149.836C91.3927 149.836 95.5676 142.98 92.3207 142.68C89.0737 142.381 87.769 144.57 87.302 145.372C86.833 146.176 87.4242 149.799 87.4242 149.799L91.3927 149.836Z" fill="#FFB27D"/>
<path d="M75.4794 180.053C75.6077 180.923 75.8682 181.721 76.1909 182.433C77.2111 184.686 78.8486 186.078 78.8486 186.078L78.8506 186.076C89.6917 181.204 91.8864 164.478 92.2532 155.287C92.4015 151.592 92.2532 149.116 92.2532 149.116C87.3628 147.504 85.9878 150.305 85.9878 150.305C85.9878 150.305 80.2135 163.975 77.2171 172.909C76.0707 176.326 75.3331 179.052 75.4794 180.053Z" fill="#F99746"/>
<path d="M65.293 177.362C68.9107 181.703 73.6388 185.246 78.8499 186.078L78.8519 186.076C89.6931 181.205 91.8878 164.478 92.2546 155.287C92.2546 155.287 87.1236 173.809 80.1407 180.283C78.878 181.454 77.5552 182.232 76.1923 182.433C76.1923 182.433 67.3874 179.956 65.5395 177.623C65.4092 177.456 65.327 177.374 65.293 177.362Z" fill="#ED7D2B"/>
<path d="M517.195 277.674C517.195 277.674 511.892 271.515 516.868 267.605C516.868 267.605 520.502 265.414 523.467 265.592C523.467 265.592 519.268 272.6 520.626 273.298C521.985 273.995 524.739 265.153 524.739 265.153C524.739 265.153 533.009 264.355 535.671 265.628C535.671 265.628 528.6 271.387 530.089 271.73C531.578 272.073 539.214 266.42 539.214 266.42C539.214 266.42 546.913 267.724 546.502 272.397C546.091 277.069 543.439 278.513 542.273 278.39C541.106 278.266 534.288 275.675 534.139 276.626C533.991 277.578 538.096 280.684 540.97 280.83C540.97 280.83 535.542 286.787 531.937 285.067C528.329 283.347 528.022 280.622 525.774 279.601C523.525 278.579 521.607 278.581 522.535 279.623C523.463 280.666 527.531 281.678 528.818 283.942C530.105 286.206 531.257 287.732 527.525 287.174C523.793 286.615 517.728 283.896 517.462 280.784C517.195 277.674 517.195 277.674 517.195 277.674Z" fill="#74B3AF"/>
<path d="M542.719 272.522C542.719 272.522 521.813 271.72 517.195 277.672C517.195 277.672 516.175 280.716 513.032 283.487L512.543 284.816C512.543 284.816 516.167 281.013 517.461 280.784C517.459 280.786 515.433 273.412 542.719 272.522Z" fill="#74B3AF"/>
<path d="M513.031 283.489C513.031 283.489 508.543 286.793 508.23 292.694L509.044 292.766C509.044 292.766 510.477 286.663 513.069 284.277C515.66 281.891 513.031 283.489 513.031 283.489Z" fill="#74B3AF"/>
<path d="M498.657 269.929C498.657 269.929 507.091 265.227 503.156 258.847C503.156 258.847 500.008 254.928 496.632 253.921C496.632 253.921 498.432 263.437 496.632 263.661C494.833 263.884 495.396 252.913 495.396 252.913C495.396 252.913 486.511 248.66 483.025 248.995C483.025 248.995 488.537 258.286 486.737 258.063C484.937 257.839 478.752 248.435 478.752 248.435C478.752 248.435 469.643 246.755 468.18 252.129C466.719 257.502 469.08 260.189 470.428 260.524C471.777 260.86 480.438 260.748 480.213 261.867C479.989 262.986 474.14 264.778 470.879 263.77C470.879 263.77 474.479 272.614 479.201 272.167C483.925 271.719 485.386 268.81 488.311 268.584C491.235 268.361 493.371 269.145 491.91 269.927C490.449 270.711 485.501 270.184 483.138 272.181C480.777 274.18 478.864 275.411 483.25 276.307C487.635 277.203 495.508 276.642 497.083 273.285C498.659 269.927 498.657 269.929 498.657 269.929Z" fill="#74B3AF"/>
<path d="M472.34 253.809C472.34 253.809 495.958 261.422 498.658 269.929C498.658 269.929 498.546 273.735 500.907 278.101V279.78C500.907 279.78 498.432 274.071 497.083 273.287C497.083 273.287 502.368 265.899 472.34 253.809Z" fill="#74B3AF"/>
<path d="M500.906 278.101C500.906 278.101 504.548 283.607 502.472 290.308L501.534 290.059C501.534 290.059 502.444 282.677 500.538 278.964C498.633 275.252 500.906 278.101 500.906 278.101Z" fill="#74B3AF"/>
<path d="M512.076 263.445C512.076 263.445 500.956 257.247 506.145 248.836C506.145 248.836 510.296 243.671 514.744 242.342C514.744 242.342 512.373 254.885 514.744 255.18C517.117 255.475 516.375 241.013 516.375 241.013C516.375 241.013 528.088 235.405 532.684 235.848C532.684 235.848 525.421 248.095 527.792 247.8C530.165 247.505 538.318 235.11 538.318 235.11C538.318 235.11 550.328 232.897 552.254 239.98C554.182 247.062 551.067 250.605 549.29 251.048C547.512 251.491 536.095 251.343 536.392 252.82C536.689 254.296 544.397 256.656 548.696 255.329C548.696 255.329 543.952 266.986 537.725 266.398C531.498 265.807 529.571 261.971 525.717 261.676C521.863 261.38 519.045 262.414 520.973 263.447C522.901 264.481 529.423 263.786 532.538 266.42C535.65 269.055 538.172 270.677 532.389 271.858C526.607 273.039 516.229 272.301 514.154 267.874C512.076 263.445 512.076 263.445 512.076 263.445Z" fill="#84C7AE"/>
<path d="M546.768 242.194C546.768 242.194 515.635 252.229 512.078 263.443C512.078 263.443 512.226 268.461 509.113 274.216V276.431C509.113 276.431 512.374 268.906 514.154 267.872C514.15 267.872 507.183 258.133 546.768 242.194Z" fill="#84C7AE"/>
<path d="M509.111 274.216C509.111 274.216 504.309 281.474 507.047 290.308L508.281 289.977C508.281 289.977 507.083 280.247 509.594 275.354C512.106 270.46 509.111 274.216 509.111 274.216Z" fill="#84C7AE"/>
<path d="M511.702 309.466C523.732 309.466 533.483 299.76 533.483 287.786H489.922C489.922 299.758 499.673 309.466 511.702 309.466Z" fill="#84C7AE"/>
<path d="M533.783 310.57H489.621C489.621 309.094 490.824 307.895 492.309 307.895H531.098C532.581 307.895 533.783 309.092 533.783 310.57Z" fill="#84C7AE"/>
<path d="M533.975 287.786H489.203V288.451H533.975V287.786Z" fill="#74B3AF"/>
<path d="M435.949 143.215C432.742 141.559 430.174 142.601 430.174 142.601C420.366 141.453 417.503 152.841 417.636 156.759C417.768 160.677 418.217 164.885 413.838 169.976C401.183 184.68 427.685 185.328 427.685 185.328C427.91 173.581 442.058 177.867 441.436 179.058C459.573 183.389 443.24 146.98 435.949 143.215Z" fill="#163560"/>
<path d="M398.112 192.189C398.112 192.189 396.386 189.576 394.997 189.524C393.608 189.472 391.033 188.756 391.239 189.268C391.445 189.781 393.041 189.833 393.195 190.14C393.35 190.447 390.826 190.908 390.105 190.96C389.383 191.012 387.683 190.96 387.736 191.319C387.788 191.678 390.798 193.165 392.923 192.959C395.047 192.754 397.673 193.574 397.673 193.574L398.112 192.189Z" fill="#FFB27D"/>
<path d="M423.058 193.035C423.058 193.035 422.12 194.882 420.421 197.007C418.37 199.562 415.21 202.515 411.241 203.097C409.345 203.375 407.491 202.97 405.788 202.216C405.784 202.214 405.782 202.214 405.782 202.214C400.961 200.085 397.338 195.187 397.338 195.187C396.488 192.881 397.879 191.317 397.879 191.317C397.879 191.317 407.611 193.495 408.537 193.035C409.463 192.574 414.871 177.068 416.158 175.121C417.446 173.172 421.834 172.161 421.834 172.161L423.058 193.035Z" fill="#F9DDBF"/>
<path d="M420.422 197.007C418.372 199.562 415.211 202.515 411.243 203.098C409.347 203.375 407.493 202.97 405.789 202.216C405.977 202.24 410.792 202.832 412.71 199.415C414.666 195.929 416.783 190.393 419.691 192.239C420.945 193.037 420.889 195.016 420.422 197.007Z" fill="#F2CCAA"/>
<path d="M459.367 297.604C459.367 297.604 462.337 300.301 461.758 302.218C461.179 304.136 458.499 305.412 458.136 307.757C457.774 310.099 456.326 311.378 455.022 311.378C453.717 311.378 448.806 311.378 448.806 311.378C448.806 311.378 447.846 309.73 450.165 309.233C452.484 308.736 453.356 305.983 453.212 303.427C453.067 300.872 453.428 297.464 453.428 297.464L458.353 296.329L459.367 297.604Z" fill="#233862"/>
<path d="M434.233 298.751C434.233 298.751 435.301 310.178 433.998 310.819L417.312 310.785C417.312 310.785 417.313 308.868 419.992 308.443C422.672 308.018 427.38 306.456 428.178 302.976C428.973 299.495 434.233 298.751 434.233 298.751Z" fill="#233862"/>
<path d="M446.125 216.764C442.691 209.099 440.591 206.898 440.992 204.52C441.29 202.749 440.082 171.509 440.082 171.509C439.675 171.383 438.857 171.271 438.412 171.171C437.003 170.86 435.839 169.875 435.354 168.524C434.768 166.894 434.305 164.49 434.315 161.476L433.876 161.561L426.481 163.02C426.481 163.02 426.649 165.336 426.653 167.519C426.653 167.536 426.653 167.554 426.653 167.572C426.661 169.468 425.412 171.141 423.582 171.666C422.648 171.936 421.835 172.165 421.835 172.165C421.835 172.165 419.119 179.882 418.6 187.81C418.081 195.738 423.538 199.182 418.558 215.024C413.477 231.202 448.021 220.997 446.125 216.764Z" fill="#FFB27D"/>
<path d="M426.477 163.018C426.477 163.018 426.645 165.334 426.649 167.517C430.788 167.401 432.974 163.642 433.87 161.56L426.477 163.018Z" fill="#E8945B"/>
<path d="M425.096 165.082C425.096 165.082 434.887 165.244 434.895 159.173C434.901 153.102 436.169 149.034 429.918 148.675C423.667 148.316 422.45 150.63 421.953 152.657C421.456 154.682 422.55 164.885 425.096 165.082Z" fill="#FFB27D"/>
<path d="M425.457 148.526C425.457 148.526 428.139 155.648 432.252 156.701C436.366 157.755 438.15 156.657 438.15 156.657C438.15 156.657 434.993 154.162 434.34 149.806C434.34 149.806 427.479 145.136 425.457 148.526Z" fill="#163560"/>
<path d="M426.125 149.105C426.125 149.105 424.137 149.845 423.319 151.287C422.519 152.698 421.838 154.567 421.996 156.861C421.996 156.861 419.976 152.019 422.247 149.282C424.652 146.377 426.125 149.105 426.125 149.105Z" fill="#163560"/>
<path d="M427.227 161.318C427.227 161.318 426.552 162.204 425.201 162.14C424.112 162.088 423.691 161.148 423.691 161.148C423.691 161.148 425.692 160.667 427.227 161.318Z" fill="#EBF3FA"/>
<path d="M447.066 185.328C447.066 185.328 447.315 188.817 447.066 193.005C446.9 195.78 444.08 199.499 443.681 200.418C442.677 202.724 441.545 203.1 441.545 203.1L432.784 205.236L429.703 205.986L419.991 203.1C419.991 203.1 415.565 190.808 417.343 183.887C419.119 176.969 421.835 172.163 421.835 172.163C421.835 172.163 429.762 179.887 440.082 171.508L447.066 185.328Z" fill="#F9DDBF"/>
<path d="M444.504 194.136C444.339 196.911 444.083 199.497 443.682 200.416C442.678 202.723 441.545 203.098 441.545 203.098L432.785 205.234L428.98 204.121C428.98 204.121 441.682 202.206 440.275 191.327L444.504 194.136Z" fill="#F2CCAA"/>
<path d="M420.611 204.963C420.611 204.963 415.8 219.868 415.492 224.942C415.183 230.015 424.687 297.026 425.07 299.364C425.431 301.569 428.181 302.973 428.181 302.973C428.181 302.973 429.445 303.715 431.249 303.208C433.753 302.504 434.544 301.662 434.544 301.662C434.544 301.662 438.288 253.871 435.971 236.798C433.654 219.725 433.626 204.963 433.626 204.963H420.611Z" fill="#ED7D2B"/>
<path d="M440.991 204.52C440.991 204.52 448.329 214.32 449.012 220.945C449.696 227.571 450.084 250.841 451.544 257.298C453.001 263.756 458.356 276.185 458.356 296.329C458.356 296.329 457.799 297.484 456.081 298.099C455.532 298.296 454.795 298.486 454.081 298.649C452.664 298.973 451.209 298.284 450.564 296.987C446.944 289.732 435.411 266.332 434.82 261.476C434.401 258.039 430.761 235.289 422.818 221.939C420.912 218.735 423.989 205.988 423.989 205.988L440.991 204.52Z" fill="#F99746"/>
<path d="M427.008 161.479C427.008 161.479 426.84 162.196 425.05 162.084C425.05 162.084 423.549 161.992 423.595 161.206C423.595 161.206 425.05 160.647 427.008 161.479Z" fill="white"/>
<path d="M419.839 202.663C419.839 202.663 421.771 204.183 425.607 204.261C430.189 204.352 441.545 203.097 441.545 203.097C441.545 203.097 442.05 204.5 442.03 205.982C442.03 205.982 428.162 209.464 420.127 206.491C420.125 206.491 419.089 204.55 419.839 202.663Z" fill="#233862"/>
<path d="M424.508 208.191C423.356 208.191 422.418 207.134 422.418 205.835C422.418 204.536 423.356 203.479 424.508 203.479C425.661 203.479 426.599 204.536 426.599 205.835C426.599 207.134 425.663 208.191 424.508 208.191ZM424.508 204.169C423.737 204.169 423.111 204.917 423.111 205.835C423.111 206.753 423.739 207.501 424.508 207.501C425.278 207.501 425.905 206.753 425.905 205.835C425.905 204.917 425.28 204.169 424.508 204.169Z" fill="white"/>
<path d="M439.561 186.001L425.352 198.316L442.287 217.676L456.497 205.361L439.561 186.001Z" fill="#B5453C"/>
<path d="M438.341 205.404C438.341 205.404 433.136 206.01 433.152 207.239C433.168 208.468 434.449 210.996 435.093 211.108C435.736 211.219 439.33 207.69 439.33 207.69L438.341 205.404Z" fill="#FFB27D"/>
<path d="M440.081 171.506C440.081 171.506 447.031 171.991 449.695 178.439C452.359 184.887 457.414 195.71 457.414 197.531C457.414 199.353 454.59 204.965 439.425 208.193C439.425 208.193 437.856 206.551 437.952 205.252C437.952 205.252 447.418 197.158 447.392 196.213C447.344 194.423 445.841 192.061 437.529 183.786C435.27 181.533 440.081 171.506 440.081 171.506Z" fill="#F9DDBF"/>
<path d="M495.56 132.908L499.705 147.328C499.765 147.54 499.788 147.755 499.773 147.965C499.723 148.723 499.202 149.403 498.427 149.625L473.267 156.791C472.487 157.012 471.681 156.705 471.237 156.083C471.116 155.915 471.022 155.726 470.962 155.516L466.819 141.102C466.534 140.116 467.108 139.089 468.096 138.808L493.256 131.642C494.244 131.36 495.274 131.925 495.56 132.908Z" fill="#C1E3D6"/>
<path d="M499.771 147.965C499.721 148.723 499.2 149.404 498.424 149.625L473.265 156.791C472.485 157.013 471.679 156.705 471.234 156.083L484.048 144.462L499.771 147.965Z" fill="#84C7AE"/>
<path d="M495.56 132.909L484.296 146.83L467.032 141.838L466.819 141.1C466.534 140.115 467.108 139.087 468.096 138.806L493.256 131.64C494.244 131.36 495.274 131.925 495.56 132.909Z" fill="#C1E3D6"/>
<path d="M296.056 310.98H295.984C295.561 310.98 295.223 310.633 295.231 310.214L296.373 260.971L299.736 260.58L296.87 310.218C296.844 310.645 296.487 310.98 296.056 310.98Z" fill="#B0D4FF"/>
<path d="M276.463 310.98H276.39C275.968 310.98 275.629 310.633 275.637 310.214L276.779 260.971L280.142 260.58L277.274 310.218C277.248 310.645 276.894 310.98 276.463 310.98Z" fill="#95C0F4"/>
<path d="M330.528 310.98H330.6C331.023 310.98 331.361 310.633 331.353 310.214L330.211 260.971L326.848 260.58L329.714 310.218C329.74 310.645 330.097 310.98 330.528 310.98Z" fill="#B0D4FF"/>
<path d="M274.234 257.915V224.171C274.234 218.234 279.071 213.42 285.035 213.42H309.46C315.424 213.42 320.261 218.234 320.261 224.171V259.206L274.234 257.915Z" fill="#B0D4FF"/>
<path d="M324.636 263.244H277.477C275.685 263.244 274.234 261.799 274.234 260.016V257.917H324.636V263.244Z" fill="#95C0F4"/>
<path d="M330.286 263.244H294.608C293.283 263.244 292.211 262.174 292.211 260.858V260.305C292.211 258.986 293.285 257.919 294.608 257.919H330.286C331.611 257.919 332.683 258.988 332.683 260.305V260.858C332.685 262.174 331.611 263.244 330.286 263.244Z" fill="#B0D4FF"/>
<path d="M328.901 249.508C325.402 255.569 321 257.909 321 257.909H302.691C302.693 257.909 331.571 244.884 328.901 249.508Z" fill="#233862"/>
<path d="M314.838 296.409C314.361 296.954 314.301 297.562 314.535 298.211C314.535 298.213 314.537 298.217 314.539 298.219C314.976 299.42 316.419 300.76 318.095 302.101C318.309 302.273 318.5 302.43 318.666 302.574C318.71 302.612 318.754 302.65 318.795 302.688C318.829 302.718 318.861 302.748 318.893 302.775C320.456 304.21 319.867 304.537 322.675 307.448C325.876 310.764 328.08 310.823 328.708 310.52C329.239 310.263 328.161 308.505 326.966 306.528C326.908 306.432 326.852 306.337 326.792 306.241C326.633 305.977 326.475 305.712 326.317 305.447C324.918 303.069 325.276 301.952 325.609 298.412C325.878 295.536 330.105 282.342 330.105 282.342L323.97 281.291C323.97 281.291 322.122 291.797 320.087 293.415C318.999 294.277 317.78 294.289 316.734 294.927C316.66 294.971 316.588 295.017 316.516 295.065C315.922 295.458 315.317 295.863 314.838 296.409Z" fill="#FFB27D"/>
<path d="M314.838 296.41C314.361 296.954 314.301 297.563 314.535 298.211C314.535 298.213 314.537 298.217 314.539 298.219C315.075 299.418 316.48 300.753 318.101 302.089C318.313 302.265 318.5 302.425 318.666 302.574C318.71 302.612 318.754 302.65 318.795 302.688C318.829 302.718 318.861 302.748 318.893 302.776C320.456 304.21 319.867 304.537 322.675 307.448C325.876 310.764 328.08 310.824 328.708 310.52C329.239 310.263 328.161 308.505 326.966 306.528C326.343 306.301 323.448 305.13 321.26 302.343C319.332 299.895 318.047 296.749 316.734 294.927C316.66 294.971 316.588 295.017 316.516 295.065C315.922 295.458 315.317 295.863 314.838 296.41Z" fill="#233862"/>
<path d="M364.305 292.595C364.684 294.48 367.384 294.165 370.398 293.433C373.414 292.699 372.697 293.57 376.988 293.097C381.279 292.625 382.58 291.033 382.71 290.396C382.827 289.832 380.706 289.634 378.431 289.373C378.145 289.341 377.858 289.305 377.571 289.271C375.004 288.95 373.122 287.3 370.789 285.945C368.58 284.663 365.281 279.434 365.281 279.434L359.395 279.898C359.395 279.898 362.483 284.569 363.678 286.598C364.381 287.793 364.343 289.371 364.255 290.59C364.213 291.254 364.171 291.93 364.305 292.595Z" fill="#FFB27D"/>
<path d="M370.399 293.433C373.415 292.699 372.698 293.571 376.989 293.098C381.28 292.625 382.581 291.033 382.711 290.397C382.827 289.832 380.707 289.634 378.432 289.373L378.41 289.417C378.41 289.417 375.836 291.234 372.263 291.318C369.35 291.388 366.266 290.558 364.256 290.59C364.209 291.252 364.167 291.931 364.302 292.595C364.684 294.48 367.382 294.165 370.399 293.433Z" fill="#233862"/>
<path d="M341.748 255.132L336.246 269.87L329.063 289.114C329.063 289.114 327.113 289.301 325.247 288.766C323.527 288.272 321.555 286.979 321.555 286.979C321.555 286.979 323.549 266.316 327.271 254.456C328.225 251.412 329.293 248.95 330.472 247.563C336.24 240.776 341.748 255.132 341.748 255.132Z" fill="#233862"/>
<path d="M336.155 231.726C332.549 230.569 322.269 232.056 311.941 234.067L309.779 230.515L287.471 228.782C287.471 228.782 280.109 245.031 284.14 255.385C284.733 256.908 285.91 257.883 287.916 257.915C287.916 257.915 288.241 257.915 288.243 257.915C288.243 257.915 301.521 257.907 305.832 257.907C316.926 257.907 329.31 250.316 330.914 249.997C333.535 249.474 334.586 254.695 337.207 260.177C339.829 265.66 361.858 284.453 361.858 284.453C361.858 284.453 365.243 284.487 366.642 283.964C368.145 283.403 368.696 282.673 368.696 282.673C368.696 282.673 344.284 234.336 336.155 231.726Z" fill="#2B478B"/>
<path d="M308.899 165.859C306.041 164.364 301.694 164.163 300.986 164.069C292.532 162.938 287.446 175.166 287.147 178.87C286.596 185.699 282.966 186.741 277.857 191.016C267.615 199.591 270.618 209.556 276.22 213.259C279.581 215.479 285.503 213.259 285.503 213.259C285.588 213.316 301.702 204.291 309.647 199.938C321.554 198.252 316.181 169.665 308.899 165.859Z" fill="#233862"/>
<path d="M302.987 196.231C303.021 196.253 299.078 197.593 296.441 196.43C293.96 195.339 292.082 191.277 292.118 191.275C293.246 191.223 294.485 190.242 295.439 183.798L295.92 183.969L303.999 186.862C303.999 186.862 303.414 189.442 303.035 191.9C302.718 193.963 302.546 195.94 302.987 196.231Z" fill="#FFB27D"/>
<path d="M304.001 186.864C304.001 186.864 303.416 189.444 303.037 191.902C298.397 191.07 296.575 186.467 295.922 183.972L304.001 186.864Z" fill="#ED975D"/>
<path d="M305.204 189.424C305.204 189.424 294.151 187.948 295.181 181.109C296.211 174.272 295.478 169.476 302.579 170.128C309.68 170.783 310.656 173.596 310.869 175.962C311.081 178.328 308.107 189.634 305.204 189.424Z" fill="#FFB27D"/>
<path d="M310.467 172.215C310.467 172.215 303.392 178.284 298.578 178.775C293.765 179.263 291.941 177.725 291.941 177.725C291.941 177.725 294.779 175.381 296.485 171.596C296.988 170.481 298.05 169.715 299.275 169.611C302.714 169.316 309.228 169.18 310.467 172.215Z" fill="#233862"/>
<path d="M306.043 171.67C306.043 171.67 308.41 173.949 309.156 175.639C309.875 177.268 310.092 181.169 309.518 182.719C309.518 182.719 313.206 175.581 311.118 172.111C308.905 168.435 306.043 171.67 306.043 171.67Z" fill="#233862"/>
<path d="M312.295 212.441C311.96 234.713 312.203 230.059 309.756 232.174C309.166 232.682 307.507 232.986 305.326 233.129C298.465 233.582 286.404 232.457 285.945 231.196C284.361 226.829 285.48 225.472 284.159 218.787C284.021 218.077 283.85 217.307 283.652 216.469C282.552 211.876 281.479 210.314 285.386 202.936C288.927 196.253 292.607 190.831 292.938 191.026C302.282 196.548 303.035 191.906 303.035 191.906C303.035 191.906 312.459 201.576 312.295 212.441Z" fill="white"/>
<path d="M336.246 269.87L329.063 289.114C329.063 289.114 327.113 289.301 325.247 288.767C323.527 288.272 321.555 286.979 321.555 286.979C321.555 286.979 323.549 266.316 327.271 254.456L336.246 269.87Z" fill="#2B478B"/>
<path d="M303.039 191.902C303.039 191.902 312.656 193.524 313.784 197.646C314.912 201.767 321.559 225.993 321.559 225.993C321.559 225.993 316.67 226.867 314.411 224.618C312.153 222.37 306.555 203.764 306.555 203.764L303.039 191.902Z" fill="white"/>
<path d="M305.327 233.127C298.467 233.58 286.405 232.455 285.946 231.194C284.363 226.827 285.481 225.47 284.16 218.785L287.469 209.51C287.469 209.51 286.922 219.838 289.983 222.555C293.039 225.272 302.511 227.8 304.001 230.07C304.718 231.158 305.191 232.249 305.327 233.127Z" fill="#EBF3FF"/>
<path d="M297.465 228.784C297.465 228.784 304.233 227.284 305.326 227.882C306.418 228.481 309.088 230.657 309.422 231.415C309.757 232.174 306.991 230.841 306.091 230.599C305.508 230.444 303.975 230.975 303.215 231.226C300.02 232.285 298.062 231.741 298.062 231.741L297.465 228.784Z" fill="#FFB27D"/>
<path d="M292.932 191.016C292.932 191.016 283.843 191.573 280.696 195.942C276.267 202.09 267.48 228.297 272.517 231.79C278.187 235.727 298.326 232.82 298.326 232.82C298.326 232.82 298.995 229.702 298.063 228.193C297.131 226.685 281.979 224.249 281.279 223.553C280.58 222.857 290.022 209.979 290.022 207.89C290.022 205.801 292.932 191.016 292.932 191.016Z" fill="white"/>
<path d="M305.656 229.755C305.656 229.755 307.075 231.577 307.54 231.794C308.005 232.012 308.306 231.958 308.306 231.958L307.35 230.246L305.656 229.755Z" fill="#FFB27D"/>
<path d="M305.328 227.88L309.451 229.873C309.451 229.873 309.275 230.158 308.767 230.136C308.26 230.112 306.98 229.647 306.98 229.647L305.328 227.88Z" fill="#FFB27D"/>
<path d="M307.535 234.583H340.155L349.968 210.296H317.398L307.535 234.583Z" fill="#F99746"/>
<path d="M340.539 233.638H297.465V234.583H340.156L340.539 233.638Z" fill="#ED7D2B"/>
<path d="M331.924 222.44C332.17 221.586 331.673 220.894 330.815 220.894C329.958 220.894 329.064 221.586 328.817 222.44C328.571 223.294 329.068 223.986 329.925 223.986C330.783 223.986 331.677 223.294 331.924 222.44Z" fill="white"/>
<path d="M156.682 262.088H156.577C155.365 262.088 154.383 261.111 154.383 259.904V213.779C154.383 212.572 155.365 211.594 156.577 211.594H156.682C157.894 211.594 158.876 212.572 158.876 213.779V259.904C158.878 261.109 157.894 262.088 156.682 262.088Z" fill="#B0D4FF"/>
<path d="M156.611 310.98H156.539C156.116 310.98 155.777 310.633 155.785 310.214L156.928 260.971L160.291 260.58L157.423 310.218C157.399 310.645 157.042 310.98 156.611 310.98Z" fill="#95C0F4"/>
<path d="M210.676 310.98H210.748C211.171 310.98 211.51 310.633 211.502 310.214L210.359 260.971L206.996 260.58L209.864 310.218C209.888 310.645 210.245 310.98 210.676 310.98Z" fill="#B0D4FF"/>
<path d="M210.437 257.915H204.784H174.758H154.383V260.014C154.383 261.797 155.834 263.242 157.626 263.242H174.758H204.784H210.437C211.761 263.242 212.834 262.172 212.834 260.856V260.303C212.836 258.984 211.761 257.915 210.437 257.915Z" fill="#B0D4FF"/>
<path d="M238.498 300.453C238.498 300.453 237.672 310.663 239.508 310.799C239.752 310.817 248.824 310.817 248.824 310.817L260.404 310.751C260.404 310.751 260.328 307.974 256.943 307.385C253.558 306.799 246.858 303.962 244.807 299.509C242.653 294.825 238.498 300.453 238.498 300.453Z" fill="#163560"/>
<path d="M168.828 244.516C168.828 244.516 169.213 254.551 170.991 257.915H211.948C211.948 257.915 221.789 258.928 222.687 259.589C223.82 260.423 218.745 268.69 237.765 301.004L247.081 300.768C247.081 300.768 237.338 248.365 235.609 247.038C233.019 245.055 202.718 238.148 197.531 237.999C192.344 237.847 168.828 244.516 168.828 244.516Z" fill="#1C468A"/>
<path d="M191.79 185.059C194.951 187.008 195.13 190.888 195.13 190.888C187.421 192.873 176.203 184.354 176.203 184.354C176.203 184.354 181.166 181.037 183.004 173.743C183.096 173.376 183.182 172.997 183.256 172.612C183.497 171.383 183.647 170.054 183.673 168.62L187.215 171.778L193.103 177.029C193.103 177.029 192.969 179.207 192.233 182.956C192.105 183.61 191.959 184.313 191.79 185.059Z" fill="#FFB27D"/>
<path d="M196.148 225.342C195.885 227.054 196.418 228.432 196.673 229.705C196.773 230.192 196.831 230.663 196.789 231.132C196.368 235.868 198.064 236.468 197.533 237.997C197.533 237.997 195.721 239.052 192.402 240.303C190.958 240.845 189.229 241.428 187.239 241.975C187.134 242.003 187.03 242.031 186.924 242.06C179.217 244.133 171.116 244.576 168.827 244.516C164.456 244.401 163.572 233.368 165.195 219.475C167.723 197.831 171.138 187.337 180.141 179.754C180.709 179.277 180.326 180.901 183.352 182.353C186.148 183.692 189.521 184.007 192.139 183.429L194.197 185.529C198.286 191.959 198.715 199.59 198.368 205.952C197.929 213.996 196.907 220.414 196.148 225.342Z" fill="#B0D4FF"/>
<path d="M193.106 177.029C193.106 177.029 193.419 176.7 192.683 180.448C186.161 178.569 184.036 175.263 183.165 173.069C182.916 172.448 185.59 172.119 187.217 171.776L193.106 177.029Z" fill="#ED975D"/>
<path d="M196.139 177.047C196.139 177.047 183.554 178.84 182.552 171.022C181.55 163.203 179.251 158.17 187.244 156.693C195.237 155.217 197.183 158.002 198.155 160.532C199.127 163.061 199.386 176.378 196.139 177.047Z" fill="#FFB27D"/>
<path d="M243.491 235.002L244.453 235.302L252.335 210.216L251.373 209.916L243.491 235.002Z" fill="#1C468A"/>
<path d="M216.768 235.013L244.477 235.3L244.494 233.65L216.785 233.363L216.768 235.013Z" fill="#1C468A"/>
<path d="M178.538 156.853C178.437 156.735 178.203 156.639 177.68 156.607C177.68 156.607 178.101 156.35 178.66 156.342C178.774 155.62 179.173 154.341 180.426 154.04C180.426 154.04 179.75 154.391 179.656 155.161C181.117 153.691 184.232 152.635 192.828 153.38C204.156 154.359 200.364 161.553 198.889 162.403C197.414 163.253 193.74 160.863 191.004 161.056C188.268 161.25 187.717 165.18 186.785 165.713C185.853 166.245 186.226 165.294 184.975 164.719C183.725 164.145 183.588 166.214 183.941 167.562C184.294 168.911 182.554 170.672 182.554 170.672C182.554 170.672 182.554 170.672 180.826 168.791C179.099 166.91 177.519 158.984 178.325 157.304C178.393 157.154 178.463 157.003 178.538 156.853Z" fill="#2C3A64"/>
<path d="M197.533 237.997C197.533 237.997 195.721 239.052 192.402 240.303C178.043 229.875 178.121 205.19 178.043 204.77L196.077 220.576L196.673 229.703C196.773 230.19 196.831 230.661 196.789 231.13C196.368 235.868 198.064 236.468 197.533 237.997Z" fill="#91B8EF"/>
<path d="M223.527 226.386C223.527 226.386 224.682 226.574 225.9 226.003C227.119 225.434 231.322 223.637 232.112 223.882C232.901 224.128 235.479 225.576 236.086 225.851C236.693 226.127 237.766 227.539 237.766 227.539C237.321 227.986 235.755 226.961 235.056 226.981C234.356 227 229.191 229.81 227.656 229.869C226.121 229.931 223.728 229.618 223.728 229.618L223.527 226.386Z" fill="#FFB27D"/>
<path d="M232.891 226.609C232.905 226.693 234.779 228.772 236.208 228.113L234.642 226.573L232.891 226.609Z" fill="#FFB27D"/>
<path d="M225.898 226.003C225.898 226.003 227.58 224.453 228.137 223.708C228.137 223.708 228.472 223.862 228.486 224.143C228.508 224.614 228.045 225.48 228.045 225.48L225.898 226.003Z" fill="#FFB27D"/>
<path d="M192.824 189.172C183.58 183.57 172.671 193.358 177.258 203.115C182.578 214.429 191.431 228.227 198.466 229.043C203.48 229.623 217.811 231.453 223.88 230.326C223.88 230.326 226.82 230.469 225.225 225.757C225.225 225.757 205.613 220.317 202.356 216.097C200.61 213.837 197.636 209.258 193.036 189.306C193.02 189.222 192.896 189.216 192.824 189.172Z" fill="#B0D4FF"/>
<path d="M441.343 310.981H441.443C442.026 310.981 442.495 310.502 442.483 309.922L440.906 241.893L436.262 241.354L440.222 309.927C440.254 310.518 440.745 310.981 441.343 310.981Z" fill="#739AF0"/>
<path d="M212.971 310.981H212.872C212.289 310.981 211.82 310.502 211.832 309.922L213.41 241.893L218.054 241.354L214.093 309.927C214.059 310.518 213.568 310.981 212.971 310.981Z" fill="#739AF0"/>
<path d="M445.39 243.144H208.334C206.608 243.144 205.211 241.752 205.211 240.036V238.045C205.211 236.327 206.61 234.937 208.334 234.937H445.388C447.114 234.937 448.511 236.329 448.511 238.045V240.036C448.513 241.752 447.114 243.144 445.39 243.144Z" fill="#739AF0"/>
<path d="M435.884 79.0235C435.059 82.842 435.661 86.6325 437.329 89.8474C438.772 92.627 439.219 95.8168 438.557 98.8786L437.604 103.295C436.998 106.103 438.806 108.89 441.622 109.489L449.817 111.233C452.633 111.832 455.433 110.025 456.04 107.218L456.995 102.793C457.658 99.725 459.397 97.0031 461.862 95.0467C464.725 92.775 466.841 89.5335 467.649 85.682C469.483 76.9444 463.927 68.44 455.174 66.5773C454.201 66.3704 453.23 66.256 452.268 66.2262C452.055 66.22 451.844 66.217 451.632 66.2193C444.189 66.2816 437.515 71.4692 435.884 79.0235Z" fill="#84C7AE"/>
<path d="M449.804 111.211L449.757 111.344L449.16 113.017L449.003 113.458L449.003 113.462L448.844 113.905L448.248 115.577L448.091 116.018L448.089 116.022L447.931 116.467L447.843 116.711C447.541 117.56 446.396 118.013 445.198 117.758L442.5 117.184C442.214 117.124 441.95 117.028 441.711 116.905L441.71 116.904C441.496 116.793 441.304 116.66 441.139 116.51L441.126 116.499C440.992 116.377 440.876 116.243 440.785 116.102C440.595 115.812 440.496 115.493 440.519 115.169L440.568 114.482L440.598 114.049L440.598 114.048L440.599 114.038L440.599 114.037L440.629 113.613L440.744 111.969L440.774 111.538L440.775 111.528L440.805 111.102L440.93 109.321L449.805 111.21L449.804 111.211Z" fill="#74B3AF"/>
<path d="M448.736 110.983L448.717 110.979L447.212 110.659C444.597 110.846 442.004 111.029 440.806 111.108L440.775 111.534L440.774 111.544L440.744 111.976C441.715 111.918 444.049 111.757 449.76 111.344L449.807 111.211L448.736 110.983Z" fill="#74B3AF"/>
<path d="M440.599 114.041L440.598 114.05L440.598 114.052L440.568 114.485C441.691 114.413 444.012 114.252 448.846 113.902L449.006 113.458L449.006 113.454L449.164 113.012C446.109 113.232 442.411 113.497 440.629 113.616L440.599 114.041Z" fill="#74B3AF"/>
<path d="M441.13 116.499L441.143 116.51C441.308 116.66 441.5 116.794 441.714 116.905L441.716 116.905C443.041 116.813 445.009 116.674 447.936 116.462L448.094 116.017L448.096 116.013L448.254 115.571C445.639 115.76 442.64 115.974 440.789 116.1C440.882 116.243 440.996 116.377 441.13 116.499Z" fill="#74B3AF"/>
<path d="M444.176 88.8023L443.453 88.7715L442.528 109.739L443.25 109.77L444.176 88.8023Z" fill="white"/>
<path d="M455.885 91.612L447.934 110.745L448.61 111.024L456.561 91.8904L455.885 91.612Z" fill="white"/>
<path d="M451.192 94.1964C451.1 94.1767 451 94.143 450.89 94.093C450.708 94.0079 450.615 93.8493 450.622 93.6336C450.637 93.1688 451.166 92.421 451.811 91.8298C451.651 91.3249 451.386 90.879 451.049 90.6937C450.551 90.4182 449.626 90.7356 448.92 91.2425C448.993 91.4121 449.054 91.5862 449.103 91.7577C449.275 92.3703 449.334 93.1184 448.976 93.3828C448.844 93.4808 448.603 93.5444 448.207 93.2906C447.713 92.9738 447.618 92.4772 447.946 91.9289C448.106 91.6604 448.352 91.3976 448.643 91.1667C448.326 90.498 447.831 89.9359 447.234 89.8859C446.916 89.8587 446.626 89.9104 446.371 90.016C446.594 90.7851 446.491 91.6795 446.132 92.0949C445.887 92.3776 445.557 92.414 445.206 92.1976C444.953 92.0415 444.891 91.6345 445.048 91.1607C445.209 90.6751 445.574 90.184 446.099 89.9005C446.022 89.6964 445.918 89.5076 445.785 89.3504C444.951 88.3616 443.944 89.0173 443.901 89.046L443.778 88.8615C443.79 88.8528 444.996 88.0685 445.956 89.2074C446.101 89.3799 446.216 89.585 446.3 89.8061C446.582 89.6909 446.901 89.6356 447.254 89.6658C447.922 89.7226 448.474 90.3207 448.824 91.0328C449.589 90.4922 450.579 90.1832 451.155 90.5005C451.519 90.7012 451.805 91.1546 451.986 91.6765C452.321 91.3932 452.676 91.1605 452.999 91.0332C453.518 90.8297 453.798 90.9609 453.942 91.1078C454.091 91.2571 454.204 91.441 454.287 91.6409C454.447 91.5615 454.61 91.4993 454.767 91.4599C455.349 91.3107 455.827 91.432 456.115 91.8029L455.938 91.939C455.628 91.5383 455.105 91.602 454.822 91.6748C454.666 91.7144 454.509 91.775 454.361 91.85C454.576 92.5542 454.465 93.3897 454.18 93.745C453.999 93.9687 453.755 94.0078 453.513 93.8553C453.076 93.58 453.03 93.2299 453.07 92.9833C453.144 92.513 453.581 92.051 454.088 91.7512C454.014 91.5659 453.913 91.3973 453.783 91.2659C453.607 91.0869 453.303 91.1539 453.079 91.2422C452.756 91.3681 452.394 91.6134 452.057 91.906C452.25 92.5944 452.263 93.3524 452.039 93.791C451.932 94.0008 451.686 94.3016 451.192 94.1964ZM451.878 92.0655C451.312 92.6008 450.857 93.2452 450.844 93.6389C450.839 93.764 450.885 93.8438 450.985 93.8902C451.389 94.0772 451.678 94.0083 451.843 93.6875C452.032 93.3159 452.028 92.6705 451.878 92.0655ZM448.739 91.3818C448.487 91.5873 448.273 91.8151 448.137 92.0426C447.867 92.4924 447.932 92.8495 448.328 93.1033C448.487 93.2058 448.707 93.3058 448.844 93.2046C449.056 93.048 449.075 92.4776 448.887 91.8183C448.847 91.6725 448.796 91.5257 448.739 91.3818ZM446.169 90.1145C445.716 90.3712 445.4 90.8027 445.259 91.2295C445.139 91.5906 445.165 91.9115 445.322 92.008C445.578 92.1647 445.793 92.1462 445.962 91.9495C446.27 91.5947 446.357 90.8033 446.169 90.1145ZM454.16 91.9614C453.705 92.2428 453.347 92.6528 453.29 93.0148C453.249 93.2779 453.363 93.4956 453.633 93.665C453.781 93.7582 453.899 93.7385 454.008 93.6047C454.249 93.3058 454.33 92.5777 454.16 91.9614Z" fill="white"/>
<path d="M152.212 129.992H148.254V144.488H152.212V129.992Z" fill="#84C7AE"/>
<path d="M151.721 128.557H148.933C148.66 128.557 148.438 128.336 148.438 128.065C148.438 127.793 148.66 127.572 148.933 127.572H151.721C151.993 127.572 152.216 127.793 152.216 128.065C152.216 128.336 151.993 128.557 151.721 128.557Z" fill="#84C7AE"/>
<path d="M145.388 118.608H141.43V144.488H145.388V118.608Z" fill="#84C7AE"/>
<path d="M144.803 117.535H142.015C141.742 117.535 141.52 117.313 141.52 117.042C141.52 116.771 141.742 116.549 142.015 116.549H144.803C145.075 116.549 145.298 116.771 145.298 117.042C145.298 117.313 145.073 117.535 144.803 117.535Z" fill="#84C7AE"/>
<path d="M138.849 100.587H134.891V144.488H138.849V100.587Z" fill="#84C7AE"/>
<path d="M138.263 99.3903H135.476C135.203 99.3903 134.98 99.1689 134.98 98.8976C134.98 98.6262 135.203 98.4048 135.476 98.4048H138.263C138.536 98.4048 138.759 98.6262 138.759 98.8976C138.757 99.1689 138.534 99.3903 138.263 99.3903Z" fill="#84C7AE"/>
<path d="M132.134 108.553H128.176V144.49H132.134V108.553Z" fill="#84C7AE"/>
<path d="M131.553 107.592H128.765C128.492 107.592 128.27 107.371 128.27 107.099C128.27 106.828 128.492 106.606 128.765 106.606H131.553C131.825 106.606 132.048 106.828 132.048 107.099C132.046 107.371 131.823 107.592 131.553 107.592Z" fill="#84C7AE"/>
<path d="M125.595 88.6108H121.637V144.49H125.595V88.6108Z" fill="#84C7AE"/>
<path d="M125.01 87.5397H122.222C121.949 87.5397 121.727 87.3183 121.727 87.047C121.727 86.7757 121.949 86.5542 122.222 86.5542H125.01C125.282 86.5542 125.505 86.7757 125.505 87.047C125.505 87.3183 125.282 87.5397 125.01 87.5397Z" fill="#84C7AE"/>
<path d="M119.228 97.3374H115.27V144.49H119.228V97.3374Z" fill="#84C7AE"/>
<path d="M118.642 96.3356H115.854C115.582 96.3356 115.359 96.1142 115.359 95.8429C115.359 95.5715 115.582 95.3501 115.854 95.3501H118.642C118.915 95.3501 119.137 95.5715 119.137 95.8429C119.137 96.1122 118.915 96.3356 118.642 96.3356Z" fill="#84C7AE"/>
<path d="M410.183 234.934H377.563L367.75 210.647H400.32L410.183 234.934Z" fill="#2B478B"/>
<path d="M377.18 233.989H420.254V234.934H377.563L377.18 233.989Z" fill="#2B478B"/>
<path d="M385.798 222.791C385.551 221.937 386.048 221.245 386.906 221.245C387.764 221.245 388.658 221.937 388.904 222.791C389.151 223.645 388.654 224.337 387.796 224.337C386.938 224.337 386.044 223.645 385.798 222.791Z" fill="white"/>
</g>
<defs>
<clipPath id="clip0">
<rect width="589" height="386" fill="white"/>
</clipPath>
</defs>
</svg>
