<svg width="101" height="100" viewBox="0 0 101 100" fill="none" xmlns="http://www.w3.org/2000/svg">
<g clip-path="url(#clip0)">
<path d="M13.9889 62.0368C14.9555 61.5534 15.3473 60.3778 14.8639 59.4112C14.3805 58.4446 13.2049 58.0528 12.2383 58.5362C11.2717 59.0196 10.8799 60.1952 11.3633 61.1618C11.8467 62.1286 13.0223 62.5204 13.9889 62.0368Z" fill="#FF8A34"/>
<path d="M100.5 77.3658C100.5 65.7191 91.0246 56.2439 79.3779 56.2439C73.2256 56.2439 67.6797 58.8887 63.8158 63.1002L56.2131 58.3105C56.3127 57.8826 56.3672 57.4373 56.3672 56.9795C56.3672 54.4045 54.7 52.2129 52.3889 51.4234V43.6703C55.098 43.4291 57.81 42.5982 60.1297 41.4279C60.2334 41.3855 60.0357 41.4867 60.1297 41.4279C66.8666 37.8943 71.6219 30.7543 71.6219 22.6338C71.6221 10.9871 62.1467 1.51172 50.5 1.51172C38.8533 1.51172 29.3781 10.9871 29.3781 22.6338C29.3781 30.7561 34.1383 37.8988 40.8775 41.4316C40.9732 41.4916 40.7715 41.3887 40.8775 41.4316C43.1559 42.5795 45.8199 43.4045 48.475 43.6582V51.4676C46.2309 52.2932 44.6258 54.4525 44.6258 56.9797C44.6258 57.4119 44.674 57.833 44.7633 58.2389L37.1332 63.0453C33.2717 58.8658 27.7477 56.2439 21.6223 56.2439C20.5414 56.2439 19.6652 57.1201 19.6652 58.201C19.6652 59.2818 20.5414 60.158 21.6223 60.158C31.1109 60.158 38.8305 67.8775 38.8305 77.366C38.8305 82.8182 36.2812 87.6854 32.3129 90.8404C32.2068 88.1439 31.108 85.624 29.1883 83.7051C28.4674 82.9846 27.6609 82.382 26.7934 81.9018C28.7248 80.3727 29.9674 78.01 29.9674 75.3611C29.9674 70.7617 26.2254 67.0199 21.6262 67.0199C17.027 67.0199 13.2842 70.7615 13.2842 75.3609C13.2842 78.0098 14.5268 80.3723 16.4578 81.9014C15.5891 82.3822 14.7812 82.9861 14.0592 83.7082C12.1406 85.6293 11.0432 88.1502 10.9385 90.8459C6.96602 87.691 4.41387 82.8211 4.41387 77.3658C4.41387 73.7369 5.65664 70.0584 7.91328 67.008C8.55606 66.1391 8.37266 64.9137 7.50391 64.2709C6.63496 63.6281 5.40957 63.8115 4.7668 64.6803C2.01523 68.3996 0.5 72.9049 0.5 77.3658C0.5 85.4883 5.26016 92.6311 11.9996 96.1639C12.0953 96.2238 11.8937 96.1209 11.9996 96.1639C14.85 97.6 18.2184 98.4879 21.6219 98.4879C25.0295 98.4879 28.3988 97.5992 31.2518 96.16C31.3557 96.1176 31.1578 96.2188 31.2518 96.16C37.9887 92.6264 42.7439 85.4863 42.7439 77.3658C42.7439 73.2547 41.5621 69.4148 39.5221 66.166L46.832 61.5613C47.8373 62.367 49.1111 62.8504 50.4965 62.8504C51.8555 62.8504 53.1068 62.385 54.1029 61.607L61.4391 66.2285C59.423 69.4641 58.2563 73.2809 58.2563 77.3658C58.2563 85.4881 63.0164 92.6309 69.7557 96.1637C69.8516 96.2238 69.6496 96.1207 69.7557 96.1637C72.6059 97.5996 75.9746 98.4879 79.3781 98.4879C82.7859 98.4879 86.1547 97.5996 89.0076 96.1602C89.1109 96.118 88.9141 96.2186 89.0076 96.1602C95.7449 92.6266 100.5 85.4867 100.5 77.3658ZM21.6256 70.9336C24.067 70.9336 26.0529 72.9197 26.0529 75.3609C26.0529 77.8021 24.0668 79.7883 21.6256 79.7883C19.1844 79.7883 17.1982 77.8021 17.1982 75.3609C17.1982 72.9197 19.1842 70.9336 21.6256 70.9336ZM14.8422 93.1809V91.2705C14.8422 89.46 15.5477 87.7564 16.8279 86.4748C18.1098 85.193 19.8121 84.4871 21.6225 84.4871H21.6254C23.4365 84.4871 25.1396 85.1924 26.4211 86.4731C27.7031 87.7545 28.4092 89.4582 28.4092 91.2705V93.1775C26.3256 94.0754 24.0311 94.5738 21.6221 94.5738C19.2158 94.574 16.9236 94.0768 14.8422 93.1809ZM50.5035 25.0564C48.0623 25.0564 46.0762 23.0703 46.0762 20.6291C46.0762 18.1879 48.0623 16.2018 50.5035 16.2018C52.9449 16.2018 54.9311 18.1879 54.9311 20.6291C54.9311 23.0703 52.9449 25.0564 50.5035 25.0564ZM50.5004 29.7551H50.5033C52.3145 29.7551 54.0176 30.4604 55.2988 31.741C56.5809 33.0225 57.2869 34.7262 57.2869 36.5385V38.4455C55.2033 39.3434 52.9088 39.8416 50.4998 39.8416C48.0936 39.8416 45.8016 39.3443 43.7199 38.4484V36.5383C43.7199 34.7277 44.4254 33.0242 45.7057 31.7424C46.9875 30.4609 48.69 29.7551 50.5004 29.7551ZM33.292 22.6338C33.292 13.1451 41.0115 5.42559 50.5 5.42559C59.9885 5.42559 67.7082 13.1451 67.7082 22.6338C67.7082 28.0857 65.159 32.9531 61.1904 36.1082C61.0844 33.4117 59.9855 30.8918 58.0658 28.9729C57.3451 28.2523 56.5385 27.6498 55.6709 27.1695C57.6023 25.6404 58.8449 23.2777 58.8449 20.6287C58.8449 16.0293 55.1029 12.2875 50.5035 12.2875C45.9041 12.2875 42.1623 16.0295 42.1623 20.6287C42.1623 23.2775 43.4047 25.64 45.3359 27.1691C44.4672 27.65 43.6594 28.2539 42.9375 28.9758C41.0187 30.8969 39.9213 33.4178 39.8166 36.1135C35.8441 32.9588 33.292 28.0891 33.292 22.6338ZM48.5395 56.9795C48.5395 55.9004 49.4174 55.0225 50.4965 55.0225C51.5756 55.0225 52.4533 55.9004 52.4533 56.9795C52.4533 58.0586 51.5756 58.9365 50.4965 58.9365C49.4174 58.9365 48.5395 58.0586 48.5395 56.9795ZM62.1699 77.3658C62.1699 67.8773 69.8893 60.1578 79.3779 60.1578C88.8666 60.1578 96.5861 67.8773 96.5861 77.3658C96.5861 82.818 94.0369 87.6852 90.0684 90.8404C89.9623 88.1439 88.8635 85.6238 86.9437 83.7051C86.223 82.9846 85.4164 82.382 84.5488 81.9018C86.4801 80.3727 87.7228 78.01 87.7228 75.3611C87.7228 70.7617 83.9809 67.0199 79.3816 67.0199C74.7824 67.0199 71.0404 70.7619 71.0404 75.3611C71.0404 78.01 72.283 80.3725 74.2141 81.9016C73.3453 82.3824 72.5375 82.9863 71.8154 83.7084C69.8967 85.6295 68.7992 88.1504 68.6945 90.8461C64.7221 87.691 62.1699 82.8211 62.1699 77.3658ZM79.3816 79.7885C76.9404 79.7885 74.9543 77.8023 74.9543 75.3611C74.9543 72.9199 76.9404 70.9338 79.3816 70.9338C81.8229 70.9338 83.809 72.9199 83.809 75.3611C83.809 77.8023 81.8229 79.7885 79.3816 79.7885ZM72.598 93.1809V91.2707C72.598 89.4602 73.3037 87.7568 74.5838 86.475C75.8656 85.1932 77.568 84.4873 79.3783 84.4873H79.3812C81.1926 84.4873 82.8957 85.1926 84.1769 86.4732C85.4592 87.7547 86.165 89.4584 86.165 91.2707V93.1777C84.0814 94.0756 81.7869 94.5738 79.3779 94.5738C76.9717 94.574 74.6797 94.0768 72.598 93.1809Z" fill="#FF8A34"/>
</g>
<defs>
<clipPath id="clip0">
<rect width="100" height="100" fill="white" transform="translate(0.5)"/>
</clipPath>
</defs>
</svg>
