<svg width="101" height="100" viewBox="0 0 101 100" fill="none" xmlns="http://www.w3.org/2000/svg">
<g clip-path="url(#clip0)">
<path d="M12.5742 50C12.5742 46.7369 9.91953 44.082 6.65625 44.082C3.39297 44.082 0.738281 46.7367 0.738281 50C0.738281 53.2633 3.39297 55.918 6.65625 55.918C9.91953 55.918 12.5742 53.2631 12.5742 50ZM4.65215 50C4.65215 48.8949 5.55117 47.9959 6.65625 47.9959C7.76133 47.9959 8.66016 48.8949 8.66016 50C8.66016 51.1051 7.76113 52.0041 6.65605 52.0041C5.55098 52.0041 4.65215 51.1051 4.65215 50Z" fill="#FF8A34"/>
<path d="M94.3477 44.082C91.0846 44.082 88.4297 46.7367 88.4297 50C88.4297 53.2633 91.0844 55.918 94.3477 55.918C97.6109 55.918 100.266 53.2633 100.266 50C100.266 46.7367 97.6109 44.082 94.3477 44.082ZM94.3477 52.0041C93.2426 52.0041 92.3436 51.1051 92.3436 50C92.3436 48.8949 93.2426 47.9959 94.3477 47.9959C95.4527 47.9959 96.3518 48.8949 96.3518 50C96.3518 51.1051 95.4527 52.0041 94.3477 52.0041Z" fill="#FF8A34"/>
<path d="M46.5391 11.8359H54.4611C55.542 11.8359 56.4181 10.9598 56.4181 9.87891V1.95703C56.418 0.876172 55.5418 0 54.4609 0H46.5391C45.4582 0 44.582 0.876172 44.582 1.95703V9.87891C44.582 10.9598 45.4582 11.8359 46.5391 11.8359ZM48.4959 3.91387H52.5041V7.92207H48.4959V3.91387Z" fill="#FF8A34"/>
<path d="M52.1966 85.0586C51.847 84.4531 51.2011 84.0801 50.5019 84.0801C49.8026 84.0801 49.1567 84.4531 48.8071 85.0586L41.8755 97.0646C41.5259 97.6701 41.5259 98.4162 41.8755 99.0217C42.2251 99.6271 42.871 100 43.5702 100H57.4335C58.1327 100 58.7786 99.6273 59.1282 99.0217C59.4778 98.4162 59.4778 97.6703 59.1282 97.0646L52.1966 85.0586ZM46.9597 96.0861L50.5019 89.9508L54.0441 96.0859H46.9597V96.0861Z" fill="#FF8A34"/>
<path d="M4.94941 37.2535C5.15312 37.3206 5.35976 37.3527 5.56308 37.3527C6.38456 37.3527 7.14941 36.8314 7.42109 36.0085C9.208 30.5958 11.9766 25.6513 15.6502 21.3123C19.0428 17.305 23.0494 13.9994 27.5715 11.4724L26.6914 15.5539C26.4695 16.5828 27.1309 17.6271 28.1535 17.8703C29.206 18.1206 30.2896 17.4353 30.5174 16.3789L32.3078 8.07514C32.5215 7.08374 31.9426 6.0935 30.9738 5.79331L22.9832 3.31811C21.9506 2.99838 20.8545 3.57592 20.5348 4.60835C20.215 5.64077 20.7926 6.73686 21.825 7.05678L25.4475 8.17885C20.6029 10.9193 16.3064 14.48 12.6633 18.7833C8.66386 23.5074 5.6496 28.89 3.70468 34.7816C3.36581 35.8079 3.92304 36.9146 4.94941 37.2535Z" fill="#FF8A34"/>
<path d="M64.6214 9.7339C70.0341 11.5208 74.9786 14.2894 79.3177 17.963C83.3247 21.3556 86.6304 25.3622 89.1575 29.8843L85.0761 29.0042C84.0188 28.7763 82.9782 29.4482 82.7505 30.5046C82.5227 31.5612 83.1944 32.6023 84.2509 32.8302C84.2509 32.8302 92.8317 34.665 92.9684 34.665C93.8093 34.665 94.5784 34.12 94.8364 33.2868L97.3118 25.2962C97.6315 24.2638 97.054 23.1677 96.0216 22.8478C94.9891 22.5279 93.893 23.1056 93.5731 24.138L92.4511 27.7605C89.7106 22.9161 86.1499 18.6195 81.8466 14.9761C77.1227 10.9767 71.7399 7.96242 65.8483 6.0175C64.8222 5.67902 63.7155 6.23605 63.3765 7.26242C63.0378 8.2884 63.595 9.39504 64.6214 9.7339Z" fill="#FF8A34"/>
<path d="M96.055 60.8188C95.0286 60.4803 93.922 61.0373 93.5831 62.0637C91.7962 67.4764 89.0276 72.4209 85.354 76.76C81.9616 80.767 77.9548 84.0727 73.4329 86.5996L74.313 82.5182C74.5407 81.4615 73.869 80.4205 72.8126 80.1926C71.7554 79.9639 70.7148 80.6365 70.487 81.693L68.6966 89.9967C68.4829 90.9881 69.0618 91.9785 70.0306 92.2785L78.0214 94.7539C78.2144 94.8137 78.4093 94.8422 78.6011 94.842C79.436 94.842 80.2097 94.3031 80.4698 93.4637C80.7896 92.4313 80.212 91.3352 79.1796 91.0152L75.5571 89.8932C80.4015 87.1527 84.6981 83.5922 88.3415 79.2889C92.3411 74.5649 95.3552 69.1822 97.3001 63.2906C97.6386 62.2645 97.0814 61.1576 96.055 60.8188Z" fill="#FF8A34"/>
<path d="M36.3838 88.3387C30.9711 86.5518 26.0266 83.7833 21.6875 80.1096C17.6805 76.7171 14.3748 72.7104 11.8479 68.1883L15.9293 69.0684C16.9856 69.2966 18.027 68.6243 18.2549 67.568C18.4827 66.5114 17.811 65.4704 16.7545 65.2424L8.45083 63.452C7.45981 63.2382 6.46918 63.8173 6.16899 64.786L3.6936 72.7766C3.37387 73.8091 3.95141 74.9051 4.98383 75.2251C5.17661 75.2848 5.37172 75.3133 5.56352 75.3132C6.39848 75.3132 7.17211 74.7743 7.43227 73.9348L8.55434 70.3124C11.2948 75.1569 14.8553 79.4534 19.1588 83.0967C23.8827 87.0962 29.2655 90.1102 35.1571 92.0553C35.3608 92.1225 35.5674 92.1546 35.7707 92.1546C36.5922 92.1546 37.3571 91.6333 37.6288 90.8104C37.9674 89.784 37.4102 88.6774 36.3838 88.3387Z" fill="#FF8A34"/>
<path d="M54.1133 49.2724C51.6234 48.3923 48.8633 47.3239 47.2705 46.0747C46.5758 45.5298 46.2701 44.4181 46.4918 43.2423C46.7053 42.1099 47.4779 40.7355 49.0066 40.2751C52.5158 39.2177 56.0646 41.737 56.1447 41.7944C57.0127 42.4329 58.2348 42.2495 58.8767 41.3827C59.5201 40.5142 59.3373 39.2886 58.4687 38.6454C58.3322 38.5444 56.1576 36.962 53.1449 36.3452V34.4878C53.1449 33.4069 52.2687 32.5308 51.1879 32.5308C50.107 32.5308 49.2308 33.4069 49.2308 34.4878V36.2239C48.7846 36.2927 48.333 36.3901 47.8775 36.5274C45.1941 37.3356 43.1892 39.631 42.6453 42.5175C42.1486 45.1528 42.9953 47.696 44.8549 49.1546C46.4976 50.4431 48.8021 51.5464 52.8088 52.9628C54.7209 53.6386 55.182 55.4745 55.2916 56.2323C55.5742 58.187 54.8006 60.1427 53.3209 61.2148C51.3383 62.6513 48.2289 62.4415 44.5654 60.6241C43.5972 60.1441 42.423 60.5396 41.9426 61.5075C41.4623 62.4757 41.8578 63.6499 42.826 64.1304C44.3974 64.9099 46.7322 65.8357 49.2308 66.0314V68.048C49.2308 69.1288 50.107 70.005 51.1879 70.005C52.2687 70.005 53.1449 69.1288 53.1449 68.048V65.6288C53.9931 65.3603 54.8252 64.9581 55.6172 64.3843C58.2609 62.4691 59.6537 59.0493 59.1654 55.6722C58.7252 52.6274 56.8365 50.2351 54.1133 49.2724Z" fill="#FF8A34"/>
<path d="M75.3189 35.1734C74.765 34.2479 73.5654 33.9467 72.64 34.5008C71.7144 35.0547 71.4133 36.2543 71.9674 37.1797C74.2785 41.0406 75.5 45.4738 75.5 50C75.5 63.7852 64.2852 75 50.5 75C36.7148 75 25.5 63.7852 25.5 50C25.5 36.2148 36.7148 25 50.5 25C53.748 25 56.907 25.6131 59.8891 26.8225C60.8885 27.2275 62.0277 26.7461 62.433 25.7465C62.8383 24.7469 62.3566 23.608 61.357 23.2025C57.9064 21.8031 54.2537 21.0938 50.5 21.0938C34.5611 21.0938 21.5938 34.0611 21.5938 50C21.5938 65.9389 34.5611 78.9062 50.5 78.9062C66.4389 78.9062 79.4062 65.9389 79.4062 50C79.4062 44.7674 77.993 39.6404 75.3189 35.1734Z" fill="#FF8A34"/>
<path d="M68.3887 31.5107C69.4555 31.3522 70.1918 30.3588 70.0332 29.292C69.8746 28.2252 68.8813 27.4889 67.8145 27.6475C66.7476 27.806 66.0114 28.7994 66.1699 29.8662C66.3285 30.933 67.3219 31.6693 68.3887 31.5107Z" fill="#FF8A34"/>
</g>
<defs>
<clipPath id="clip0">
<rect width="100" height="100" fill="white" transform="translate(0.5)"/>
</clipPath>
</defs>
</svg>
