<svg width="20" height="20" viewBox="0 0 20 20" fill="none" xmlns="http://www.w3.org/2000/svg">
<path d="M10.0003 1.6665C14.6087 1.6665 18.3337 5.39984 18.3337 9.99984C18.3337 14.6082 14.6087 18.3332 10.0003 18.3332C5.40033 18.3332 1.66699 14.6082 1.66699 9.99984C1.66699 5.39984 5.40033 1.6665 10.0003 1.6665ZM9.70866 5.77484C9.36699 5.77484 9.08366 6.04984 9.08366 6.39984V10.6082C9.08366 10.8248 9.20033 11.0248 9.39199 11.1415L12.6587 13.0915C12.7587 13.1498 12.867 13.1832 12.9837 13.1832C13.192 13.1832 13.4003 13.0748 13.517 12.8748C13.692 12.5832 13.6003 12.1998 13.3003 12.0165L10.3337 10.2498V6.39984C10.3337 6.04984 10.0503 5.77484 9.70866 5.77484Z" fill="#74B3AF"/>
</svg>
